<svg width="8" height="12" viewBox="0 0 8 12" fill="none" xmlns="http://www.w3.org/2000/svg" xmlns:xlink="http://www.w3.org/1999/xlink">
<path d="M7.35694 4.07422C7.16162 4.27344 6.83741 4.27344 6.63819 4.07812L4.25928 1.70703V10.7422C4.25928 11.0195 4.03272 11.2461 3.75147 11.2461C3.47022 11.2461 3.24366 11.0195 3.24366 10.7422V1.70703L0.86475 4.08203C0.665531 4.27734 0.345218 4.27344 0.146 4.07812C-0.0493129 3.87891 -0.0493127 3.5625 0.149906 3.36328L3.39209 0.144531C3.43897 0.101562 3.48975 0.0664062 3.55225 0.0390625C3.61475 0.0117188 3.68116 0 3.74756 0C3.88037 0 4.00537 0.0507803 4.10303 0.144531L7.34522 3.36328C7.54834 3.55469 7.55225 3.875 7.35694 4.07422Z" fill="#2EB38C"/>
</svg>
