<svg width="8" height="12" viewBox="0 0 8 12" fill="none" xmlns="http://www.w3.org/2000/svg" xmlns:xlink="http://www.w3.org/1999/xlink">
<path d="M7.60547 7.54688C7.41016 7.34766 7.08594 7.34766 6.88672 7.54297L4.50782 9.91406V0.878906C4.50782 0.601563 4.28125 0.375 4 0.375C3.71875 0.375 3.49219 0.601563 3.49219 0.878906V9.91406L1.11329 7.53906C0.914066 7.34375 0.593754 7.34766 0.394535 7.54297C0.199222 7.74219 0.199223 8.05859 0.398441 8.25781L3.64063 11.4766C3.6875 11.5195 3.73828 11.5547 3.80078 11.582C3.86328 11.6094 3.92969 11.6211 3.9961 11.6211C4.12891 11.6211 4.25391 11.5703 4.35157 11.4766L7.59375 8.25781C7.79688 8.06641 7.80078 7.74609 7.60547 7.54688Z" fill="#FE3C3C"/>
</svg>
