<svg width="16" height="16" viewBox="0 0 16 16" fill="none" xmlns="http://www.w3.org/2000/svg">
<path d="M8.95581 14.0061C8.83551 14.1762 8.65936 14.2997 8.4585 14.3552L7.45957 14.628C7.38116 14.6502 7.30024 14.6617 7.21861 14.6617C7.03458 14.6617 6.85664 14.6054 6.70662 14.4998C6.48642 14.3466 6.34822 14.1049 6.32638 13.8432L6.23866 12.8117C6.2179 12.6001 6.27482 12.3881 6.39512 12.2177L6.432 12.1647H2.86881C2.5813 12.1647 2.34822 11.9277 2.34822 11.6409C2.34822 11.353 2.5813 11.116 2.86881 11.116H7.18173L8.14557 9.73936H2.86881C2.5813 9.73936 2.34822 9.50233 2.34822 9.21483C2.34822 8.92732 2.5813 8.6903 2.86881 8.6903L8.88778 8.67491L11.1449 5.4386V3.04225C11.1449 2.64841 10.8402 2.33047 10.4474 2.33047H8.71951V3.69782C8.71951 4.34336 8.19176 4.85393 7.54729 4.85393H4.07217C3.42627 4.85393 2.91679 4.34301 2.91679 3.69782V2.33047H1.17028C0.776792 2.33047 0.458496 2.64877 0.458496 3.04225V15.2703C0.458496 15.6642 0.77715 15.9996 1.17028 15.9996H10.4467C10.8405 15.9996 11.1445 15.6638 11.1445 15.2703V10.898L8.95581 14.0061ZM2.86881 6.26424H8.74922C9.03601 6.26424 9.26945 6.5009 9.26945 6.78841C9.26945 7.07591 9.03601 7.31293 8.74922 7.31293H2.86881C2.5813 7.31293 2.34822 7.07591 2.34822 6.78841C2.34822 6.5009 2.5813 6.26424 2.86881 6.26424Z" fill="#1BBD9F"/>
<path d="M4.08153 4.16613H7.55342C7.81622 4.16613 8.02997 3.95274 8.02997 3.68922V1.69245C8.02997 1.42893 7.81622 1.21554 7.55342 1.21554H7.03033C7.02675 0.544218 6.4811 0 5.80835 0C5.13523 0 4.5903 0.54386 4.58636 1.21554H4.08153C3.81801 1.21554 3.60498 1.42893 3.60498 1.69245V3.68887C3.60498 3.95238 3.81801 4.16613 4.08153 4.16613ZM5.8087 0.67705C6.10767 0.67705 6.35006 0.917651 6.35328 1.2159H5.26305C5.26663 0.917651 5.50938 0.67705 5.8087 0.67705Z" fill="#1BBD9F"/>
<path d="M15.5369 3.21445C15.5207 3.12566 15.4703 3.04797 15.3965 2.99641L14.5272 2.39061C14.4685 2.34943 14.4008 2.32974 14.3342 2.32974C14.2282 2.32974 14.1226 2.37987 14.0578 2.47403L7.8999 11.3043L9.32239 12.2964L15.481 3.46651C15.5318 3.39312 15.5522 3.30253 15.5369 3.21445Z" fill="#1BBD9F"/>
<path d="M6.93028 12.7461L7.01944 13.783C7.02373 13.8428 7.0556 13.8962 7.10393 13.9305C7.1383 13.9542 7.17876 13.9678 7.21886 13.9678C7.23641 13.9678 7.25431 13.9653 7.27149 13.9603L8.27579 13.6853C8.32126 13.6728 8.36065 13.6448 8.38786 13.6065L8.76487 13.0659L7.34131 12.0734L6.9643 12.614C6.9378 12.6523 6.92527 12.6992 6.93028 12.7461Z" fill="#1BBD9F"/>
</svg>
