<svg width="60" height="60" viewBox="0 0 60 60" fill="none" xmlns="http://www.w3.org/2000/svg">
<circle opacity="0.15" cx="30" cy="30" r="30" fill="#A0A7B9"/>
<path d="M38.4409 40.9145H33.5922H32.2865H32.0045V34.4106H34.1316C34.671 34.4106 34.9898 33.7976 34.671 33.3562L30.5333 27.6309C30.2697 27.2631 29.7242 27.2631 29.4606 27.6309L25.3228 33.3562C25.0041 33.7976 25.3167 34.4106 25.8623 34.4106H27.9894V40.9145H27.7074H26.4017H20.7805C17.5623 40.7367 15 37.7269 15 34.4658C15 32.2161 16.2199 30.2545 18.0282 29.194C17.8627 28.7465 17.7769 28.2684 17.7769 27.7657C17.7769 25.467 19.6342 23.6096 21.933 23.6096C22.4295 23.6096 22.9076 23.6954 23.3551 23.8609C24.6853 21.0411 27.5541 19.0857 30.8888 19.0857C35.2043 19.0918 38.7597 22.3959 39.1643 26.6071C42.4806 27.1772 45 30.2483 45 33.724C45 37.4388 42.1067 40.657 38.4409 40.9145Z" fill="#A0A7B9"/>
</svg>
