<svg width="16" height="16" viewBox="0 0 16 16" fill="none" xmlns="http://www.w3.org/2000/svg">
<path d="M10.9966 3.34029C10.7289 3.25108 10.4144 3.20859 10.0618 3.20859C9.50611 3.20859 9.07842 3.32864 8.79037 3.56491C8.61927 3.70033 8.45931 3.93042 8.3042 4.25044H11.8347C11.7972 3.81047 11.5203 3.50644 10.9966 3.34029Z" fill="#A0A7B9"/>
<path d="M4.30304 5.34395C4.63967 5.48793 4.99228 5.55868 5.36088 5.55868C5.80394 5.55868 6.14613 5.47555 6.39716 5.30394C6.64819 5.13469 6.82424 4.9045 6.92087 4.61841H3.76953C3.79047 4.95689 3.96703 5.19936 4.30304 5.34395Z" fill="#A0A7B9"/>
<path d="M8.00073 0C3.73803 0 0.287598 1.98521 0.287598 4.43752C0.287598 6.88982 3.73803 8.87751 8.00083 8.87751C12.2636 8.87751 15.7141 6.88982 15.7141 4.43752C15.7141 1.98521 12.2635 0 8.00073 0ZM14.1275 4.61841H12.8241C12.7386 5.36489 12.2788 5.87499 11.4401 6.14272C10.9865 6.29041 10.3767 6.36364 9.60755 6.36364V5.67873C10.2217 5.65655 10.6654 5.60179 10.9491 5.51258C11.4562 5.34953 11.7398 5.05168 11.8039 4.61841H8.14481C7.96391 5.17471 7.65369 5.58952 7.22599 5.85354C6.79335 6.12189 6.20013 6.25297 5.44199 6.25297C4.75832 6.25297 4.14416 6.11209 3.5989 5.8228C3.05425 5.53723 2.7761 5.13418 2.76568 4.6179H1.87338V4.2493H2.75465C2.81931 3.7391 3.08076 3.34595 3.53991 3.06966C4.00452 2.79584 4.61373 2.65424 5.37186 2.63887V3.31522C5.03029 3.33368 4.73615 3.38597 4.49059 3.47518C4.04196 3.63823 3.80135 3.89607 3.78041 4.2493H7.04933C7.34346 3.65298 7.61553 3.24746 7.86655 3.03212C8.28868 2.68508 8.91274 2.51274 9.73605 2.51274C10.9274 2.51274 11.7717 2.73427 12.2732 3.17981C12.5508 3.42846 12.7323 3.7853 12.824 4.2493H14.1274V4.61841H14.1275Z" fill="#A0A7B9"/>
<path d="M7.99986 9.47133C4.08791 9.47133 0.86819 7.79501 0.363559 5.62518C0.317974 5.81969 0.286621 6.01719 0.286621 6.21902C0.286621 8.67133 3.73705 10.659 7.99986 10.659C12.2627 10.659 15.7131 8.67133 15.7131 6.21902C15.7131 6.01719 15.6811 5.82021 15.6362 5.62518C15.1315 7.79501 11.9119 9.47133 7.99986 9.47133Z" fill="#A0A7B9"/>
<path d="M7.99986 11.2516C4.08791 11.2516 0.86819 9.57532 0.363559 7.40488C0.317974 7.59939 0.286621 7.79689 0.286621 7.9981C0.286621 10.4504 3.73705 12.4387 7.99986 12.4387C12.2627 12.4387 15.7131 10.451 15.7131 7.9981C15.7131 7.79627 15.6811 7.59928 15.6362 7.40488C15.1315 9.57594 11.9119 11.2516 7.99986 11.2516Z" fill="#A0A7B9"/>
<path d="M7.99986 13.0325C4.08791 13.0325 0.86819 11.3562 0.363559 9.18576C0.317974 9.38027 0.286621 9.57839 0.286621 9.77898C0.286621 12.2313 3.73705 14.219 7.99986 14.219C12.2627 14.219 15.7131 12.2319 15.7131 9.77898C15.7131 9.57715 15.6811 9.38079 15.6362 9.18576C15.1315 11.3563 11.9119 13.0325 7.99986 13.0325Z" fill="#A0A7B9"/>
<path d="M7.99986 14.8123C4.08791 14.8123 0.86819 13.1366 0.363559 10.9662C0.317974 11.16 0.286621 11.3582 0.286621 11.56C0.286621 14.0123 3.73705 16 7.99986 16C12.2627 16 15.7131 14.0123 15.7131 11.56C15.7131 11.3582 15.6811 11.1612 15.6362 10.9662C15.1315 13.1372 11.9119 14.8123 7.99986 14.8123Z" fill="#A0A7B9"/>
</svg>
