<svg width="6" height="4" viewBox="0 0 6 4" fill="none" xmlns="http://www.w3.org/2000/svg">
<path d="M1.05984 0.645034L2.99984 2.58503L4.93984 0.645034C4.98613 0.598743 5.04108 0.562023 5.10156 0.536971C5.16205 0.511918 5.22687 0.499023 5.29234 0.499023C5.3578 0.499023 5.42263 0.511918 5.48311 0.536971C5.54359 0.562023 5.59855 0.598743 5.64484 0.645034C5.69113 0.691325 5.72785 0.74628 5.7529 0.806762C5.77795 0.867244 5.79085 0.932068 5.79085 0.997534C5.79085 1.063 5.77795 1.12782 5.7529 1.18831C5.72785 1.24879 5.69113 1.30374 5.64484 1.35003L3.34984 3.64503C3.30358 3.69139 3.24863 3.72816 3.18815 3.75325C3.12766 3.77834 3.06282 3.79126 2.99734 3.79126C2.93185 3.79126 2.86701 3.77834 2.80652 3.75325C2.74604 3.72816 2.69109 3.69139 2.64484 3.64503L0.349835 1.35003C0.303483 1.30378 0.26671 1.24883 0.241619 1.18835C0.216528 1.12786 0.203613 1.06302 0.203613 0.997534C0.203613 0.93205 0.216528 0.867208 0.241619 0.806722C0.26671 0.746235 0.303483 0.691291 0.349835 0.645034C0.544835 0.455034 0.864835 0.450034 1.05984 0.645034Z" fill="#6861AC"/>
</svg>
