<svg width="24" height="25" viewBox="0 0 24 25" fill="none" xmlns="http://www.w3.org/2000/svg">
<path d="M7.71244 9.50968L11.5924 13.3931L15.4724 9.50968C15.565 9.41702 15.6749 9.34352 15.7959 9.29337C15.9169 9.24322 16.0465 9.21741 16.1774 9.21741C16.3084 9.21741 16.438 9.24322 16.559 9.29337C16.68 9.34352 16.7899 9.41702 16.8824 9.50968C16.975 9.60235 17.0485 9.71235 17.0986 9.83342C17.1487 9.95449 17.1745 10.0843 17.1745 10.2153C17.1745 10.3463 17.1487 10.4761 17.0986 10.5972C17.0485 10.7182 16.975 10.8283 16.8824 10.9209L12.2924 15.5149C12.1999 15.6077 12.09 15.6813 11.9691 15.7316C11.8481 15.7818 11.7184 15.8076 11.5874 15.8076C11.4565 15.8076 11.3268 15.7818 11.2058 15.7316C11.0848 15.6813 10.975 15.6077 10.8824 15.5149L6.29244 10.9209C6.19974 10.8283 6.12619 10.7183 6.07601 10.5973C6.02583 10.4762 6 10.3464 6 10.2153C6 10.0842 6.02583 9.95442 6.07601 9.83334C6.12619 9.71226 6.19974 9.60228 6.29244 9.50968C6.68244 9.12935 7.32244 9.11934 7.71244 9.50968Z" fill="#1BBD9F"/>
<ellipse opacity="0.15" cx="12" cy="12.22" rx="12" ry="12.0105" fill="#1BBD9F"/>
</svg>
