<svg width="6" height="4" viewBox="0 0 6 4" fill="none" xmlns="http://www.w3.org/2000/svg">
<path d="M1.05984 3.35497L2.99984 1.41497L4.93984 3.35497C4.98613 3.40126 5.04108 3.43798 5.10156 3.46303C5.16205 3.48808 5.22687 3.50098 5.29234 3.50098C5.3578 3.50098 5.42263 3.48808 5.48311 3.46303C5.54359 3.43798 5.59855 3.40126 5.64484 3.35497C5.69113 3.30868 5.72785 3.25372 5.7529 3.19324C5.77795 3.13276 5.79085 3.06793 5.79085 3.00247C5.79085 2.937 5.77795 2.87218 5.7529 2.81169C5.72785 2.75121 5.69113 2.69626 5.64484 2.64997L3.34984 0.354966C3.30358 0.308614 3.24863 0.271841 3.18815 0.24675C3.12766 0.221659 3.06282 0.208744 2.99734 0.208744C2.93185 0.208744 2.86701 0.221659 2.80652 0.24675C2.74604 0.271841 2.69109 0.308614 2.64484 0.354966L0.349835 2.64997C0.303483 2.69622 0.26671 2.75117 0.241619 2.81165C0.216528 2.87214 0.203613 2.93698 0.203613 3.00247C0.203613 3.06795 0.216528 3.13279 0.241619 3.19328C0.26671 3.25376 0.303483 3.30871 0.349835 3.35497C0.544835 3.54497 0.864835 3.54997 1.05984 3.35497Z" fill="#6861AC"/>
</svg>
