<svg width="7" height="11" viewBox="0 0 7 11" fill="none" xmlns="http://www.w3.org/2000/svg">
<path d="M0.31045 1.68571L4.43531 5.50513L0.310449 9.32456C0.212025 9.41569 0.133951 9.52389 0.0806835 9.64296C0.0274165 9.76204 -4.31254e-07 9.88966 -4.37925e-07 10.0185C-4.44595e-07 10.1474 0.0274165 10.2751 0.0806835 10.3941C0.13395 10.5132 0.212025 10.6214 0.310449 10.7125C0.408874 10.8037 0.525721 10.876 0.654319 10.9253C0.782917 10.9746 0.920747 11 1.05994 11C1.19913 11 1.33696 10.9746 1.46556 10.9253C1.59416 10.876 1.71101 10.8037 1.80943 10.7125L6.6891 6.1942C6.78765 6.10313 6.86584 5.99496 6.91919 5.87588C6.97254 5.75679 7 5.62913 7 5.50021C7 5.37129 6.97254 5.24363 6.91919 5.12454C6.86584 5.00546 6.78765 4.89729 6.6891 4.80622L1.80943 0.287878C1.71108 0.196622 1.59426 0.124223 1.46565 0.0748245C1.33704 0.0254265 1.19917 5.24176e-08 1.05994 4.63315e-08C0.920707 4.02454e-08 0.782841 0.0254265 0.654233 0.0748245C0.525625 0.124222 0.408802 0.196622 0.31045 0.287878C-0.0935314 0.671789 -0.104163 1.3018 0.31045 1.68571Z" fill="#717889"/>
</svg>
