<svg width="37" height="36" viewBox="0 0 37 36" fill="none" xmlns="http://www.w3.org/2000/svg">
<circle opacity="0.15" cx="18.3496" cy="18" r="18" fill="#6861AC"/>
<path d="M20.3496 12H23.3496C23.9496 12 24.3496 12.4 24.3496 13V14H11.3496V13C11.3496 12.4 11.8496 12 12.3496 12H15.3496C15.5496 10.9 16.6496 10 17.8496 10C19.0496 10 20.1496 10.9 20.3496 12ZM16.3496 12H19.3496C19.1496 11.4 18.4496 11 17.8496 11C17.2496 11 16.5496 11.4 16.3496 12ZM12.3496 15H23.3496L22.4496 25.1C22.4496 25.6 21.9496 26 21.4496 26H14.2496C13.7496 26 13.3496 25.6 13.2496 25.1L12.3496 15Z" fill="#6861AC"/>
</svg>
