<svg width="24" height="24" viewBox="0 0 24 24" fill="none" xmlns="http://www.w3.org/2000/svg">
<path d="M12 13.0286L8.19069 9.21936C7.7605 8.78917 7.05785 8.80175 6.63019 9.21844L6.63018 9.21844L6.62934 9.21928C6.52733 9.32109 6.44639 9.44201 6.39117 9.57513C6.33595 9.70825 6.30753 9.85095 6.30753 9.99507C6.30753 10.1392 6.33595 10.2819 6.39117 10.415C6.44639 10.5481 6.52731 10.669 6.62932 10.7708C6.62932 10.7708 6.62933 10.7708 6.62934 10.7709L11.2192 15.3607C11.321 15.4627 11.4419 15.5436 11.575 15.5989C11.7082 15.6541 11.8509 15.6825 11.995 15.6825C12.1391 15.6825 12.2818 15.6541 12.4149 15.5989C12.548 15.5436 12.669 15.4627 12.7708 15.3607L17.3607 10.7708C17.4626 10.6689 17.5434 10.548 17.5985 10.4149C17.6536 10.2818 17.682 10.1391 17.682 9.99507C17.682 9.85101 17.6536 9.70835 17.5985 9.57526C17.5434 9.44216 17.4626 9.32123 17.3607 9.21936C17.2588 9.11749 17.1379 9.03668 17.0048 8.98155C16.8717 8.92642 16.729 8.89805 16.585 8.89805C16.4409 8.89805 16.2983 8.92642 16.1652 8.98155C16.0321 9.03668 15.9111 9.11749 15.8093 9.21936L12 13.0286Z" fill="#717889" stroke="#717889" stroke-width="0.2"/>
</svg>
