<svg width="21" height="20" viewBox="0 0 21 20" fill="none" xmlns="http://www.w3.org/2000/svg">
<path d="M12 18V13H10V18C10 18.5304 9.7893 19.0391 9.41422 19.4142C9.03915 19.7893 8.53044 20 8.00001 20H5.00001C4.46958 20 3.96087 19.7893 3.5858 19.4142C3.21072 19.0391 3.00001 18.5304 3.00001 18V10.41L2.70001 10.71C2.60961 10.814 2.49869 10.8982 2.37421 10.9573C2.24973 11.0164 2.11439 11.0491 1.97666 11.0534C1.83893 11.0578 1.7018 11.0336 1.57386 10.9824C1.44593 10.9312 1.32995 10.8541 1.23321 10.756C1.13647 10.6579 1.06105 10.5408 1.01168 10.4122C0.96232 10.2835 0.940077 10.1461 0.946349 10.0084C0.952622 9.87076 0.987275 9.73589 1.04813 9.61227C1.10899 9.48864 1.19475 9.37893 1.30001 9.29001L10.3 0.290008C10.4869 0.106781 10.7383 0.00415039 11 0.00415039C11.2618 0.00415039 11.5131 0.106781 11.7 0.290008L20.7 9.29001C20.8653 9.48013 20.9527 9.72563 20.9448 9.97743C20.9369 10.2292 20.8343 10.4688 20.6574 10.6482C20.4805 10.8275 20.2425 10.9336 19.9908 10.945C19.7392 10.9565 19.4925 10.8726 19.3 10.71L19 10.41V18C19 18.5304 18.7893 19.0391 18.4142 19.4142C18.0392 19.7893 17.5304 20 17 20H14C13.4696 20 12.9609 19.7893 12.5858 19.4142C12.2107 19.0391 12 18.5304 12 18ZM17 18V8.41001L11 2.41001L5.00001 8.41001V18H8.00001V13C8.00001 11.9 8.90001 11 10 11H12C12.5304 11 13.0392 11.2107 13.4142 11.5858C13.7893 11.9609 14 12.4696 14 13V18H17Z" fill="#6861AC"/>
</svg>
