<svg width="22" height="18" viewBox="0 0 22 18" fill="#352c7c" xmlns="http://www.w3.org/2000/svg">
<path d="M20.4783 9.69548H10.3912C10.0141 9.69548 9.71945 9.37761 9.71945 9.00003C9.71945 8.62246 10.0141 8.30459 10.3912 8.30459H20.4783C20.8553 8.30459 21.15 8.62246 21.15 9.00003C21.15 9.37761 20.8553 9.69548 20.4783 9.69548Z" fill="#352c7c" stroke="#352c7c" stroke-width="0.3"/>
<path d="M20.9551 9.4891L20.9551 9.48914L18.1728 12.3978C18.1728 12.3979 18.1727 12.398 18.1726 12.398C18.042 12.5353 17.869 12.6044 17.6953 12.6044C17.5217 12.6044 17.3489 12.5353 17.2179 12.3992L17.2175 12.3988C16.9583 12.1278 16.9583 11.691 17.2175 11.4199L19.5323 8.99994L17.2175 6.57997C16.9583 6.30891 16.9583 5.8721 17.2175 5.60104L17.2176 5.601C17.4806 5.32625 17.9096 5.3262 18.1725 5.60104L20.9551 8.51007C21.2143 8.78115 21.2143 9.21794 20.9551 9.4891Z" fill="#352c7c" stroke="#352c7c" stroke-width="0.3"/>
<path d="M15.5376 6.91957L15.5367 6.91995C15.1868 7.06256 14.7975 6.8821 14.6628 6.5258L14.6628 6.52562C13.6811 3.91905 11.3204 2.2409 8.65222 2.2409C5.09738 2.2409 2.19348 5.26712 2.19348 9C2.19348 12.7329 5.09738 15.7591 8.65222 15.7591C11.3204 15.7591 13.6812 14.0809 14.6628 11.4752C14.7969 11.1182 15.1864 10.9384 15.5365 11.0807L15.5373 11.081C15.8837 11.224 16.0475 11.6283 15.9146 11.9803C14.7327 15.117 11.8838 17.15 8.65222 17.15C4.34403 17.15 0.85 13.4874 0.85 9C0.85 4.51262 4.34403 0.85 8.65222 0.85C11.8838 0.85 14.7327 2.88303 15.9146 6.02052L15.5376 6.91957ZM15.5376 6.91957C15.8835 6.77593 16.0476 6.37275 15.9147 6.02065L15.5376 6.91957Z" fill="#352c7c" stroke="#352c7c" stroke-width="0.3"/>
</svg>

