<svg width="25" height="24" viewBox="0 0 25 24" fill="none" xmlns="http://www.w3.org/2000/svg">
<circle opacity="0.15" cx="12.1748" cy="12" r="12" fill="#1BBD9F"/>
<g clip-path="url(#clip0)">
<path d="M18.7733 5.8793C18.7139 5.82724 18.6295 5.81516 18.5579 5.84836L5.62314 11.8582C5.5535 11.8906 5.50866 11.9601 5.50782 12.0368C5.50699 12.1136 5.55036 12.184 5.61931 12.2179L9.27982 14.0143C9.34695 14.0473 9.42699 14.0398 9.48694 13.995L13.046 11.335L10.252 14.2089C10.2121 14.2499 10.1918 14.3061 10.1962 14.3631L10.4744 17.986C10.4805 18.0662 10.5344 18.1349 10.6108 18.16C10.6313 18.1667 10.6523 18.17 10.6731 18.17C10.73 18.17 10.7854 18.1456 10.824 18.1009L12.7669 15.8495L15.1687 16.9971C15.2208 17.022 15.2811 17.0231 15.3341 17C15.3871 16.9769 15.4274 16.9321 15.4447 16.877L18.832 6.08884C18.8557 6.01351 18.8326 5.93135 18.7733 5.8793Z" fill="#1BBD9F"/>
</g>
<defs>
<clipPath id="clip0">
<rect width="13.3333" height="13.3333" fill="white" transform="translate(5.50781 5.33325)"/>
</clipPath>
</defs>
</svg>
