<svg width="20" height="20" viewBox="0 0 20 20" fill="none" xmlns="http://www.w3.org/2000/svg">
<path d="M17.9058 2.41977H16.3855V1.38209C16.3855 0.618791 15.7667 0 15.0034 0H14.9482C14.1848 0 13.5661 0.618791 13.5661 1.38209V2.41977H6.43445V1.38209C6.43445 0.618791 5.81566 0 5.05236 0H4.99708C4.23377 0 3.61498 0.618791 3.61498 1.38209V2.41977H2.09468C1.33138 2.41977 0.712585 3.03856 0.712585 3.80186V18.6179C0.712585 19.3813 1.33138 20 2.09468 20H17.9058C18.6691 20 19.2879 19.3813 19.2879 18.6179V3.80186C19.2879 3.03856 18.6691 2.41977 17.9058 2.41977ZM16.966 17.8163H3.0345V6.59369H16.966V17.8163Z" fill="#717889"/>
<path d="M4.92811 11.6722H7.33284C7.45496 11.6722 7.55397 11.5732 7.55397 11.4511V9.04633C7.55397 8.92421 7.45496 8.8252 7.33284 8.8252H4.92811C4.80598 8.8252 4.70697 8.92421 4.70697 9.04633V11.4511C4.70697 11.5732 4.80598 11.6722 4.92811 11.6722Z" fill="#717889"/>
<path d="M8.79786 11.6722H11.2026C11.3247 11.6722 11.4237 11.5732 11.4237 11.4511V9.04633C11.4237 8.92421 11.3247 8.8252 11.2026 8.8252H8.79786C8.67573 8.8252 8.57672 8.92421 8.57672 9.04633V11.4511C8.57672 11.5732 8.67573 11.6722 8.79786 11.6722Z" fill="#717889"/>
<path d="M12.6674 11.6722H15.0722C15.1943 11.6722 15.2933 11.5732 15.2933 11.4511V9.04633C15.2933 8.92421 15.1943 8.8252 15.0722 8.8252H12.6674C12.5453 8.8252 12.4463 8.92421 12.4463 9.04633V11.4511C12.4463 11.5732 12.5453 11.6722 12.6674 11.6722Z" fill="#717889"/>
<path d="M4.92811 15.5421H7.33284C7.45496 15.5421 7.55397 15.4431 7.55397 15.3209V12.9162C7.55397 12.7941 7.45496 12.6951 7.33284 12.6951H4.92811C4.80598 12.6951 4.70697 12.7941 4.70697 12.9162V15.3209C4.70697 15.4431 4.80598 15.5421 4.92811 15.5421Z" fill="#717889"/>
<path d="M8.79786 15.5421H11.2026C11.3247 15.5421 11.4237 15.4431 11.4237 15.3209V12.9162C11.4237 12.7941 11.3247 12.6951 11.2026 12.6951H8.79786C8.67573 12.6951 8.57672 12.7941 8.57672 12.9162V15.3209C8.57672 15.4431 8.67573 15.5421 8.79786 15.5421Z" fill="#717889"/>
<path d="M12.6674 15.5421H15.0722C15.1943 15.5421 15.2933 15.4431 15.2933 15.3209V12.9162C15.2933 12.7941 15.1943 12.6951 15.0722 12.6951H12.6674C12.5453 12.6951 12.4463 12.7941 12.4463 12.9162V15.3209C12.4463 15.4431 12.5453 15.5421 12.6674 15.5421Z" fill="#717889"/>
</svg>
