<svg width="24" height="24" viewBox="0 0 24 24" fill="none" xmlns="http://www.w3.org/2000/svg">
<circle opacity="0.15" cx="12" cy="12" r="12" fill="#1BBD9F"/>
<path d="M16.0625 10.9625H13.0375V7.9375C13.0375 7.66234 12.9282 7.39845 12.7336 7.20388C12.5391 7.00931 12.2752 6.9 12 6.9C11.7248 6.9 11.4609 7.00931 11.2664 7.20388C11.0718 7.39845 10.9625 7.66234 10.9625 7.9375V10.9625H7.9375C7.66234 10.9625 7.39845 11.0718 7.20388 11.2664C7.00931 11.4609 6.9 11.7248 6.9 12C6.9 12.2752 7.00931 12.5391 7.20388 12.7336C7.39845 12.9282 7.66234 13.0375 7.9375 13.0375H10.9625V16.0625C10.9625 16.3377 11.0718 16.6016 11.2664 16.7961C11.4609 16.9907 11.7248 17.1 12 17.1C12.2752 17.1 12.5391 16.9907 12.7336 16.7961C12.9282 16.6016 13.0375 16.3377 13.0375 16.0625V13.0375H16.0625C16.3377 13.0375 16.6016 12.9282 16.7961 12.7336C16.9907 12.5391 17.1 12.2752 17.1 12C17.1 11.7248 16.9907 11.4609 16.7961 11.2664C16.6016 11.0718 16.3377 10.9625 16.0625 10.9625Z" fill="#1BBD9F" stroke="#1BBD9F" stroke-width="0.2"/>
</svg>
