<svg width="24" height="24" viewBox="0 0 24 24" fill="none" xmlns="http://www.w3.org/2000/svg">
<circle opacity="0.15" cx="12" cy="12" r="12" fill="#1BBD9F"/>
<g clip-path="url(#clip0)">
<path d="M16.4752 9.09093L13.5665 12L16.4752 14.9089C16.9079 15.3417 16.9079 16.0428 16.4752 16.4756C16.259 16.6918 15.9756 16.8 15.6923 16.8C15.4086 16.8 15.1251 16.692 14.9091 16.4756L11.9997 13.5664L9.09057 16.4756C8.87441 16.6918 8.59096 16.8 8.30743 16.8C8.02397 16.8 7.74071 16.692 7.52437 16.4756C7.09171 16.043 7.09171 15.3418 7.52437 14.9088L10.433 11.9999L7.5242 9.09093C7.09154 8.65827 7.09154 7.95698 7.5242 7.52432C7.95678 7.09199 8.65766 7.09199 9.0904 7.52432L11.9997 10.4334L14.9088 7.52432C15.3416 7.09199 16.0426 7.09199 16.4751 7.52432C16.9079 7.95698 16.9079 8.65827 16.4752 9.09093Z" fill="#1BBD9F"/>
</g>
<defs>
<clipPath id="clip0">
<rect width="9.6" height="9.6" fill="white" transform="translate(7.2002 7.19995)"/>
</clipPath>
</defs>
</svg>
