<svg width="24" height="24" viewBox="0 0 24 24" fill="none" xmlns="http://www.w3.org/2000/svg">
<circle opacity="0.15" cx="12" cy="12" r="12" fill="#6861AC"/>
<path d="M5.54839 6.32275C4.69315 6.32275 4 7.0159 4 7.87112C4 8.72634 4.69315 9.41951 5.54839 9.41951C6.40363 9.41951 7.09678 8.72634 7.09678 7.87112C7.09678 7.0159 6.40361 6.32275 5.54839 6.32275ZM5.54839 10.4518C4.69315 10.4518 4 11.145 4 12.0002C4 12.8554 4.69315 13.5486 5.54839 13.5486C6.40363 13.5486 7.09678 12.8554 7.09678 12.0002C7.09678 11.145 6.40361 10.4518 5.54839 10.4518ZM5.54839 14.5808C4.69315 14.5808 4 15.274 4 16.1292C4 16.9844 4.69315 17.6776 5.54839 17.6776C6.40363 17.6776 7.09678 16.9844 7.09678 16.1292C7.09678 15.274 6.40361 14.5808 5.54839 14.5808ZM9.16128 8.90338H18.9677C19.538 8.90338 20 8.44145 20 7.87112C20 7.30079 19.538 6.83886 18.9677 6.83886H9.16128C8.59095 6.83886 8.12902 7.30079 8.12902 7.87112C8.12902 8.44145 8.59095 8.90338 9.16128 8.90338ZM18.9677 10.9679H9.16128C8.59095 10.9679 8.12902 11.4298 8.12902 12.0002C8.12902 12.5705 8.59095 13.0324 9.16128 13.0324H18.9677C19.538 13.0324 20 12.5705 20 12.0002C20 11.4298 19.5381 10.9679 18.9677 10.9679ZM18.9677 15.0969H9.16128C8.59095 15.0969 8.12902 15.5589 8.12902 16.1292C8.12902 16.6995 8.59095 17.1614 9.16128 17.1614H18.9677C19.538 17.1614 20 16.6995 20 16.1292C20 15.5589 19.5381 15.0969 18.9677 15.0969Z" fill="#6861AC"/>
</svg>
