<svg width="4" height="6" viewBox="0 0 4 6" fill="none" xmlns="http://www.w3.org/2000/svg">
<path d="M0.645034 4.94004L2.58503 3.00004L0.645034 1.06004C0.598743 1.01375 0.562023 0.958796 0.53697 0.898314C0.511918 0.837832 0.499023 0.773008 0.499023 0.707543C0.499023 0.642077 0.511918 0.577253 0.53697 0.516771C0.562023 0.456289 0.598743 0.401333 0.645034 0.355042C0.691325 0.308751 0.74628 0.272031 0.806762 0.246979C0.867244 0.221927 0.932068 0.209033 0.997534 0.209033C1.063 0.209033 1.12782 0.221927 1.18831 0.246979C1.24879 0.272031 1.30374 0.308751 1.35003 0.355042L3.64503 2.65004C3.69139 2.6963 3.72816 2.75124 3.75325 2.81173C3.77834 2.87222 3.79126 2.93706 3.79126 3.00254C3.79126 3.06803 3.77834 3.13287 3.75325 3.19335C3.72816 3.25384 3.69139 3.30879 3.64503 3.35504L1.35003 5.65004C1.30378 5.69639 1.24883 5.73317 1.18835 5.75826C1.12786 5.78335 1.06302 5.79626 0.997534 5.79626C0.93205 5.79626 0.867208 5.78335 0.806722 5.75826C0.746235 5.73317 0.691291 5.69639 0.645034 5.65004C0.455034 5.45504 0.450034 5.13504 0.645034 4.94004Z" fill="#6861AC"/>
</svg>
