<svg width="24" height="24" viewBox="0 0 24 24" fill="none" xmlns="http://www.w3.org/2000/svg">
<circle opacity="0.15" cx="12" cy="12" r="12" fill="#6861AC"/>
<g clip-path="url(#clip0)">
<path d="M16.662 8.96976L13.6321 12L16.662 15.0301C17.1127 15.481 17.1127 16.2113 16.662 16.6622C16.4368 16.8874 16.1416 17 15.8465 17C15.5509 17 15.2556 16.8875 15.0306 16.6622L12 13.6317L8.96965 16.6621C8.74449 16.8873 8.44922 17 8.15387 17C7.85861 17 7.56355 16.8875 7.33819 16.6621C6.8875 16.2115 6.8875 15.4811 7.33819 15.0301L10.368 12L7.33802 8.96976C6.88733 8.51907 6.88733 7.78857 7.33802 7.33788C7.78862 6.88754 8.5187 6.88754 8.96947 7.33788L12 10.3681L15.0303 7.33788C15.4811 6.88754 16.2113 6.88754 16.6618 7.33788C17.1127 7.78857 17.1127 8.51907 16.662 8.96976Z" fill="#6861AC"/>
</g>
<defs>
<clipPath id="clip0">
<rect width="10" height="10" fill="white" transform="translate(7 7)"/>
</clipPath>
</defs>
</svg>
