<?xml version="1.0"?>
<svg xmlns="http://www.w3.org/2000/svg" xmlns:xlink="http://www.w3.org/1999/xlink" xmlns:svgjs="http://svgjs.com/svgjs" version="1.1" width="512" height="512" x="0" y="0" viewBox="0 0 512 512" style="enable-background:new 0 0 512 512" xml:space="preserve" class=""><g><g xmlns="http://www.w3.org/2000/svg"><path d="m338.45 497.003h14.997v14.997h-14.997z" fill="#39377c" data-original="#000000" style="" class=""/><path d="m473.392 285.877v-44.617h-29.715v-154.421l-87.131-86.839h-258.044v44.961h14.997v-29.964h232.45v82.453h82.732v354.65h-15.212v-211.243h-230.942l-43.618-44.611h-25.41v-136.288h-14.997v136.288h-59.894v278.262c0 20.673 16.818 37.492 37.492 37.492h247.353v-14.997h-247.353c-12.404 0-22.495-10.091-22.495-22.495v-218.654h344.867v218.932c0 8.322 2.781 16.013 7.475 22.218h-37.503v14.996h67.735c20.52 0 37.214-16.694 37.214-37.214v-173.912h-14.997v173.912c0 12.251-9.967 22.218-22.217 22.218-12.31 0-22.71-10.174-22.71-22.218v-7.689h30.209v-210.84h14.719v29.619h14.995zm-419.787-74.634h78.992l28.956 29.614h-107.948zm307.34-185.684 57.087 56.895h-57.087z" fill="#39377c" data-original="#000000" style="" class=""/><path d="m68.859 270.88h14.997v14.997h-14.997z" fill="#39377c" data-original="#000000" style="" class=""/><path d="m98.502 270.88h14.997v14.997h-14.997z" fill="#39377c" data-original="#000000" style="" class=""/><path d="m149.514 315.56c-50.54 61.542-3.111 159.319 76.624 157.745 53.748.001 97.478-43.728 97.478-97.478 1.608-82.61-102.122-128.876-162.472-72.653l10.002 11.174c51.063-47.561 138.845-8.424 137.472 61.48.001 45.479-37.001 82.481-82.482 82.481-67.456 1.324-107.605-81.398-64.84-133.47z" fill="#39377c" data-original="#000000" style="" class=""/><path d="m203.641 323.454v29.877h-29.994v44.991h29.994v29.877h44.991v-29.877h29.994v-44.991h-29.994v-29.877zm59.987 44.874v14.997h-29.994v29.877h-14.997v-29.877h-29.994v-14.997h29.994v-29.877h14.997v29.877z" fill="#39377c" data-original="#000000" style="" class=""/><path d="m263.483 29.906h-134.941v45.102h134.941zm-14.997 30.105h-104.947v-15.108h104.947z" fill="#39377c" data-original="#000000" style="" class=""/><path d="m128.542 89.952h14.997v14.997h-14.997z" fill="#39377c" data-original="#000000" style="" class=""/><path d="m128.542 119.946h14.997v14.997h-14.997z" fill="#39377c" data-original="#000000" style="" class=""/></g></g></svg>
