<svg width="16" height="16" viewBox="0 0 16 16" fill="none" xmlns="http://www.w3.org/2000/svg">
<path d="M1.13358 1.25085H14.863C15.4882 1.25085 15.9968 1.75938 15.9968 2.38456L16 11.7386C16 12.3637 15.4916 12.8742 14.8664 12.8742H10.3745V13.999H11.2517C11.3207 13.999 11.3744 14.0577 11.3744 14.1267V14.6201C11.3744 14.6891 11.3208 14.7491 11.2517 14.7491H4.77118C4.70244 14.7491 4.62556 14.6891 4.62556 14.6201V14.1267C4.62556 14.0577 4.70244 13.999 4.77118 13.999H5.62547V12.8742H1.13663C0.511961 12.8742 0.00292397 12.3637 0.00292397 11.7386L9.53674e-07 2.38558C-0.000125885 1.76027 0.508403 1.25085 1.13358 1.25085ZM8.01563 11.9929C8.22288 11.9929 8.39061 11.825 8.39061 11.6179C8.39061 11.4109 8.22288 11.243 8.01563 11.243C7.80851 11.243 7.64065 11.4109 7.64065 11.6179C7.64065 11.825 7.80838 11.9929 8.01563 11.9929ZM1.00105 10.3745H14.999V2.25063H1.00105V10.3745Z" fill="#A0A7B9"/>
</svg>
