<svg width="828" height="547" viewBox="0 0 828 547" fill="none" xmlns="http://www.w3.org/2000/svg">
<path opacity="0.1" d="M813.988 425.834C793.472 468.176 751.816 496.489 708.646 515.162C650.528 540.308 586.526 550.281 523.404 546.063C512.342 545.326 501.314 544.15 490.319 542.532C452.132 536.959 414.903 526.112 379.695 510.302C369.534 505.724 359.579 500.726 349.829 495.307C333.545 486.277 317.943 476.068 303.146 464.762C299.425 461.919 295.754 459.004 292.136 456.016C289.626 453.946 287.14 451.829 284.615 449.774C279.287 445.44 273.805 441.323 267.69 438.24C265.845 437.31 263.953 436.474 262.023 435.737C242.658 428.367 220.328 431.149 200.167 436.896C184.833 441.269 169.884 447.256 154.565 451.528C147.751 453.486 140.808 454.963 133.787 455.947C118.112 457.932 102.193 456.533 87.1041 451.845L85.8146 451.443C83.6526 450.763 81.5087 450.019 79.3828 449.21L78.0933 448.716C76.0343 447.923 74.019 447.071 72.0475 446.159L70.7581 445.572C68.6991 444.614 66.6838 443.602 64.7123 442.536C64.0019 442.165 63.2993 441.763 62.6044 441.385C51.3874 435.117 41.1913 427.174 32.3677 417.83C32.1129 417.575 31.8736 417.313 31.5956 417.058C30.3679 415.729 29.1634 414.377 27.9975 412.994C27.5651 412.484 27.1327 411.974 26.708 411.449C25.3233 409.76 23.9875 408.032 22.7006 406.265C22.5076 406.01 22.3223 405.748 22.137 405.493C16.8645 398.195 12.4934 390.286 9.11886 381.938C9.01076 381.683 8.91039 381.421 8.81773 381.166C7.78822 378.513 6.8488 375.817 5.99945 373.077C5.65199 371.934 5.31998 370.76 5.02657 369.616C4.92619 369.276 4.83353 368.929 4.7486 368.589C0.486438 351.802 0 334.35 0 316.999C0 314.975 0 312.954 0 310.935C0.123541 282.868 0.55593 254.323 4.69455 226.644C4.69455 226.45 4.7486 226.257 4.77949 226.072C6.16466 216.753 8.0488 207.516 10.4238 198.4C12.9094 188.834 16.0861 179.462 19.9287 170.357C29.4491 147.953 43.2934 127.566 58.6665 108.67C97.3889 61.1205 148.172 21.2037 207.611 6.2629C271.659 -9.82898 342.841 5.59079 394.505 46.7437C410.256 59.2896 424.409 74.1454 442.099 83.7635C457.542 92.1377 475.617 95.6064 492.156 89.0167C505.823 83.5703 514.718 80.8664 530.068 81.6931C561.846 83.4917 593.173 90.0569 623.001 101.169C624.206 101.609 625.41 102.065 626.607 102.521C704.369 132.286 771.212 191.424 805.958 267.418C806.879 269.426 807.772 271.45 808.637 273.49C829.353 321.905 836.843 378.647 813.988 425.834Z" fill="#988EDE"/>
<path d="M757.353 83H42.6468C37.319 83 33 87.3212 33 92.6518V489.348C33 494.679 37.319 499 42.6468 499H757.353C762.681 499 767 494.679 767 489.348V92.6518C767 87.3212 762.681 83 757.353 83Z" fill="url(#paint0_linear)"/>
<path d="M756.35 89H43.6501C38.3205 89 34 93.3237 34 98.6573V488.343C34 493.676 38.3205 498 43.6501 498H756.35C761.68 498 766 493.676 766 488.343V98.6573C766 93.3237 761.68 89 756.35 89Z" fill="white"/>
<path d="M756.35 89H43.6501C38.3205 89 34 93.3237 34 98.6573V488.343C34 493.676 38.3205 498 43.6501 498H756.35C761.68 498 766 493.676 766 488.343V98.6573C766 93.3237 761.68 89 756.35 89Z" fill="white"/>
<path opacity="0.04" d="M756.35 89H43.6501C38.3205 89 34 93.3237 34 98.6573V488.343C34 493.676 38.3205 498 43.6501 498H756.35C761.68 498 766 493.676 766 488.343V98.6573C766 93.3237 761.68 89 756.35 89Z" fill="white"/>
<path d="M762.314 84H37.7165C36.7308 84 35.7855 84.4032 35.0885 85.1208C34.3916 85.8384 34 86.8117 34 87.8266V104H766V87.8266C766 86.8172 765.613 85.8487 764.922 85.132C764.232 84.4153 763.295 84.0084 762.314 84Z" fill="#717889"/>
<path opacity="0.2" d="M291 140H95V157H291V140Z" fill="#6861AC"/>
<path opacity="0.1" d="M695 207H84V464H695V207Z" fill="#717889"/>
<path d="M431.13 223.844H422.793V207.68C422.793 189.441 408.222 174.278 389.946 174.002C385.539 173.956 381.167 174.78 377.081 176.428C372.995 178.076 369.276 180.515 366.139 183.604C363.001 186.693 360.507 190.371 358.801 194.426C357.094 198.481 356.209 202.833 356.195 207.232V223.844H347.876C344.199 223.855 340.676 225.318 338.077 227.912C335.477 230.507 334.011 234.023 334 237.692V304.152C334.011 307.821 335.477 311.337 338.077 313.931C340.676 316.526 344.199 317.989 347.876 318H431.13C434.806 317.989 438.329 316.526 440.927 313.931C443.526 311.336 444.99 307.82 445 304.152V237.692C444.99 234.023 443.526 230.507 440.927 227.913C438.329 225.318 434.806 223.855 431.13 223.844ZM394.364 267.047V290.85C394.372 292.11 393.9 293.327 393.043 294.252C392.186 295.178 391.009 295.745 389.749 295.837C389.092 295.867 388.435 295.765 387.818 295.535C387.201 295.305 386.638 294.952 386.162 294.499C385.685 294.045 385.306 293.5 385.047 292.896C384.788 292.292 384.654 291.642 384.654 290.985V267.034C382.403 265.939 380.591 264.114 379.512 261.858C378.434 259.602 378.154 257.048 378.717 254.612C379.28 252.177 380.654 250.004 382.614 248.448C384.574 246.892 387.005 246.045 389.509 246.045C392.014 246.045 394.444 246.892 396.404 248.448C398.364 250.004 399.738 252.177 400.301 254.612C400.865 257.048 400.584 259.602 399.506 261.858C398.428 264.114 396.615 265.939 394.364 267.034V267.047ZM413.095 223.844H365.905V207.232C365.905 200.989 368.39 195.001 372.813 190.587C377.236 186.173 383.235 183.693 389.491 183.693C395.746 183.693 401.745 186.173 406.168 190.587C410.592 195.001 413.076 200.989 413.076 207.232L413.095 223.844Z" fill="#988EDE"/>
<path opacity="0.1" d="M706 183H644V197H706V183Z" fill="#717889"/>
<path d="M45.6563 97.3125C47.6755 97.3125 49.3125 95.6755 49.3125 93.6562C49.3125 91.637 47.6755 90 45.6563 90C43.637 90 42 91.637 42 93.6562C42 95.6755 43.637 97.3125 45.6563 97.3125Z" fill="white"/>
<path d="M55.5 97.3125C57.5193 97.3125 59.1563 95.6755 59.1563 93.6562C59.1563 91.637 57.5193 90 55.5 90C53.4807 90 51.8438 91.637 51.8438 93.6562C51.8438 95.6755 53.4807 97.3125 55.5 97.3125Z" fill="white"/>
<path d="M65.3438 97.3125C67.363 97.3125 69 95.6755 69 93.6562C69 91.637 67.363 90 65.3438 90C63.3245 90 61.6875 91.637 61.6875 93.6562C61.6875 95.6755 63.3245 97.3125 65.3438 97.3125Z" fill="white"/>
<defs>
<linearGradient id="paint0_linear" x1="399.996" y1="499" x2="399.996" y2="83" gradientUnits="userSpaceOnUse">
<stop stop-color="#808080" stop-opacity="0.25"/>
<stop offset="0.54" stop-color="#808080" stop-opacity="0.12"/>
<stop offset="1" stop-color="#808080" stop-opacity="0.1"/>
</linearGradient>
</defs>
</svg>
