<svg width="36" height="36" viewBox="0 0 36 36" fill="none" xmlns="http://www.w3.org/2000/svg">
<circle opacity="0.15" cx="18" cy="18" r="18" fill="#15B86D"/>
<g clip-path="url(#clip0)">
<path d="M27.9223 18.3081C28.0265 18.1161 28.0265 17.884 27.9223 17.692C26.0117 14.1743 22.285 11.7861 18.0005 11.7861C13.716 11.7861 9.98926 14.1743 8.07867 17.692C7.97443 17.884 7.97443 18.1161 8.07867 18.3081C9.9893 21.8258 13.7159 24.214 18.0005 24.214C22.285 24.214 26.0117 21.8258 27.9223 18.3081ZM18.0005 22.7666C15.368 22.7666 13.234 20.6325 13.234 18.0001C13.234 15.3676 15.368 13.2335 18.0005 13.2335C20.633 13.2335 22.767 15.3676 22.767 18.0001C22.767 20.6325 20.633 22.7666 18.0005 22.7666Z" fill="#15B86D"/>
<path d="M17.9989 15.571C17.7984 15.571 17.6037 15.5955 17.4173 15.6413C17.6082 15.8622 17.7239 16.1499 17.7239 16.4648C17.7239 17.1608 17.1597 17.7252 16.4635 17.7252C16.1487 17.7252 15.861 17.6094 15.6401 17.4185C15.5943 17.6049 15.5698 17.7996 15.5698 18.0002C15.5698 19.3417 16.6574 20.4292 17.9989 20.4292C19.3404 20.4292 20.428 19.3417 20.428 18.0002C20.428 16.6586 19.3405 15.571 17.9989 15.571Z" fill="#15B86D"/>
</g>
<defs>
<clipPath id="clip0">
<rect width="20" height="20" fill="white" transform="translate(8 8)"/>
</clipPath>
</defs>
</svg>
