<svg width="24" height="24" viewBox="0 0 24 24" fill="none" xmlns="http://www.w3.org/2000/svg">
<circle opacity="0.15" cx="12" cy="12" r="12" fill="#6861AC"/>
<g clip-path="url(#clip0)">
<path d="M17.8719 4H6.12855C5.77605 4 5.49023 4.28578 5.49023 4.63831V19.3617C5.49023 19.7142 5.77602 20 6.12855 20H14.596C14.7652 20 14.9276 19.9328 15.0473 19.8131L18.3232 16.5372C18.4429 16.4175 18.5101 16.2551 18.5101 16.0858V4.63831C18.5102 4.28578 18.2244 4 17.8719 4ZM11.6349 16.0061H10.6785V16.9625C10.6785 17.315 10.3928 17.6008 10.0402 17.6008C9.6877 17.6008 9.40192 17.315 9.40192 16.9625V16.0061H8.44555C8.09305 16.0061 7.80723 15.7203 7.80723 15.3678C7.80723 15.0153 8.09302 14.7295 8.44555 14.7295H9.40192V13.7731C9.40192 13.4206 9.6877 13.1348 10.0402 13.1348C10.3928 13.1348 10.6785 13.4206 10.6785 13.7731V14.7295H11.6349C11.9874 14.7295 12.2732 15.0153 12.2732 15.3678C12.2732 15.7203 11.9874 16.0061 11.6349 16.0061ZM11.7449 11.786H8.44561C8.09311 11.786 7.8073 11.5003 7.8073 11.1477C7.8073 10.7952 8.09308 10.5094 8.44561 10.5094H11.7449C12.0974 10.5094 12.3832 10.7952 12.3832 11.1477C12.3832 11.5003 12.0974 11.786 11.7449 11.786ZM15.5548 9.82716H8.44561C8.09311 9.82716 7.8073 9.54138 7.8073 9.18888C7.8073 8.83638 8.09308 8.55056 8.44561 8.55056H15.5548C15.9073 8.55056 16.1931 8.83634 16.1931 9.18888C16.1931 9.54141 15.9073 9.82716 15.5548 9.82716ZM15.5548 7.86822H8.44561C8.09311 7.86822 7.8073 7.58244 7.8073 7.22991C7.8073 6.87738 8.09308 6.59159 8.44561 6.59159H15.5548C15.9073 6.59159 16.1931 6.87738 16.1931 7.22991C16.1931 7.58244 15.9073 7.86822 15.5548 7.86822Z" fill="#6861AC"/>
</g>
<defs>
<clipPath id="clip0">
<rect width="16" height="16" fill="white" transform="translate(4 4)"/>
</clipPath>
</defs>
</svg>
