
<svg width="36" height="36" viewBox="0 0 36 36" fill="none" xmlns="http://www.w3.org/2000/svg">
<circle opacity="0.15" cx="18" cy="18" r="18" fill="#FFB300"/>
<path d="M17.9999 8C12.486 8 8 12.4859 8 17.9999C8 23.514 12.486 28 17.9999 28C23.5139 28 27.9999 23.514 27.9999 17.9999C27.9999 12.4859 23.514 8 17.9999 8ZM23.7421 16.3109L17.4596 22.5933C17.1925 22.8605 16.8374 23.0075 16.4597 23.0075C16.0819 23.0075 15.7268 22.8605 15.4597 22.5933L12.2578 19.3914C11.9907 19.1243 11.8435 18.7692 11.8435 18.3915C11.8435 18.0136 11.9907 17.6585 12.2578 17.3914C12.5248 17.1243 12.8799 16.9771 13.2578 16.9771C13.6355 16.9771 13.9907 17.1243 14.2577 17.3915L16.4596 19.5932L21.742 14.3108C22.0091 14.0437 22.3642 13.8967 22.7419 13.8967C23.1197 13.8967 23.4748 14.0437 23.7419 14.3108C24.2935 14.8624 24.2935 15.7595 23.7421 16.3109Z" fill="#FFB300"/>
</svg>
