<svg width="16" height="16" viewBox="0 0 16 16" fill="none" xmlns="http://www.w3.org/2000/svg">
<g clip-path="url(#clip0)">
<path d="M16 11.0398C16 11.53 15.6137 11.9422 15.1235 11.9422H0.876414C0.38638 11.9422 5.91278e-05 11.53 5.91278e-05 11.0398V9.85522H16V11.0398Z" fill="#A0A7B9"/>
<path d="M6.56725 5.14025C6.56725 4.35039 7.20855 3.7103 7.99961 3.7103C8.79083 3.7103 9.43213 4.35039 9.43213 5.14025C9.43213 5.92995 8.79083 6.5702 7.99961 6.5702C7.20855 6.5702 6.56725 5.92995 6.56725 5.14025Z" fill="#A0A7B9"/>
<path d="M0.876384 0.88908H15.1235C15.3563 0.886061 15.5803 0.976942 15.7451 1.14104C15.91 1.30514 16.0019 1.52887 16 1.76151V9.31417H2.86102e-05V1.76151C-0.00193405 1.52887 0.090004 1.30514 0.254858 1.14104C0.419713 0.976942 0.643745 0.886061 0.876384 0.88908ZM4.4831 5.61551C4.48371 5.755 4.58969 5.8714 4.72857 5.88483L5.23959 5.93465C5.30058 6.13997 5.38422 6.33803 5.48899 6.52493L5.16109 6.92046C5.07172 7.0281 5.07927 7.18586 5.17815 7.28459L5.8501 7.95518C5.94883 8.05376 6.10629 8.06115 6.21377 7.97209L6.6087 7.64494C6.7959 7.75047 6.99457 7.8341 7.20079 7.89404L7.25076 8.41034C7.26404 8.54938 7.38029 8.65596 7.51993 8.65717H8.47177C8.61141 8.65611 8.7278 8.54953 8.74109 8.41034L8.79091 7.89268C8.99652 7.83184 9.19474 7.74805 9.38179 7.64328L9.77792 7.97178C9.88541 8.0607 10.043 8.05346 10.1417 7.95488L10.8135 7.28444C10.9124 7.18571 10.9198 7.0278 10.8308 6.92031L10.5039 6.52583C10.6094 6.33894 10.6932 6.14072 10.7535 5.93465L11.271 5.88468C11.4099 5.8714 11.5161 5.75516 11.5169 5.61551V4.66488C11.5163 4.52524 11.41 4.40884 11.2711 4.39556L10.7521 4.34544C10.6911 4.14012 10.6075 3.94221 10.5027 3.75546L10.8308 3.35993C10.9198 3.2523 10.9124 3.09439 10.8135 2.99565L10.1417 2.32507C10.043 2.22648 9.88541 2.21924 9.77792 2.30816L9.38315 2.6353C9.19595 2.52962 8.99728 2.44614 8.79091 2.38606L8.74109 1.86975C8.72765 1.73071 8.61141 1.62443 8.47177 1.62338H7.51993C7.38029 1.62443 7.26389 1.73102 7.25061 1.87006L7.20079 2.38772C6.99517 2.44871 6.79695 2.53234 6.60991 2.63726L6.21377 2.30876C6.10583 2.21924 5.94747 2.22709 5.84889 2.32673L5.18524 2.99716C5.08727 3.09605 5.08032 3.25305 5.16909 3.36009L5.49593 3.75456C5.39041 3.9413 5.30662 4.13967 5.24639 4.34574L4.72888 4.39571C4.58999 4.40899 4.48371 4.52539 4.4831 4.66488V5.61551Z" fill="#A0A7B9"/>
<path d="M5.72619 4.65431C5.78582 4.37835 5.89678 4.11597 6.05318 3.88076C6.11931 3.78127 6.11236 3.65024 6.03612 3.5583L5.74204 3.20353L6.05892 2.88333L6.41173 3.1756C6.50246 3.25078 6.63153 3.25848 6.73057 3.19462C6.96774 3.03928 7.23102 2.92801 7.50774 2.86657C7.62323 2.84151 7.70943 2.74459 7.72076 2.62684L7.76529 2.16443H8.22589L8.27057 2.62684C8.28175 2.74474 8.36749 2.84181 8.48313 2.86763C8.7594 2.92666 9.02223 3.03716 9.25774 3.19326C9.35708 3.25908 9.48797 3.25199 9.57975 3.1759L9.93362 2.88242L10.2567 3.20474L9.96351 3.5583C9.88803 3.64963 9.88063 3.77946 9.94539 3.87865C10.1007 4.11566 10.2122 4.3788 10.2742 4.65552C10.2999 4.7698 10.3962 4.85479 10.5129 4.86612L10.9756 4.91065V5.36974L10.5127 5.41442C10.3954 5.4256 10.2988 5.51119 10.2731 5.62608C10.2135 5.9022 10.1025 6.16458 9.9463 6.39963C9.88018 6.49912 9.88712 6.63015 9.96336 6.72209L10.2564 7.07581L9.93347 7.39812L9.57945 7.10479C9.48872 7.02961 9.35964 7.02191 9.26061 7.08577C9.02344 7.24126 8.76016 7.35238 8.48344 7.41397C8.3678 7.43903 8.28175 7.5358 8.27042 7.65355L8.22589 8.11611H7.76529L7.72076 7.65355C7.70943 7.5358 7.62368 7.43858 7.50819 7.41291C7.23178 7.35373 6.96909 7.24323 6.73344 7.08713C6.63395 7.02131 6.50321 7.0284 6.41143 7.10449L6.05756 7.39797L5.73449 7.07565L6.02767 6.72209C6.10315 6.63091 6.11055 6.50108 6.04579 6.40174C5.89044 6.16473 5.77903 5.90159 5.71698 5.62502C5.69132 5.51074 5.5953 5.42575 5.47861 5.41442L5.0239 5.37004V4.91065L5.48661 4.86597C5.60391 4.85479 5.70068 4.76935 5.72619 4.65431ZM7.99899 7.11128C9.0873 7.10977 9.96849 6.22677 9.96758 5.13861C9.96653 4.0503 9.08383 3.16881 7.99566 3.16926C6.9075 3.16971 6.02556 4.05196 6.02556 5.14027C6.02737 6.22904 6.91022 7.11068 7.99899 7.11128Z" fill="#A0A7B9"/>
<path d="M3.76955 14.5702H5.60394V12.4832H10.3962V14.5702H12.2304C12.3799 14.5702 12.501 14.6913 12.501 14.8407C12.501 14.99 12.3799 15.1112 12.2304 15.1112H3.76955C3.62024 15.1112 3.49901 14.99 3.49901 14.8407C3.49901 14.6913 3.62024 14.5702 3.76955 14.5702Z" fill="#A0A7B9"/>
</g>
<defs>
<clipPath id="clip0">
<rect width="16" height="16" fill="white" transform="matrix(-1 0 0 1 16 0)"/>
</clipPath>
</defs>
</svg>
