<?xml version="1.0" encoding="UTF-8"?>
<svg width="611px" height="257px" viewBox="0 0 611 257" version="1.1" xmlns="http://www.w3.org/2000/svg" xmlns:xlink="http://www.w3.org/1999/xlink">
    <!-- Generator: Sketch 63.1 (92452) - https://sketch.com -->
    <title>Design/iOS/illustration2</title>
    <desc>Created with Sketch.</desc>
    <g id="Page-1" stroke="none" stroke-width="1" fill="none" fill-rule="evenodd">
        <g id="illustration2" fill-rule="nonzero">
            <polygon id="Path" fill="transparent" opacity="0.1" points="611 0 0 0 0 257 611 257"></polygon>
            <g id="Red-Coming-Soon-Stamp" transform="translate(85.000000, 30.000000)" fill="#39377C">
                <path d="M24.8404537,1.30877846 C23.0159995,1.78052399 21.3445602,2.42579158 19.6595977,3.14572056 C20.2644058,3.09952618 20.8976363,3.05145587 21.5026031,3.0115927 C23.6198814,2.87019566 25.7021742,2.75989191 27.8362306,2.72167015 C25.7039473,2.83891479 23.671592,3.00376076 21.5669106,3.22394619 C20.5192276,3.33181126 19.4914191,3.5342224 18.4457473,3.66150318 C18.4012878,3.68260722 18.3091931,3.60733616 18.2644689,3.62867468 C18.4338385,4.08121554 18.4306628,4.51504415 18.3885851,4.88884351 C18.520905,5.69016372 18.6288781,6.42620212 18.6312599,7.10708863 C19.479325,6.99383031 20.3950321,6.83580799 21.251698,6.71253698 C21.2961575,6.34474054 21.307537,5.99359285 21.3514673,5.62678127 C21.4792884,5.96815076 21.703756,6.30881678 21.8322916,6.65056146 C22.6047755,6.53613069 23.3600579,6.46484595 24.1332035,6.33186708 C24.2411765,6.33048359 24.3660866,6.32961598 24.4741391,6.3271773 C27.6143565,5.3100566 30.9789886,4.77305271 34.53522,4.77298236 L162.178998,4.73663652 C162.488389,4.48134804 162.737203,4.17930241 163.046223,3.92382634 C163.665349,4.00097331 164.297018,4.08609292 164.916381,4.16258332 C164.53739,4.35627146 164.183143,4.53682821 163.803755,4.73018807 L173.392719,4.72946115 C171.640088,4.29560909 169.860305,3.84330272 168.111564,3.40396361 C169.135853,2.98865965 170.134472,2.56704792 171.15704,2.14986805 C174.951712,2.78847615 178.721773,3.46075691 182.527824,4.07781545 C181.970387,4.2975319 181.493744,4.53987657 180.935936,4.75921784 L297.967653,4.7381138 C298.808546,3.17282753 299.647534,1.60955785 300.486416,0.0436384547 L178.138083,0.0366037763 C178.484073,0.0762324643 178.756441,0.0715426788 179.102404,0.111171367 C178.892016,0.378113961 178.706635,0.670826927 178.49622,0.937839868 L177.089685,0.816608911 L178.138083,0.0366037763 L159.141435,0.0708861088 C159.528603,0.144984721 159.92109,0.175233838 160.308338,0.24909796 C160.780165,0.339376332 161.285468,0.422151048 161.757692,0.511890094 L161.87625,1.46998984 C161.781774,1.59520711 161.656864,1.72288652 161.562467,1.84793965 C161.195887,1.75578537 160.878849,1.58268538 160.512534,1.49032006 C159.24438,1.17146154 157.990463,0.889863362 156.723684,0.569152376 C156.475981,0.394223374 156.219466,0.239952878 155.971869,0.0648831833 L34.5656536,0.0625382905 C33.6819415,0.0626086373 32.8063538,0.0972427037 31.9394992,0.154927066 C31.1610609,0.538551525 30.3321557,0.943795896 29.5545112,1.32807692 C28.5813244,1.33276671 27.5977107,1.25796463 26.6244179,1.26499931 C26.0407545,1.26422549 25.4236407,1.31002125 24.8398715,1.30931778 L24.8404537,1.30877846 Z M13.4633184,6.43694173 C5.34522381,12.0115726 0.119379073,20.7301184 0.119379073,30.5430257 L0.140550268,58.0767568 C0.573104237,58.4035645 1.02473874,58.7230561 1.46300894,59.0524432 C1.00452025,59.9525772 0.521023098,60.909528 0.0924122642,61.8813219 L0.143487771,103.669656 C1.942166,103.257283 3.62376752,102.828801 5.41564449,102.417905 L5.45772224,66.5996682 C5.18554007,66.1861229 4.84484263,65.7822621 4.57173422,65.368623 C4.84227562,64.4764851 5.1945643,63.5519876 5.46304151,62.6534716 L5.43578359,30.5706486 C5.43578359,22.9197324 9.24342293,16.1326747 15.1427763,11.424599 L11.2697709,11.3577696 C11.5535708,10.7642303 11.8396201,10.1114591 12.0770021,9.49714405 C12.3546888,8.76314571 12.5274457,8.01564079 12.6759087,7.23078173 C12.9334034,6.99120403 13.2281064,6.70864445 13.4632654,6.43694173 L13.4633184,6.43694173 Z M38.7816853,1.26094264 C41.2937004,1.04427455 43.756916,0.751538137 46.2707307,0.544953083 C47.3803924,0.592319917 48.4750755,0.694791731 49.5845519,0.744503458 C48.1844215,0.917556546 46.7597853,1.03995995 45.360634,1.21629589 C43.1380555,1.19988164 41.0046607,1.26811802 38.7816853,1.26108334 L38.7816853,1.26094264 Z M18.6743433,7.24862636 C18.6732318,7.40714112 18.6505257,7.55901982 18.6431157,7.71125026 L19.4947006,7.12976375 C19.2216451,7.13679843 18.9461814,7.24184962 18.6744756,7.24864981 L18.6743433,7.24862636 Z M19.595846,7.18156243 L21.1250678,7.42538438 C21.1382998,7.32596093 21.1872582,7.20355752 21.199167,7.10432166 C20.6489012,7.1254257 20.1409778,7.16646132 19.595793,7.18146863 L19.595846,7.18156243 Z M21.8810912,7.09409793 C21.899616,7.14568557 21.9843007,7.16538267 22.0038841,7.21673582 C22.139909,7.15952044 22.2658776,7.17734162 22.4032787,7.12200215 C22.2376141,7.12903683 22.0463588,7.08729774 21.881197,7.09433242 L21.8810912,7.09409793 Z M48.3715484,1.27876383 C49.3518011,1.14533943 50.25073,0.959037699 51.2315121,0.827301622 C55.1140445,1.00527898 58.9986941,1.18900133 62.8775216,1.40025272 C58.0166153,1.31208476 53.2335132,1.31607107 48.3715484,1.27878728 L48.3715484,1.27876383 Z M86.5035161,2.23899742 C86.6556841,2.28636426 86.836592,2.37992548 86.9885218,2.42729231 C86.831061,2.45730694 86.6450191,2.43901678 86.487823,2.47043834 L86.5037014,2.23899742 L86.5035161,2.23899742 Z M51.298466,23.4183035 C50.4297325,23.6347371 49.6178701,23.8813964 48.7850747,24.1667698 C46.4423233,24.9696377 44.2809031,25.99384 42.2632882,27.2324827 L42.3275957,27.44493 L40.9428673,31.642757 L40.2709465,31.1195176 L40.2841785,28.6130617 C39.5275465,29.1621653 38.775678,29.7332874 38.0704125,30.3524563 C35.0230837,33.0277445 32.7784078,36.0735257 31.1842169,39.5737472 C29.589973,43.0739686 28.7331748,46.903882 28.7331748,51.0041615 C28.7331748,52.8521481 28.8437942,54.6579735 29.155937,56.3659934 L33.2978166,50.5274448 L33.5875444,52.0517893 L32.6205501,53.9503552 L32.4064564,53.2425258 L32.6049363,54.1816554 L29.9593045,59.5892126 C30.6562602,61.7861192 31.6540586,63.7788326 32.9240656,65.7129001 L34.7995424,62.0056246 L35.0152239,63.8510084 L35.538867,65.0163497 L35.5203422,62.9724943 L35.0494419,61.4153213 L37.5937696,55.955942 L37.6279081,69.3755289 L38.926311,72.2534158 C40.8063131,73.7527168 42.9972671,75.1139505 45.3829961,76.3342327 C47.6402953,77.4343391 50.1417513,78.341203 52.9350258,78.9412845 C55.0462703,79.3947867 57.2481274,79.5504876 59.4885691,79.6612369 L59.5594926,61.2097446 C57.6705457,60.7590562 55.9426586,59.9468322 54.6178711,58.7415104 C52.501625,56.8163535 51.4218147,54.2289988 51.4218147,51.0035988 C51.4217882,48.1526781 52.2404783,45.7637013 53.8946896,43.8922424 L51.1082957,39.7743762 L53.9978992,33.4745873 L55.232074,36.1402614 L55.171736,30.8440865 L56.6593036,27.8355891 L57.8094022,31.3557421 L57.775793,38.0396245 L59.0879042,35.3005553 L59.5530618,36.5556591 L59.5231575,22.3005869 C56.6880699,22.4523015 53.9056457,22.7696124 51.2994716,23.4185615 L51.298466,23.4183035 Z M60.204129,22.2901756 L60.1729015,38.60805 L60.7080034,40.3775764 C61.6062707,40.2122615 62.5163675,40.0866221 63.5309176,40.0866456 C65.8728487,40.0866925 68.1393574,40.5228191 70.2554182,41.3728662 C72.3716115,42.2229601 74.4351413,43.4834338 76.4667821,45.2086418 L76.5033024,24.9445473 C74.1894761,24.019534 71.7813321,23.2387082 69.340558,22.7761077 C69.1833619,22.7463276 69.055779,22.7573486 68.8983182,22.7294444 L70.8403784,28.8683737 L69.6222937,30.219665 L69.5407846,29.1010574 L70.0671005,28.2933356 L69.4551736,28.8179116 L68.7170928,22.696569 C66.4906241,22.3130852 64.2311813,22.1042725 61.9454862,22.1042725 C61.3387727,22.1042725 60.7994894,22.2670081 60.2037585,22.2902225 L60.204129,22.2901756 Z M50.9763992,25.4672708 L50.96846,27.1382414 L51.0698171,27.1900636 L51.0113317,27.279873 L50.96846,27.1382414 L50.4876093,26.1144612 L50.9768491,25.4672708 L50.9763992,25.4672708 Z M45.9358024,32.5812066 L47.5422727,34.7791449 L46.8091936,36.3187312 L44.5908229,34.6453922 L44.7818929,34.144828 L45.935776,32.5812066 L45.9358024,32.5812066 Z M71.2202954,29.8402614 L72.1406867,32.8839322 L70.3649527,35.5055223 L69.9666696,32.4897557 L71.2202954,29.8404959 L71.2202954,29.8402614 Z M107.126641,23.4391731 C106.121962,23.6979554 105.125037,24.0327358 104.155264,24.3722294 C100.120299,25.7848866 96.5225193,27.7868622 93.4185576,30.4867718 C90.3429123,33.1369696 88.0910911,36.1621158 86.5109261,39.6372469 C84.930814,43.1126125 84.0384746,46.9214218 84.0384746,50.9968455 C84.0384746,55.0722691 84.9401293,58.8677126 86.5202679,62.3179878 C88.10038,65.7682631 90.3183802,68.8084165 93.3940254,71.4586144 C96.526039,74.1838488 100.149754,76.2717413 104.184719,77.6967326 C105.549864,78.1788895 106.949147,78.5137871 108.378732,78.8251419 C111.607339,78.0826785 113.468287,77.6692036 116.628088,76.942451 L116.636027,74.1339729 L115.627352,72.7803366 L115.606181,72.7095209 L114.266521,70.8275803 L115.864179,70.448247 L116.654579,71.9295626 L116.693481,61.2994602 C113.809435,61.1962849 111.42794,60.3567429 109.620714,58.5786811 C109.489188,58.449243 109.353481,58.2753458 109.231243,58.1401158 L109.562229,58.6684436 L107.730682,59.4067331 L107.388212,58.2742437 L108.697676,57.5081672 C108.168529,56.8118278 107.829684,56.1194982 107.512037,55.2861937 L106.70327,56.0092414 L105.558914,52.791345 L106.026745,52.0733623 L107.190975,54.2245669 C106.928188,53.2343891 106.728544,52.1549411 106.728464,50.996353 C106.728438,47.8710799 107.756114,45.3944042 109.674965,43.4692472 C111.482403,41.6557775 113.77609,40.6262992 116.660136,40.521248 L116.69401,22.2301463 C113.354519,22.2695405 110.142055,22.6628963 107.12807,23.43922 L107.126641,23.4391731 Z M37.5713281,41.1665625 L37.5977921,48.8983775 L36.722866,44.0233454 L37.571381,41.166797 L37.5713281,41.1665625 Z M117.294108,22.2388224 L117.343331,31.1789607 L119.739804,30.6099959 L120.185087,32.9318853 L118.119625,34.0291778 L117.327664,31.4104016 L117.340896,40.5109305 C118.430445,40.52031 119.439332,40.6835146 120.377904,40.9278055 L119.334825,37.7617313 L120.862539,36.8679988 L121.747389,41.2098023 L121.529061,41.3373645 C122.730923,41.8167778 123.879328,42.4464519 124.797364,43.368323 C126.701898,45.2810052 127.609693,47.8193985 127.609693,50.969762 C127.609666,54.0950351 126.669136,56.6612857 124.764549,58.5486899 C122.885817,60.410652 120.367027,61.2830694 117.294108,61.3086287 L117.358336,73.1280608 L118.047485,74.5575543 L117.349947,74.7990314 L117.334068,75.0302378 L118.335466,74.9441802 L118.586609,75.4914548 L117.931863,75.874493 L117.729414,75.7708487 L117.35561,75.1009832 L117.347671,76.7719538 C126.41053,74.6875083 132.624805,73.3099541 141.057027,71.3704933 C141.091695,71.3493893 141.088784,71.3046018 141.115512,71.2806839 L133.714857,70.3067092 L134.639032,68.2665822 L142.318089,70.1606928 C144.694159,67.7876613 146.625898,65.102759 147.964711,62.2199478 C149.572981,58.7572447 150.320218,55.065211 150.320218,51.039968 C150.320218,46.9896347 149.512511,43.1751977 147.91832,39.6998321 C146.32405,36.224701 143.990534,33.1826716 140.943205,30.5073834 C137.811192,27.8072393 134.288834,25.7336507 130.253869,24.3210872 C126.25516,22.9213035 121.903421,22.2517428 117.29551,22.2388224 L117.294108,22.2388224 Z M73.033079,36.6920381 L73.0905058,39.7129635 L70.9822254,40.6686714 L70.7024216,38.6109576 L73.0331319,36.6920381 L73.033079,36.6920381 Z M50.9229419,42.8518369 L50.9017707,54.3882404 L48.3528119,56.4347925 L50.9234712,42.8520011 L50.9229419,42.8518369 Z M36.0491192,46.6107001 L35.4116016,47.8999925 L35.6982331,47.1491578 L36.0491192,46.6107001 Z M233.912457,3.57957263 L235.159229,3.73879085 C234.878843,3.99180478 234.652152,4.27954657 234.371872,4.53263085 C233.81634,4.4505596 233.137115,4.35676389 232.581609,4.27492713 C233.000825,4.04207928 233.493215,3.81235013 233.912457,3.57964297 L233.912457,3.57957263 Z M132.812064,30.2386587 L130.056368,33.0171221 L130.09183,31.7190364 L132.812064,30.2387056 L132.812064,30.2386587 Z M162.171218,23.4197105 L161.636539,25.8984966 L165.827377,24.7517502 L165.908887,25.8703579 L161.144574,28.5186798 L154.89669,60.8031636 L156.621639,63.9591548 L155.583166,64.2057203 L154.791204,61.5867096 L153.458107,68.5032053 C155.147568,68.1146566 156.753403,67.7084742 158.410843,67.3273354 L160.912802,65.974684 L161.148332,66.7532822 C162.708437,66.394537 164.331421,65.9860567 165.861304,65.6342993 L165.877183,65.4030929 L164.942686,63.7283939 L171.255936,60.2570147 L167.522925,61.2191711 L167.496461,61.9838875 L167.032839,61.8664084 L167.202473,61.2950752 L164.00721,62.0537184 L161.342022,56.9209826 L170.019036,52.2056377 L170.359971,52.2009479 L170.424279,52.4133952 L170.403108,53.4802042 L170.859453,52.1580364 L173.34728,52.1744506 L172.350911,59.9215074 L171.333846,60.2388417 L172.276758,60.2435315 L171.712255,64.3224725 C172.824616,64.0667854 174.132334,63.739626 175.227203,63.4879955 L176.038192,56.5435955 C176.207561,54.868451 176.350387,53.2274482 176.505599,51.5773471 C176.646122,50.0838146 176.812713,48.6082439 176.941672,47.073746 L176.915208,23.4864696 L162.169471,23.4217505 L162.171218,23.4197105 Z M178.280645,23.4640289 L178.338601,46.5884236 C178.592655,48.1635584 178.884712,49.8234377 179.336214,51.5860936 C179.78761,53.3487964 180.343169,55.2483471 181.048567,57.2485407 L182.128694,60.2542242 L185.559486,60.2753283 L190.559064,58.4055108 L190.713085,58.0655013 L191.038353,58.2917835 L192.27364,57.8467697 L191.624663,58.531877 L193.165344,59.3799075 C193.779282,59.2389795 194.715525,59.0071165 195.322159,58.8678298 L195.323297,55.7570951 L193.878152,54.6587942 L195.296145,55.3842102 L195.282913,53.6424473 L195.191613,53.0572324 L194.930678,53.043163 C194.827203,52.1391131 194.585164,51.1651853 194.394014,50.135965 L193.37695,50.4532993 L193.445227,49.8301675 L194.425215,49.6732942 C194.352704,49.2995417 194.26749,48.9816915 194.184128,48.5926034 L193.545076,48.744318 L193.835915,47.1580215 C193.72556,46.6919741 193.532902,46.2266535 193.407834,45.7423863 L192.474845,45.2052886 L192.469553,49.1515086 L189.998954,50.0415361 L192.373594,45.1536071 L191.765875,44.8427213 L192.330775,45.0120225 L192.506232,44.7427819 L192.467594,43.7657355 L192.824197,43.5293468 C192.727868,43.1923623 192.706697,42.8649918 192.604545,42.5194484 C192.265701,41.3717641 191.838704,40.1758453 191.433037,38.9284796 C191.151302,38.0783387 190.997281,37.4421927 190.855117,37.017392 L186.404667,23.4324901 L178.280645,23.4646152 L178.280645,23.4640289 Z M192.506364,44.742055 L192.490486,44.9732614 L193.337863,45.2272602 C193.216922,44.7642846 193.022941,44.2202929 192.888372,43.7408561 L192.506152,44.7419612 L192.506364,44.742055 Z M185.559301,60.2743903 L182.449782,61.3161324 L182.599568,61.8116082 C185.049764,61.2485995 188.397829,60.4167487 190.747567,59.8770951 L190.400915,59.580091 L187.786193,60.2767352 L185.559434,60.2743903 L185.559301,60.2743903 Z M140.983351,34.8979606 L142.858113,38.5494277 L141.628543,39.296534 L139.31731,35.9004257 L139.572688,35.612215 L140.98343,34.8979606 L140.983351,34.8979606 Z M134.617173,38.7611715 L134.61188,39.5966568 L130.063249,44.0904093 L130.057956,40.6776524 L133.385803,39.5082074 L134.615373,38.7611011 L134.617173,38.7611715 Z M302.369779,0.0704405792 C301.489852,1.65389978 300.582137,3.20462427 299.691359,4.80290319 L303.020794,4.77101265 C302.939549,4.74709474 302.819403,4.71027993 302.738343,4.68636202 L303.137738,4.59162835 L303.18061,4.73325988 L351.74733,4.8092344 C353.065369,4.34070138 354.454332,3.86379708 355.772768,3.39833586 C357.141247,3.49963523 358.504117,3.53433965 359.869659,3.63946119 C359.675942,3.73302241 359.467036,3.83924605 359.273425,3.93273693 C360.26294,4.09922432 361.283445,4.34407802 362.273383,4.51014333 C362.504679,4.32302088 362.712156,4.08292731 362.943796,3.89580487 C367.037511,4.17548023 371.135725,4.45564802 375.197418,4.7796653 L391.546609,4.76794084 C390.441843,4.545645 389.368781,4.32850793 388.26428,4.10588381 C390.354353,3.65165463 392.427066,3.15284904 394.516398,2.69733017 C395.401698,2.93313259 396.252886,3.20478841 397.138371,3.44035634 C396.909722,2.97398062 396.777376,2.53196833 396.550526,2.06266149 C396.297001,1.38688684 395.993962,0.697816643 395.77005,0.0479530574 L336.533048,0.0777331957 C340.494443,0.760472178 344.489183,1.41666697 348.447402,2.10423644 C347.216112,2.56336644 345.993873,3.05070551 344.762821,3.51007001 C341.107614,3.12163852 337.364547,2.72439023 333.707223,2.34172718 C332.782518,2.24558657 331.980527,2.15014944 331.053943,2.0613249 C331.2511,1.9891022 331.39427,1.92954192 331.591718,1.8577882 C330.245256,1.79025529 328.922824,1.66456904 327.574748,1.59771615 L327.456189,0.639616404 C329.522789,0.674086328 331.594099,0.724267034 333.657232,0.760612872 C333.60351,0.872464257 333.638707,0.96907384 333.583133,1.08167559 C334.564021,0.730316857 335.551948,0.428552605 336.533074,0.0778504404 L302.370706,0.070815762 L302.369779,0.0704405792 Z M205.41894,23.4677808 L200.876925,36.76004 C199.839854,39.7694754 198.960085,42.4970547 198.304307,44.9570817 L200.922814,39.1766865 L208.593137,38.4935489 L208.673059,38.4747897 L208.912823,38.4178088 L209.725796,36.8592758 L210.290697,37.0285771 L209.370729,38.2332189 L211.767176,37.6642306 L211.59172,37.9334712 L199.343125,44.7106803 L201.739572,44.1417156 L210.75162,39.1191897 L208.406778,42.4069639 L201.73944,44.1416452 L206.272722,44.1275759 L207.56652,43.5928231 L207.215634,44.1313042 L206.272722,44.1266144 L204.957541,44.5905984 L206.74783,44.8483021 L206.375561,45.3160144 L204.419766,44.7941351 L197.705586,47.2227405 C197.528807,47.9675019 197.393734,48.6602302 197.245033,49.3803936 L197.34639,49.4322158 L198.84277,49.0010838 L199.60144,46.6968045 L203.310369,47.6369189 L205.652538,46.3222079 L204.75398,47.597642 L204.578523,47.8668826 L204.759802,47.8997111 L204.714813,53.9795491 L198.710133,49.4119324 L198.747182,49.2515418 L197.346364,49.432333 L197.186521,49.4703203 C196.929556,50.7170998 196.722158,51.8668007 196.552074,53.0347918 L196.643374,53.6200067 L196.630142,56.1264626 L199.791531,57.8035064 C201.916034,57.3158391 205.534747,56.4995116 207.561624,56.0346131 L206.889677,55.5113972 L207.102183,55.0816252 L206.708504,55.4785452 L205.567218,54.5356873 L207.286028,53.1413906 L207.893747,53.4522999 L207.102183,55.0816252 L208.378753,53.6405948 L209.189054,54.0551015 L210.517255,55.3328805 C210.696416,54.7581942 210.863351,54.1720648 211.026343,53.6189046 L208.910785,53.1349656 L211.974521,49.6764832 L212.075878,49.7283054 C212.309555,48.695638 212.542624,47.6627831 212.700376,46.697297 L212.700984,23.4830929 L205.418623,23.4666787 L205.41894,23.4677808 Z M204.578259,47.868735 L204.359931,47.9962972 L203.86651,49.4789964 L204.578179,47.8686412 L204.578259,47.868735 Z M204.419739,44.7959875 L204.957514,44.5924508 L201.739228,44.1427239 L204.419766,44.7959875 L204.419739,44.7959875 Z M134.628896,40.5038958 L134.620957,42.1748664 L134.302966,43.388325 L130.054966,45.7622944 L130.02215,45.0873405 L134.629267,40.5037786 L134.628896,40.5038958 Z M213.986473,23.4834915 L214.02511,40.3158354 L214.795265,38.6157412 L222.434626,42.6433291 L221.594527,43.8290007 L213.993803,40.7782951 L213.964428,46.6266922 C213.959136,46.6557689 213.990892,46.6686658 213.9856,46.697508 C214.06605,47.8858293 214.240448,48.995456 214.352549,50.175922 L216.569385,50.7116831 L214.573868,52.3233982 C214.642939,53.0150009 214.706982,53.7027345 214.773671,54.4001056 C215.052628,54.33609 215.615199,54.1979758 215.892013,54.1345934 C217.59677,53.7349064 219.299252,53.3203528 221.004327,52.9207831 L224.334026,41.2819078 L224.762108,42.6975195 L225.252459,38.9395944 L227.086679,36.2281948 L228.001327,38.969609 L222.282458,52.6171195 C226.332508,51.6681414 230.394202,50.7534456 234.445839,49.8051241 L229.733131,23.4625985 L227.245304,23.4461843 L226.612418,28.1481633 L225.419924,28.7347382 L225.438448,23.4198043 L213.985097,23.4838198 L213.986473,23.4834915 Z M76.9585625,56.4713728 C74.3343664,58.2465739 71.8859443,59.5892126 69.670908,60.401718 C67.4558453,61.2142937 65.3392816,61.6358116 63.1946396,61.6358351 C62.1265264,61.6358585 61.1386255,61.5343012 60.2005034,61.3605212 L60.1872714,79.7222041 C60.6933159,79.7386184 61.1611464,79.8244414 61.6736745,79.8244414 C64.1002904,79.8244414 66.4964727,79.6030836 68.9232208,79.165339 C71.3498102,78.7278289 73.7600449,78.0124959 76.186793,77.1373819 L76.9579538,56.4713728 L76.9585625,56.4713728 Z M165.866994,35.3627184 L165.880226,37.1044578 L160.767912,38.3182681 L160.746741,38.2474524 L165.867523,35.3627653 L165.866994,35.3627184 Z M104.69812,49.9613174 L104.857963,49.9233301 L105.2161,50.8245193 L104.976336,50.8815002 L104.698094,49.9613408 L104.69812,49.9613174 Z M133.787341,44.7995049 L133.574836,45.2292768 L132.877298,45.4707539 L131.749005,46.2696823 L133.389455,46.0319102 L133.198385,46.5324744 L131.312561,46.5254398 L130.045915,47.4330774 L130.02739,46.5268233 L131.311238,46.5254398 L131.747709,46.2701044 L130.064466,46.366245 L130.080345,46.1350386 L132.876266,45.4712463 L133.786309,44.7999973 L133.787341,44.7995049 Z M143.996621,42.603208 L144.47591,42.4894807 L144.9552,42.3757534 L146.098021,44.4561891 L146.444699,44.7531932 L146.284856,44.7911805 L146.098021,44.4562595 L144.42891,43.1835455 L143.996621,42.603419 L143.996621,42.603208 Z M160.851803,38.6014139 L162.98877,39.1561452 L165.837354,38.1004979 L165.901662,38.3129452 L166.286951,39.5869958 L165.770586,39.8613248 L166.335486,40.0306261 L167.30862,42.6824653 L162.323068,43.1833813 L161.87932,41.9990698 L165.770586,39.8613952 L162.988955,39.1563094 L161.215868,39.8048598 L160.851988,38.6015781 L160.851803,38.6014139 Z M132.76292,47.9254111 L131.988557,50.4609437 L130.077143,51.2182268 L130.082435,50.382718 L130.401962,50.3067435 L132.764032,47.9252704 L132.76292,47.9254111 Z M210.029841,29.6563514 L210.035134,29.958444 L203.684834,33.5902139 L204.800106,31.0495226 L210.029391,29.6562107 L210.029841,29.6563514 Z M146.870875,45.0311099 L147.729711,45.8892938 L146.930895,46.0789956 L146.492863,45.1967766 L146.870875,45.0312272 L146.870875,45.0311099 Z M244.798235,23.4501237 L244.733399,46.4518805 L245.653366,45.2472387 L245.232563,45.2713911 L245.35959,44.5584968 L246.542133,44.5052677 L247.116984,44.1411997 L245.390923,44.0957088 L245.760122,41.3528877 L246.93695,40.997613 L247.728911,43.6163892 L248.085513,43.3800006 L248.881259,40.9152838 L247.515982,39.7980362 L248.323213,37.9374106 L250.066476,38.8890385 L251.730981,36.7489955 L250.572917,39.1480553 L250.898159,39.3743375 L250.190697,40.1492073 L249.547437,41.1364306 L249.242466,44.091699 L248.219659,44.1057684 L248.18261,44.2663935 L249.104139,44.1993296 L249.147011,44.3409611 L248.028669,44.6064968 L247.985797,44.4648652 L246.907601,46.8449314 C249.440443,46.2527053 251.984983,45.7058528 254.517851,45.1139785 L253.195393,44.138292 L252.252481,44.1336022 L253.25499,40.9370444 L252.795575,39.9840331 L254.782703,40.0433589 L256.95365,38.1624031 L255.965247,39.9902001 L257.691334,40.0356911 L256.069621,42.3172717 L256.706,44.1386203 L256.183919,44.1109506 L256.674667,44.601338 C258.434231,44.1902314 260.187497,43.7605298 261.946824,43.3495873 L263.066303,39.9734107 L267.360086,40.0160877 L267.426246,29.7588233 L266.062927,34.0274661 L265.783547,36.2179477 L265.171646,36.7425471 L266.062927,34.0273957 L266.606021,29.877639 L267.414787,29.1545913 L267.406848,23.4668194 L244.798394,23.4480602 L244.798235,23.4501237 Z M220.840912,30.5795357 L220.92639,30.8626581 L220.867905,30.9524675 L220.840912,30.5796061 L220.840912,30.5795357 Z M174.094914,41.9058368 L174.617022,41.9335066 L174.659894,42.0751381 L174.116376,41.9766526 L174.095205,41.9058368 L174.094914,41.9058368 Z M336.996671,3.30655676 C339.878599,3.57591459 342.666317,3.80822312 345.537131,4.08578808 C345.659923,4.1751285 345.863246,4.34520357 345.985087,4.43461433 C342.907589,4.36895733 339.783514,4.34503943 336.694372,4.288762 C336.778528,3.98704465 336.912171,3.60841481 336.996697,3.30662711 L336.996671,3.30655676 Z M203.200014,35.3753104 L207.510998,36.3242417 L208.224203,35.8514644 L208.342762,36.8095407 L207.50687,37.159727 L207.140344,37.9295084 L202.876465,36.2866765 L203.200173,35.3753104 L203.200014,35.3753104 Z M255.836896,23.7122827 L255.916818,23.6935236 L255.943282,27.1770963 L255.884796,27.2669057 L255.898028,29.0086686 L253.898303,31.4557987 L252.599212,35.9366543 L252.212388,33.5249321 L253.898303,31.4556815 L254.401675,29.439613 L255.885008,27.2667181 L251.901118,31.9297719 L251.568598,30.2638897 L255.837505,23.7122593 L255.836896,23.7122827 Z M109.909145,59.267892 L111.53279,62.372061 L110.388831,63.4022897 L111.906594,63.04195 L112.782632,64.806388 L110.797065,65.8847104 L109.083601,63.3327636 L107.960628,60.1854485 L109.616744,59.7163762 L109.909145,59.2676575 L109.909145,59.267892 Z M188.279614,42.1021044 L188.306872,42.4749892 L187.806174,42.5179008 L187.822052,42.2866943 L188.279932,42.1021513 L188.279614,42.1021044 Z M364.040225,0.447428992 C364.614044,0.548259381 365.177383,0.622357993 365.75062,0.724102891 C365.205488,0.974420196 364.644901,1.2443408 364.100219,1.49526778 C363.986689,1.48354332 363.874217,1.51168203 363.75931,1.49995757 C362.965734,1.47228783 362.124232,1.42023121 361.329968,1.39396841 C362.208864,1.0804328 363.160509,0.758830753 364.040146,0.447053809 L364.040225,0.447428992 Z M367.040184,1.02483539 C371.048155,1.74127048 375.131285,2.48213936 379.098502,3.24472194 C379.549872,3.30053039 379.974354,3.32843461 380.425142,3.38494653 C380.314787,3.40980239 380.13515,3.45388637 380.025747,3.47968019 C379.685262,3.39831242 379.439464,3.32562074 379.098502,3.24465159 C374.810277,2.7141196 370.457479,2.17312939 366.130087,1.69601405 C366.44964,1.4599068 366.720181,1.26054401 367.040131,1.02476504 L367.040184,1.02483539 Z M130.015429,57.5273719 L130.061211,59.9440184 L123.034756,63.888128 L122.692286,62.7556152 L130.015402,57.5272077 L130.015429,57.5273719 Z M173.834508,48.4132426 L173.527976,50.2308628 L171.026044,51.5834907 L171.254163,50.9224186 L173.834456,48.4131488 L173.834508,48.4132426 Z M279.380852,23.4307549 L279.396731,39.0547755 C282.258018,33.8601345 285.114012,28.6518932 287.946982,23.4452932 L279.380852,23.4312239 L279.380852,23.4307549 Z M245.48577,32.2369997 L246.95079,32.2684213 L246.876691,32.589484 L245.540101,32.9826756 L245.485849,32.2369528 L245.48577,32.2369997 Z M188.273263,46.0477148 L188.300786,50.668795 L184.754611,51.9659193 L186.287617,47.1260606 L188.27321,46.0477148 L188.273263,46.0477148 Z M289.230751,23.4438863 C286.325004,28.60054 283.549196,33.6521425 280.499221,39.0205401 C281.032497,38.8962608 281.563603,38.7656033 282.096879,38.6412302 L284.164987,35.5708276 L283.952481,36.0005996 L282.096879,38.6411833 C287.989616,37.266701 293.878913,35.8941414 299.77218,34.5205032 L299.761594,23.4467471 L289.229719,23.4444022 L289.230751,23.4438863 Z M173.429609,51.3176268 L173.398382,51.7802507 L170.836403,52.0850633 L170.894888,51.9952539 L173.429715,51.3175799 L173.429609,51.3176268 Z M113.967663,67.0284084 L114.693888,68.2973941 L113.288888,69.3137175 L111.912125,67.5923083 L113.967663,67.0284084 L113.967663,67.0284084 Z M395.782674,0.0348216578 C396.062557,0.670287602 396.396956,1.28413363 396.701583,1.94082086 C397.033124,2.4845546 397.358657,2.9875341 397.694565,3.52578079 C399.207247,3.92825818 400.737924,4.31807316 402.250871,4.71989399 L407.567487,4.74732923 C411.545025,4.74730578 415.343667,5.44868666 418.778428,6.71321699 C418.805157,6.70618232 418.831621,6.70149253 418.858349,6.69445785 C421.334479,6.11414379 423.81135,5.51145944 426.287322,4.93065295 C423.759349,3.47928156 420.987113,2.32711849 418.057549,1.4981989 C415.268509,1.26347513 412.508314,1.05993844 409.719539,0.822611837 C409.845243,1.43793515 410.041261,1.99752037 410.174746,2.61108501 C409.95827,1.98605384 409.720941,1.34821955 409.516957,0.718967576 C407.970824,0.587184602 406.422522,0.511679054 404.876496,0.379309856 C405.430281,0.259954814 405.920738,0.119730225 406.474127,0 L395.782674,0.0349389024 L395.782674,0.0348216578 Z M300.356213,23.373774 L300.323133,34.3058986 C302.669881,33.7589055 305.027373,33.2546363 307.3742,32.7076901 L301.139548,23.415349 L300.356399,23.3736099 L300.356213,23.373774 Z M290.312599,25.83427 L289.358625,29.4744816 L287.468593,30.3025335 L290.312678,25.8341059 L290.312599,25.83427 Z M189.847341,50.066392 L192.430704,49.8323717 L192.40424,50.5970647 L189.310334,51.4075065 L189.846574,50.066392 L189.847341,50.066392 Z M188.175558,50.7667646 L188.194083,51.6730422 L186.436688,52.090269 L185.754817,52.0996485 L184.285589,52.9036419 L184.652142,52.1338605 L185.754817,52.0996251 L188.176881,50.7659439 L188.175558,50.7667646 Z M246.814474,37.1480963 L247.747462,37.6852174 L246.449483,39.0554555 L245.900223,38.6548306 L246.017193,38.4754463 L246.814474,37.1482135 L246.814474,37.1480963 Z M158.411505,58.5159318 L159.861255,63.0270365 L156.926928,63.799538 L156.207584,59.7220039 L158.411399,58.5160021 L158.411505,58.5159318 Z M257.823495,35.8996754 L257.281539,36.9387208 L255.876539,37.9550677 L256.311475,36.562131 L257.823495,35.8996754 L257.823495,35.8996754 Z M124.622278,67.6753175 L125.442503,67.5564314 L129.995898,66.4753889 L129.959378,70.8842563 L129.951439,73.6927344 L126.206784,74.0507292 L124.243314,67.8409841 L124.56284,67.7650096 L124.621326,67.6752002 L124.622278,67.6753175 Z M255.814878,36.9056344 L255.816413,38.0432122 L253.240329,39.7169029 L253.030469,38.1736117 L255.815011,36.9056344 L255.814878,36.9056344 Z M227.585737,44.0631851 L228.688412,44.0289497 L229.149388,46.1195388 L227.588807,46.3383173 L227.58616,44.0631617 L227.585737,44.0631851 Z M209.767795,49.1281535 L211.600876,49.5274419 L208.360096,52.1176104 L208.073438,52.8684451 L207.609815,52.750966 L208.360096,52.1176573 L209.767768,49.1281535 L209.767795,49.1281535 Z M132.426775,67.718229 L132.78912,67.783886 L133.277222,70.2474303 L131.747973,70.0035849 L132.426775,67.7182759 L132.426775,67.718229 Z M319.791846,23.3856861 L319.752415,29.7675463 C326.89981,28.1020393 334.056203,26.4922 341.203599,24.8263882 L341.195659,23.3867178 L319.791053,23.3858268 L319.791846,23.3856861 Z M183.375254,55.8507266 L186.544847,55.8577613 L188.350803,55.8842586 L187.152566,56.168741 L187.637598,56.3570359 L187.403656,56.716039 L186.833013,56.2446217 L182.998645,57.154956 L183.375122,55.8517818 L183.375254,55.8507266 Z M227.538366,47.8691806 L228.886442,48.0802209 L229.488418,48.0896005 L229.429933,48.1794099 L228.886442,48.0809244 L227.522699,48.1020284 L227.538578,47.870822 L227.538366,47.8691806 Z M196.551677,56.6674528 L196.506158,58.4989547 C197.019216,58.3812411 197.835736,58.179299 198.343448,58.0627343 L196.551624,56.6674528 L196.551677,56.6674528 Z M267.332273,40.1659733 L265.769045,42.3578384 C266.275513,42.2396558 266.780313,42.1157047 267.286808,41.9974753 L267.332326,40.1659733 L267.332273,40.1659733 Z M0.0459414922,104.228444 L0.0221238983,114.627106 C1.78544623,114.519241 3.54924491,114.390858 5.31148222,114.281633 L5.31677502,102.97667 C3.52119308,103.388222 1.84681623,103.815415 0.0446182925,104.228421 L0.0459414922,104.228444 Z M109.638604,79.0419507 C111.390414,79.3534697 113.191157,79.5716386 115.046547,79.6545774 L113.97367,78.0885877 C112.30194,78.4727984 111.329309,78.6534254 109.638604,79.0419507 L109.638604,79.0419507 Z M114.293117,78.0127304 L116.351698,79.7239862 C116.392982,79.7238924 116.491428,79.7563458 116.532977,79.7568147 L116.53033,77.4816591 C115.669562,77.679568 115.159601,77.8136724 114.293647,78.0127069 L114.293117,78.0127304 Z M117.248616,77.3109978 L117.214477,79.7466379 C118.386303,79.744293 119.530844,79.6490904 120.660883,79.5353631 L119.934658,78.2663774 L121.224249,78.5671099 L122.162953,79.4063236 C124.866779,79.0737709 127.506827,78.5005384 130.012703,77.6184601 C133.716603,76.3147701 136.993375,74.4357371 139.897798,72.0852166 C131.792142,73.9483277 125.93169,75.3153064 117.248325,77.3110447 L117.248616,77.3109978 Z M153.202597,69.0785482 L151.451739,78.2944458 L161.541401,78.2508308 L162.204536,76.196822 L158.990484,74.9116097 L158.389619,71.7921988 L158.448105,71.7023894 L158.948803,71.6594779 L158.389619,71.7921988 L159.418142,72.0790495 L162.161664,76.0552842 L162.565267,75.1249715 L161.11287,72.587094 L163.148507,73.0900032 L163.891536,71.0170242 L164.536305,71.1673318 L164.81722,70.1144046 L165.772756,67.6117005 L165.764817,66.1720301 C164.284606,66.5121334 162.720134,66.9063802 161.211422,67.2530726 L162.2545,70.4191468 L160.091942,70.6290148 L158.553908,67.8078742 C158.259681,67.8754072 157.970482,67.9485678 157.675224,68.0165697 L158.120507,70.3384591 L158.509977,70.7770244 L158.190451,70.8529989 L158.120586,70.3385763 L157.0263,68.7018177 L156.876514,68.2063419 C155.63784,68.4910119 154.45834,68.7900091 153.201988,69.0787592 L153.202597,69.0785482 Z M165.772729,67.6113957 L165.397787,70.0521946 L164.918498,70.1659219 L165.419197,70.1230103 L165.260942,71.2985051 L165.745974,71.4868 L165.738035,70.0471531 L170.984786,69.5601188 L170.873637,70.0416895 L171.365921,71.6696547 L169.139161,71.6673098 L168.909453,71.1908042 L168.718383,71.691345 L166.651387,71.6510128 L167.39746,71.8531426 L167.400106,74.1282982 L167.943624,74.2267837 L166.633047,78.103595 L166.329188,77.9481286 L166.255088,78.2691913 L166.65451,78.1744576 L166.675681,78.2452734 L173.276065,78.2713017 L174.972222,64.0614859 C173.900271,64.3077466 172.626189,64.6268396 171.537196,64.8770162 L171.046844,68.6349414 L165.716202,69.9764311 L165.771512,67.6116067 L165.772729,67.6113957 Z M182.743294,62.2924754 L183.315472,63.9014705 L187.769098,63.9061602 L187.338343,64.4636116 L183.765175,65.3878511 L184.679823,68.1292652 L184.700995,68.200081 L187.610446,76.6888274 L189.6247,77.1209442 L189.285326,78.2636105 L190.228238,78.2683003 L190.63184,77.3379875 L192.22529,77.7941629 L191.773126,78.280822 L193.318015,78.2925464 L195.173643,75.6519627 L195.213339,73.5183682 L192.964032,76.5559423 L191.577372,75.3679258 L192.942226,72.237025 L195.026424,73.1835878 L193.41003,71.5190423 L194.642273,68.7989666 L192.7167,70.9251278 L192.103265,70.3121494 L192.31577,69.8823774 L191.980551,70.1895349 L188.854889,67.214335 L189.461073,66.387643 L189.45578,66.0855505 L194.642723,68.7988259 L195.170547,69.128682 L195.197011,64.1157702 L191.153842,60.3721489 C188.739638,60.9264112 185.266662,61.7135448 182.744908,62.2927568 L182.743294,62.2924754 Z M193.868228,59.7269282 L195.206353,60.4713144 L195.227524,59.4045054 C194.845384,59.4922044 194.254575,59.6385257 193.869524,59.7269282 L193.868228,59.7269282 Z M196.504332,59.1010529 L196.522857,61.1449083 L197.962287,61.9411166 L197.669886,62.3898353 L197.589965,62.4085945 L196.511769,64.7886606 L196.509122,69.8723882 L197.399318,70.2679482 L196.522143,71.6141511 L196.562368,73.7287754 L196.503883,73.8185848 L196.493297,77.4625482 L198.430355,75.9405955 L202.224498,72.9156838 L204.170343,73.9709559 L205.268413,70.5239636 L205.40682,70.4151605 L209.869178,57.1418949 C210.010761,56.7237537 210.062895,56.3408092 210.18717,55.9284598 C210.084489,55.9519087 209.890641,55.9997446 209.787749,56.0231935 L208.702275,56.9636596 L208.030354,56.4404203 C206.073659,56.8892093 202.549661,57.6820879 200.500025,58.1524265 L200.622818,58.2750644 L200.425926,58.4734423 L199.798359,59.2293419 L198.902447,58.5316894 C198.242144,58.6831695 197.175459,58.9470169 196.505973,59.1006542 L196.504332,59.1010529 Z M214.760254,54.9184676 C214.810535,55.4429029 214.837264,55.9572551 214.890192,56.480729 L215.601147,62.2292336 L216.70803,61.3595363 L218.361474,62.8635506 L217.696831,63.7799816 L215.601147,62.2292336 L216.129395,66.8074023 L219.305074,71.3637635 L217.689103,73.9473663 L220.767395,73.3682482 L220.725052,77.4748589 L217.566839,78.0729472 L217.550961,78.3043882 L239.376345,78.2809392 L238.946729,75.72782 L238.504489,75.6811566 L237.986589,74.8179078 L237.321946,75.7343388 L234.653052,75.6853305 L234.314789,73.7173558 L234.351839,73.5567306 L234.159181,72.9196936 L233.381351,68.9319689 L233.780746,68.8372353 L235.371523,71.2665442 L235.738076,70.4967628 L237.9163,70.055454 L235.361493,55.9445927 L232.97497,55.9802351 L234.561143,54.9967401 L235.205938,55.1470478 L234.712093,52.3814812 L234.610736,52.3296591 L234.727707,52.1502748 L234.432236,50.3238378 C230.595222,51.2203841 227.848789,51.8301031 221.86925,53.2305669 L220.775387,55.842074 L220.751569,53.4962432 C218.1726,54.1004518 218.671023,53.9994572 215.559334,54.7290237 C215.361383,54.7745146 214.959554,54.8730001 214.760518,54.9187255 L214.760254,54.9184676 Z M237.986906,74.8179312 L238.651576,73.9015002 L238.270495,71.7919409 L236.48174,72.671815 L237.986906,74.8179312 Z M246.334973,47.4975854 L245.004125,48.1928696 L244.647523,48.4292582 L244.626352,49.4960437 L245.84179,50.117839 L245.746255,50.3681094 L246.050115,50.5235758 L244.676448,51.0772987 L244.648132,53.8151955 L245.425538,53.5547718 L245.43877,56.4340656 L244.682747,56.7652817 L244.623467,64.2138336 L245.358055,63.8118252 L245.406484,64.2554789 L245.698858,63.8067602 L245.815829,63.6273759 L246.608902,63.1356285 L246.335264,65.6282495 L245.717595,65.8507798 L246.261112,65.9492653 L246.065808,67.2853149 L245.84748,67.4128771 L245.397989,65.9264964 L245.41916,64.8596874 L244.978482,65.9505316 L244.639081,67.0931978 L244.685922,78.0063288 L247.390542,76.7573217 L246.897121,78.2399974 L251.270825,78.2636808 L252.771387,76.9970635 L252.39491,78.3002611 L253.838521,78.2608669 L254.953793,75.7201756 L251.363158,75.7389348 L250.500141,75.7154858 L250.244763,76.0036966 L247.828442,77.6394704 L248.582904,76.1706764 L249.557176,75.7117809 L248.534369,75.7258503 L248.384583,75.2303744 L248.012314,75.6980867 L245.023735,75.7248185 L245.297373,73.2321975 L247.977911,73.8854846 L248.384583,75.2303041 L249.086329,74.1533417 L250.599884,74.6284873 L250.291816,75.3085297 L250.58996,75.1619739 L250.679673,74.6096109 L251.606945,74.8446395 L251.686866,74.8258804 L254.953581,75.7192611 L255.144651,75.2186968 L261.407884,70.1661564 L257.920724,75.6217839 L256.14499,78.243374 L257.269048,78.2799544 C257.851071,77.2609109 258.414383,76.2343872 258.996247,75.2147105 C261.79111,70.3166985 264.548658,65.4095414 267.302765,60.4976944 L267.297473,44.3402107 L267.106403,44.8407515 L266.510169,45.1340507 L266.096616,46.5977563 L266.846897,45.9644476 L265.631882,49.5908243 L265.587422,48.3116853 L266.09651,46.5976859 L264.100993,48.2094011 L264.343403,46.1794508 L266.510169,45.1339804 L267.124742,42.6362006 C266.520146,42.7775976 265.776349,42.9584592 265.207585,43.0913677 L264.564324,44.078591 L261.634231,44.0155134 L261.61306,43.9446977 C260.415432,44.2243261 258.225669,44.7533808 257.139586,45.00677 L257.384908,45.2519519 L256.278051,46.1216492 L255.979908,46.268205 L254.982718,45.5187538 C252.99125,45.9831833 248.466224,46.9983812 246.493863,47.4583319 C246.456549,47.4677115 246.371335,47.4876431 246.33402,47.4963192 L246.334973,47.4975854 Z M245.420854,64.8596406 L245.701769,63.8067368 L245.393728,64.4867791 L245.420722,64.8596406 L245.420854,64.8596406 Z M280.009293,39.654388 C279.784084,40.0505108 279.496315,40.4948211 279.270498,40.8918818 L279.289022,67.2883398 L287.678108,66.4345174 L287.157535,67.5443317 L285.19224,71.804064 L281.519302,73.8140592 L282.225229,71.9016115 L284.176419,69.0108277 L279.275288,72.9054601 L279.277246,78.2912099 L280.300026,78.2747956 L281.361021,74.9884284 L281.96874,75.2993143 L281.504006,78.2923354 L296.228307,78.2853007 L299.076891,77.2296769 L298.774566,78.2118118 L298.534803,78.2687927 L300.841431,78.2523784 L300.766802,58.469925 C300.766617,56.7198377 300.729223,55.1387703 300.616487,53.7262069 C300.516188,52.4707513 300.417478,51.2842355 300.228128,50.1769772 L299.647534,50.2388823 L299.68035,35.0585154 C285.202164,38.4496994 296.535369,35.7808362 280.008076,39.6533328 L280.009293,39.654388 Z M300.320672,34.9078561 L300.287857,50.088223 L319.178914,78.299628 L319.759507,78.2377228 L319.733043,51.5411185 L318.568813,49.3899139 L307.668823,33.1637248 C302.55254,34.3619416 305.710038,33.6460224 300.319773,34.908583 L300.320672,34.9078561 Z M319.753447,30.3700196 L319.769326,41.7457979 C319.769246,44.2459226 319.806375,46.3082558 319.905351,47.8584644 C319.981567,49.0543128 320.060959,50.1631892 320.229508,51.1952468 L320.373472,51.3887005 L320.394643,51.4595163 L320.384058,78.3179182 L341.165173,78.2393643 L341.194019,68.1427249 L335.564863,65.3825516 L338.349933,56.7556911 L339.859307,58.066322 L339.846075,64.8210202 L341.195263,61.9213258 L341.182031,25.3574126 C329.672046,28.0512254 333.387591,27.1768384 319.752283,30.3693864 L319.753447,30.3700196 Z M419.530641,6.98393487 C422.697851,8.2472693 425.573164,9.97343867 428.013144,12.1011944 C429.170627,12.3218488 430.318952,12.5760352 431.476752,12.7961034 C431.057298,13.309799 430.641337,13.7942773 430.221591,14.3079261 C431.92754,16.1812375 433.407062,18.1713714 434.470385,20.4302066 C435.155803,20.5279887 435.857469,20.6751541 436.543098,20.7725844 C436.682299,20.8708354 436.829068,20.9526722 436.969645,21.0506184 C436.199331,20.9891822 435.369208,20.9164905 434.598789,20.8548198 C435.940513,23.8311922 436.667003,27.1095868 436.668167,30.529144 L436.67346,77.2605122 C438.450041,77.0855832 440.222811,76.929601 441.999868,76.7545313 L441.963877,30.4874518 C441.963877,19.9992154 435.987778,10.7884765 426.901895,5.31033799 C425.313156,5.68153452 421.287823,6.57395381 419.531408,6.98440384 L419.530641,6.98393487 Z M170.295399,66.992086 L170.045844,67.5823894 L170.275551,68.058895 L170.296722,66.992086 L170.295399,66.992086 Z M202.973138,59.5372029 L204.492409,60.3144411 L203.418421,61.8590923 L201.893381,60.779785 L202.973138,59.5372029 L202.973138,59.5372029 Z M264.126133,46.3075523 L262.880897,47.2859588 L262.819765,49.3487845 L259.169586,52.5671498 L263.272299,53.1103442 L263.241072,53.5729681 L262.673498,55.3767065 L257.451094,53.9614465 L257.312687,54.0702495 L247.053656,58.9335572 L249.788974,52.9737777 L255.794183,50.1824173 L255.850022,52.0657179 L256.292236,52.1123813 L258.658487,48.8954229 L264.125948,46.3075523 L264.126133,46.3075523 Z M162.361494,70.7718187 L162.719631,71.6730079 L160.674044,71.7034915 L160.465772,71.2977782 L162.361521,70.7718187 L162.361494,70.7718187 Z M232.242315,54.4082189 L232.626042,54.5446917 L231.349472,55.9857221 L230.246797,56.0199575 L232.242315,54.4082424 L232.242315,54.4082189 Z M248.224449,50.9171426 L249.833566,51.1420178 L249.568317,51.9636213 L248.822244,51.7614916 L248.113221,51.3987835 L248.22437,50.9171895 L248.224449,50.9171426 Z M220.76541,57.5121535 L220.925517,61.7224085 L225.481558,58.6681856 L225.311924,59.2395188 L224.914038,60.4719241 L223.774287,60.6665502 L220.952696,62.0950589 L221.014092,64.2804755 L223.964033,63.2766503 L222.696276,67.2948586 L222.557869,67.4036616 L222.680662,67.5262995 L222.185706,67.8713974 L222.084349,67.8195753 L221.195714,68.5615931 L220.727884,69.2795524 L220.765992,66.008427 L219.01696,64.7547066 L219.81006,64.2629591 L220.322217,64.8241154 L220.775916,65.4750342 L220.765331,57.5120128 L220.76541,57.5121535 Z M221.195873,68.5617573 L221.87621,67.4140026 L221.625066,66.8667281 L221.683552,66.7769187 L222.131508,67.1257215 L223.045759,65.6190106 L221.097242,66.5368017 L221.195953,68.5616869 L221.195873,68.5617573 Z M199.906385,62.9954508 L201.910715,63.9609604 L199.528796,67.4093597 L197.705639,66.4767021 L197.214864,65.9863146 L199.906252,62.9956384 L199.906385,62.9954508 Z M249.396698,52.5348841 L248.73359,54.5888929 L247.620964,55.1564977 L247.98024,52.9470459 L249.396698,52.5348841 Z M373.380506,23.4019362 C372.383105,23.6583033 371.425982,23.9127242 370.467615,24.24523 C366.43265,25.6453889 362.88621,27.6657251 359.810829,30.3410132 C356.7635,32.9912111 354.439168,36.0935042 352.844712,39.5812977 C351.250627,43.0690913 350.452156,46.8216232 350.452156,50.9219027 C350.452156,53.4220274 350.760646,55.8700954 351.351534,58.143 L351.505555,57.8029906 L354.220496,60.2688798 L352.581581,61.6442298 C352.671558,61.8515183 352.737718,61.9861855 352.832724,62.1915043 C354.412942,65.6666354 356.694879,68.8441996 359.770789,71.5443436 C360.618166,72.2816952 361.521091,72.9264704 362.437037,73.5665088 L362.573855,72.3202218 L361.995935,70.4091342 L362.034043,67.1380087 L363.196712,68.1516121 L362.964358,69.648193 L362.559194,69.4409045 L362.927282,69.8087009 L362.57375,72.3203156 L363.188746,74.0708718 C363.328476,74.1618537 363.394636,74.2788638 363.535398,74.3678759 L364.015825,71.1434139 L366.379828,74.1476905 L365.502652,75.4938935 C366.167401,75.8538579 366.891377,76.12474 367.58685,76.4404329 L367.756484,75.8690998 L367.921884,76.1332754 L368.194384,76.7513422 C368.942468,77.0715842 369.756871,77.4416552 370.53965,77.7117868 C373.058704,78.5810621 375.655669,79.1553263 378.437035,79.478218 L379.197266,78.3115166 L380.184505,79.5943606 C380.511203,79.6182785 380.898477,79.6332858 381.228721,79.6499345 L379.277134,78.2925699 L379.920394,77.3053466 L382.123098,79.2099857 L381.910592,79.6397577 C382.208656,79.6514822 382.574362,79.7096355 382.874914,79.7143253 L382.820398,63.1131879 C379.969432,62.8374285 377.7147,61.7560812 376.040058,59.9435963 C374.064865,57.805992 373.061007,54.8157847 373.060742,50.9406149 C373.060901,47.1904279 374.140076,44.2508703 376.10119,42.0255671 C377.842389,40.0498777 380.080316,38.8932593 382.87809,38.6716669 L382.84501,22.1413453 C379.530924,22.1912915 376.372446,22.6331396 373.380427,23.402241 L373.380506,23.4019362 Z M383.527066,22.1308636 L383.537652,38.5903695 C383.678705,38.5856797 383.757832,38.6560265 383.89997,38.6560265 C385.790426,38.6560968 387.468375,38.9863281 388.935539,39.736342 C390.402676,40.4864732 391.747867,41.6198772 392.791607,43.1448782 L412.567885,36.6288901 C409.435606,31.8786063 405.403817,28.233705 400.465901,25.7710986 C395.527984,23.3084922 389.954403,22.1118934 383.605691,22.1118934 L383.525769,22.1306525 L383.527066,22.1308636 Z M186.410013,69.6125975 L186.793767,69.7490703 L186.261735,70.2546995 L185.936466,70.0284174 L186.410013,69.6125272 L186.410013,69.6125975 Z M265.674965,50.8694005 L265.724982,52.4506321 L264.054734,54.2885825 L262.845435,58.2172159 L265.833484,53.9422418 L265.867888,55.7547971 L262.845435,58.217169 L261.633067,59.8705529 L262.822491,57.0088457 L262.846308,58.2171924 L263.094276,56.4893347 L263.800203,54.5768636 L264.05558,54.2886763 L264.47485,53.1270399 L265.260671,51.195622 L265.675733,50.8694943 L265.674965,50.8694005 Z M186.997513,69.8527145 L191.86927,71.8064558 L190.986352,72.8505662 L190.492931,74.3332419 L186.508247,70.4998112 L186.997487,69.8526208 L186.997513,69.8527145 Z M231.570817,59.2697444 L232.375772,63.6303071 L231.343042,64.1789651 L230.04313,60.1633362 L231.570817,59.2695803 L231.570817,59.2697444 Z M0.0267550971,114.925775 L0.0294014964,160.517525 C1.78872776,160.202606 3.54805403,159.883208 5.3073803,159.56789 L5.34151885,129.670507 C5.28276879,129.761958 5.22481264,129.84825 5.16606258,129.939748 C4.9249756,129.763177 4.6339246,129.541491 4.39283762,129.364686 C4.48069808,129.22751 4.53891886,129.142625 4.62677932,129.005707 C4.84299015,129.110523 5.09810304,129.192829 5.31436679,129.297622 L5.2931956,114.509087 C3.5364628,114.646029 1.78195298,114.787074 0.0252731135,114.925329 L0.0267550971,114.925775 Z M170.261684,74.8116938 L172.601207,75.4700459 L173.301815,77.503748 L169.919716,77.9274232 L170.26179,74.8117641 L170.261684,74.8116938 Z M255.332837,55.4487417 L256.750857,56.1741577 L252.818307,59.3078724 L248.768258,58.3728464 L255.332651,55.4487417 L255.332837,55.4487417 Z M234.043083,61.4896544 L233.464025,62.6892078 L233.144498,62.7649478 L234.043083,61.4895372 L234.043083,61.4896544 Z M262.010231,57.4287691 L260.57276,62.0184278 L260.332996,62.0754087 L260.253075,62.0941678 L251.597497,66.8803285 L251.866953,65.2232396 L260.253128,62.0942147 L251.988158,64.2082059 L252.488434,59.9170521 L259.714956,58.0496029 L262.010126,57.4287691 L262.010231,57.4287691 Z M281.604172,53.9904294 L282.989297,54.040868 L282.912552,56.3349939 L281.096672,56.8419832 L280.217962,57.0506786 L280.717125,55.8700954 L281.217824,55.8269494 L280.775584,55.780286 L281.604225,53.9904294 L281.604172,53.9904294 Z M368.46429,33.7476969 L368.933629,34.167292 L368.652714,35.2202192 L368.547123,36.0038824 L367.470038,35.273378 L368.464185,33.7476969 L368.46429,33.7476969 Z M284.173826,53.9878735 L286.05965,53.9949081 L285.63043,55.6899139 L284.991378,55.8416284 L283.952904,56.0881705 L284.173879,53.9874279 L284.173826,53.9878735 Z M224.375787,68.8680941 L226.695435,70.5932317 L223.995049,71.006777 L223.103345,69.4736392 L224.375734,68.8680941 L224.375787,68.8680941 Z M288.889709,54.0063981 L289.571581,53.9970185 L288.725765,54.8805976 L287.447633,55.1840502 L288.889709,54.0071719 L288.889709,54.0063981 Z M289.912516,53.9899839 L292.240554,54.0441509 L289.343276,54.656121 L289.912384,53.9899604 L289.912516,53.9899839 Z M195.216409,76.6247649 L194.424871,78.2540902 L195.20802,78.2958293 L195.215959,76.6248352 L195.216409,76.6247649 Z M267.27257,61.7928491 C265.909039,64.1658806 264.65319,66.46411 263.254807,68.8917775 L264.916666,68.7248211 L263.975289,69.8586706 L263.815446,69.8966578 L262.304961,71.6966679 L261.62309,71.7060475 C260.413394,73.804023 259.385982,75.6213149 258.147309,77.7657194 C258.058654,77.9190754 257.943536,78.0609883 257.854935,78.2144381 L266.080208,78.2331972 L267.282626,77.1132295 L267.272041,61.7912311 L267.27257,61.7928491 Z M263.815579,69.896564 L262.691494,69.8599837 C262.654974,69.9235303 262.611043,69.9760559 262.574523,70.039368 L263.815579,69.8963296 L263.815579,69.896564 Z M226.427249,72.249195 L229.266042,71.7269404 L227.125316,76.2558664 L224.387881,76.8299196 L225.294855,73.8835618 L226.427328,72.2491715 L226.427249,72.249195 Z M251.629174,67.2522285 L253.584943,67.7740843 L252.043124,70.0367183 L251.222899,70.1556043 L251.629174,67.2521581 L251.629174,67.2522285 Z M245.793599,69.4722088 L246.539672,69.6743386 L247.21887,71.6372483 L245.477143,71.8231983 L245.793599,69.4722088 L245.793599,69.4722088 Z M253.787578,67.8777286 L253.94742,67.8397413 L257.93872,68.8645298 L257.790521,69.5066318 L253.284232,69.8937502 L252.804943,70.0074775 L253.787604,67.8776114 L253.787578,67.8777286 Z M362.432855,42.3863992 L367.353041,44.7838175 L366.874148,49.1457871 L364.486091,48.0437813 L365.032255,46.1692506 L363.95824,47.7139018 L360.029395,45.7638889 L362.432723,42.3863054 L362.432855,42.3863992 Z M326.097793,51.6198835 L326.321678,51.7943435 L326.179037,52.738538 L325.853795,52.5122559 L326.097528,51.6198835 L326.097793,51.6198835 Z M251.096189,70.8684049 L251.458534,70.9340619 L251.203157,71.2222726 L251.123236,71.2410318 L251.095978,70.8681704 L251.096189,70.8684049 Z M252.284476,71.1173152 L252.84366,70.9845943 L257.42987,70.5785292 L257.06906,71.6504031 L254.421602,71.6715072 L252.748257,71.2343019 L252.284634,71.1168228 L252.284476,71.1173152 Z M339.848536,52.072565 L339.853829,52.3746341 L339.731036,52.2519962 L339.848007,52.0726119 L339.848536,52.072565 Z M357.998866,48.6736429 L360.422862,52.7258522 L359.582789,53.9115237 L356.728118,50.41693 L357.998972,48.6738071 L357.998866,48.6736429 Z M297.663608,64.8951422 L289.604264,69.3879568 L294.010518,65.8382581 L297.663608,64.8950484 L297.663608,64.8951422 Z M281.751338,68.9006881 L279.296379,69.5593919 L279.350631,70.3051382 L281.751285,68.9006881 L281.751338,68.9006881 Z M323.519459,59.5150202 L325.219929,60.3250869 L324.85073,63.067908 L322.554026,62.5511171 L323.519459,59.5149499 L323.519459,59.5150202 Z M383.478928,45.7343198 L383.523123,58.6204436 L392.009332,58.6539756 C391.755277,60.0791076 391.004494,61.1416724 389.664489,61.9417498 C388.323956,62.7418741 386.536445,63.1925859 384.392333,63.193477 C384.074818,63.1936177 383.812824,63.1153921 383.50788,63.0999158 L383.481416,79.7200468 L383.582773,79.771869 C389.931485,79.771869 395.507713,78.4701252 400.501998,75.9825222 C405.496282,73.4949193 409.595555,69.9596651 412.755885,65.2593275 C414.053547,63.2592512 415.116394,60.9175241 415.793687,58.3172724 C416.470715,55.7172553 416.772881,52.8142781 416.772854,49.6641491 C416.773066,49.2390669 416.794026,48.7745437 416.764915,48.2244787 C416.73554,47.6746717 416.674144,46.8810428 416.617775,45.7560101 L383.476917,45.7349061 L383.478928,45.7343198 Z M353.659301,54.710757 L356.24306,58.7250259 L354.859469,59.8121416 L352.351371,56.6144113 L353.659301,54.710757 L353.659301,54.710757 Z M88.1725208,119.565848 C85.0285984,120.482819 82.2144174,121.817837 79.8249834,123.671756 C75.0564365,127.371997 72.7167549,132.203883 72.7167549,138.104336 C72.7167549,141.522487 73.7116158,144.398498 75.6905138,146.805295 C82.4981114,145.557625 89.8363121,144.168698 97.739519,142.708299 L97.7125257,142.335437 L97.0035024,141.972729 L96.8224887,141.939901 L96.779617,141.798269 L97.0035024,141.972729 L97.7438591,141.872837 L97.7036338,139.758213 L96.4469117,140.132458 L96.1029063,137.862367 L97.3710873,138.092401 L95.9102748,137.225424 L95.8459673,137.012976 C95.3669955,136.613008 95.1411518,136.245188 95.1411518,135.814783 C95.1412312,134.989709 95.6025251,134.373729 96.4490553,133.911129 C96.8033817,133.717441 97.2064283,133.578623 97.684368,133.466115 L97.6737824,118.144117 C97.5083825,118.148806 97.3955665,118.092763 97.2315426,118.097174 C95.5527992,118.149041 93.938628,118.325377 92.4058335,118.560429 L92.4542626,119.004082 L91.4471489,118.788118 C90.3194916,118.99353 89.2199392,119.260051 88.1719651,119.565708 L88.1725208,119.565848 Z M362.07485,55.3673739 L363.356025,57.339077 L363.854078,59.2691348 L365.332092,61.0423896 L364.999968,63.6245855 L363.854078,59.2689472 L362.045052,56.967388 L362.021234,55.7590413 L362.073898,55.3671863 L362.07485,55.3673739 Z M281.574029,74.5556315 L281.936374,74.6212885 L281.963632,74.9941499 L281.478627,74.805855 L281.574162,74.5555846 L281.574029,74.5556315 Z M98.3452798,118.133119 L98.3923857,133.294492 C98.8990653,133.221097 99.3554633,133.146529 99.9743503,133.146529 C102.005912,133.146553 104.135284,133.487969 106.293952,134.225485 C108.452514,134.963094 110.610229,136.070822 112.754871,137.470817 L119.543679,123.113976 C116.044875,121.438878 112.52384,120.202323 109.081404,119.377155 C105.638968,118.552175 102.161864,118.146907 98.6064265,118.14686 C98.5153903,118.146602 98.436263,118.132791 98.3452798,118.132791 L98.3452798,118.133119 Z M92.7492038,120.296212 L92.7820191,120.97119 L90.8392445,122.191073 L90.4539552,120.916999 L92.7491244,120.296212 L92.7492038,120.296212 Z M393.141991,49.9611298 L395.467382,51.9883834 L397.687684,59.0474486 L397.69827,59.6516337 L393.183248,57.4615038 L393.14117,49.9611298 L393.141991,49.9611298 Z M295.235801,74.723221 L295.662348,75.0012784 L295.659702,76.9743415 L295.820867,78.073979 L295.447063,77.4041135 L294.519818,77.1690849 L295.235669,74.7231272 L295.235801,74.723221 Z M102.779057,121.478038 L109.792015,123.151002 L109.282928,124.865001 L102.833388,122.223714 L102.779137,121.477968 L102.779057,121.478038 Z M362.028274,64.8582571 L363.446294,65.5836731 L363.352347,66.9715213 L361.971429,66.0855739 L362.028327,64.8582571 L362.028274,64.8582571 Z M364.661732,66.2054449 L364.763089,66.257267 L365.549308,68.574068 L364.450841,67.7727946 L364.661759,66.2054449 L364.661732,66.2054449 Z M93.8556898,131.637333 L94.86283,131.853298 L94.9541308,132.438513 L93.9997333,131.830599 L93.8557692,131.637145 L93.8556898,131.637333 Z M149.668251,119.144917 C148.929324,119.316328 148.173724,119.530253 147.452951,119.746733 L147.941052,122.210278 L146.705766,122.655292 L145.898138,120.267722 C145.292271,120.481107 144.706941,120.671489 144.125051,120.916272 L144.888325,122.024703 L145.630217,123.062388 L144.932679,123.303865 L144.852757,123.322625 L142.323673,124.302415 L140.685869,122.5671 C138.749711,123.643758 136.90787,124.9134 135.241167,126.363247 C134.211189,127.250812 133.289924,128.250159 132.426986,129.23152 L137.816643,132.04844 L136.834009,134.178306 L132.03344,129.628276 C131.168385,130.657449 130.353003,131.717505 129.667189,132.845234 L130.157964,133.335598 L135.999625,135.665929 C136.593398,135.555485 137.341376,135.392702 137.938192,135.281531 L137.692871,135.036349 L139.639827,132.98098 L141.686976,134.088051 L141.277631,134.716295 C145.89401,133.856305 151.388729,132.755284 156.168655,131.863498 L155.864795,131.708032 L157.306871,130.531177 L157.386793,130.512418 L157.365621,130.441602 L158.472504,129.571905 L158.488383,125.092456 L156.592635,125.618415 L156.582049,125.01423 L156.6146,121.441083 L158.510374,120.915123 L158.502435,118.337852 L156.569585,119.024342 L156.574877,118.188857 C154.183882,118.317826 151.888898,118.630705 149.672009,119.14494 L149.668251,119.144917 Z M157.38674,130.512488 L158.08007,131.106496 L158.458082,130.940947 L158.468667,130.407531 L157.387401,130.512582 L157.38674,130.512488 Z M158.08007,131.106496 L156.349801,131.896608 C157.025056,131.770687 157.769832,131.60087 158.448131,131.474293 L158.08007,131.106496 Z M130.157911,133.335739 L129.571601,133.095645 C129.091226,133.902382 128.664362,134.747435 128.275156,135.603508 C128.026924,136.149657 127.868219,136.701223 127.664764,137.265685 C129.333293,136.955315 131.546238,136.484836 133.240728,136.169401 L130.157672,133.335833 L130.157911,133.335739 Z M364.247809,69.1091256 L366.26934,70.9809363 L366.376255,71.3348275 L364.14796,70.1949048 L364.247729,69.1091256 L364.247809,69.1091256 Z M159.117326,118.11504 L159.147627,120.763127 L162.800717,119.819918 L162.162061,124.219874 L159.126641,124.940577 L159.16422,129.028194 L162.958363,126.003283 L163.176691,125.87572 L159.853343,130.457875 L159.268568,131.355336 C167.010609,129.910742 175.163901,128.386233 183.256061,126.874012 C183.071606,126.703772 182.934232,126.479952 182.743876,126.312855 C181.028295,124.833861 179.222313,123.626781 177.235925,122.537812 L171.067698,123.091911 L172.07595,120.197375 C168.094442,118.805939 163.782663,118.113187 159.197247,118.096351 L159.117326,118.11511 L159.117326,118.11504 Z M159.85329,130.457617 L159.171445,130.466997 L159.155567,130.698438 L159.853078,130.456961 L159.85329,130.457617 Z M370.82689,67.9263617 L371.23777,68.4357193 L370.892653,69.276293 L370.76986,69.1536551 L370.18355,68.9135381 L370.82681,67.9263148 L370.82689,67.9263617 Z M371.62724,68.8742846 L374.503347,72.4396941 L374.770131,72.7556684 L374.711645,72.8454778 L374.503374,72.439741 L371.361833,69.6959819 L371.627082,68.8743784 L371.62724,68.8742846 Z M145.823218,122.560605 L146.734797,123.026957 L145.627914,123.896654 L145.823218,122.560605 L145.823218,122.560605 Z M147.017247,123.111608 L147.870367,123.667699 L148.189893,123.591959 L148.409545,124.601857 L148.680536,124.082346 L150.503693,125.015004 L148.7635,126.338532 L147.744901,125.518288 L147.66498,125.537048 L147.32251,124.404558 L146.928831,124.801455 L147.403939,125.523166 L143.920484,125.895042 L142.917551,124.843475 L146.331142,123.957176 L146.539414,124.362889 L147.017168,123.111514 L147.017247,123.111608 Z M368.796096,70.8345681 L369.793312,71.5840192 L368.943262,73.3030836 L367.780593,72.2894802 L368.796096,70.8345681 Z M370.545101,72.0882884 L373.696434,74.2987485 L372.330045,76.2921419 L369.961835,74.1233271 L370.545075,72.0882884 L370.545101,72.0882884 Z M143.232632,126.740704 L143.656506,128.991825 L143.27852,129.157374 L143.232738,126.740704 L143.232632,126.740704 Z M144.756111,126.682551 L148.788694,126.711393 L148.917045,127.136077 L146.126946,128.101985 L144.755926,126.682645 L144.756111,126.682551 Z M0,161.58159 L0.0340591592,166.504693 C0.0339533033,167.067866 0.0716380296,167.601118 0.105511941,168.156717 C0.961066377,168.364005 1.76623337,168.644431 2.62620729,168.847921 C2.53173084,169.136038 2.47747965,169.4522 2.38247392,169.740293 C1.65709586,169.470865 0.881198045,169.174658 0.159895447,168.902439 C0.200649996,169.367385 0.183713041,169.864291 0.246961984,170.323163 C0.712198985,170.47605 1.192494,170.594702 1.65921298,170.746487 C1.48296279,171.166176 1.27836966,171.597284 1.10159018,172.016809 L0.899140633,171.913165 C0.749619071,171.750195 0.63741174,171.567058 0.488260674,171.403807 C0.829275691,173.274398 1.40862543,175.04355 2.11500234,176.783225 C2.30474917,177.054061 2.44246779,177.375803 2.63290268,177.646498 C4.09141274,178.379417 5.59528208,179.132222 7.0680033,179.855574 L7.00528364,180.780822 C6.92668558,180.893612 6.82903344,180.955986 6.7499061,181.069033 C5.75194892,180.474016 4.73896019,179.953333 3.74836,179.354049 C3.37987535,178.79777 2.99807932,178.203386 2.63269097,177.646498 C2.54456587,177.605462 2.49666605,177.513073 2.40880559,177.472038 C4.37608591,181.976811 7.4356411,185.967115 11.4168842,189.140459 C17.509954,193.996732 25.5650643,196.956455 34.4140943,196.956455 L188.098442,196.95866 C189.054718,195.390348 190.005728,193.829166 190.958141,192.259025 L34.4447925,192.244956 C27.8203258,192.244956 21.7463101,190.341208 16.8740243,187.085488 C16.8554995,187.073764 16.8123632,187.117145 16.794103,187.104248 C16.0645701,186.677196 15.4103537,186.213282 14.6827527,185.7848 C15.40649,187.61724 16.1004024,189.335906 16.9485469,191.012504 C17.0671056,191.183916 17.2422707,191.402647 17.3808362,191.59263 C17.1963822,191.40926 16.9750638,191.289131 16.8101931,191.121213 C15.6105538,189.331591 14.5893348,187.376654 13.531569,185.375522 C13.5103978,185.279147 13.4669969,185.188869 13.4458257,185.0924 C12.5538303,184.565174 11.6362443,184.06264 10.7480862,183.532859 C11.1656351,183.364495 11.6249971,183.167243 12.0418844,182.998106 C9.39416184,180.173917 7.41174411,176.799382 6.31772263,173.12939 C5.54481525,172.953289 4.71130532,172.810391 3.94115019,172.631569 C4.11078438,172.269799 4.29288312,171.883666 4.46169693,171.521755 C4.95487991,171.664794 5.48074592,171.855082 5.97525209,171.996901 C5.54452414,170.220973 5.32852503,168.356924 5.32852503,166.460609 L5.33646423,160.541396 C3.55586091,160.881734 1.78049746,161.24008 0,161.580793 L0,161.58159 Z M98.4573548,138.357303 L99.0979422,139.343167 L98.320536,139.603614 L98.3821971,141.789007 L100.683109,141.470313 L101.136781,142.121231 C101.758659,142.006097 102.207991,141.909957 102.835717,141.79372 L102.846302,141.260327 L103.346975,141.217416 L102.81915,140.88756 L102.774691,139.608421 C100.988795,139.227868 99.619918,138.77847 98.4578841,138.357397 L98.4573548,138.357303 Z M161.446951,123.553995 L161.111758,123.861153 L161.117051,124.163245 L161.446502,123.553995 L161.446951,123.553995 Z M143.242635,130.455484 L144.004375,130.426407 L144.412608,132.90871 L143.235781,133.263962 L143.24372,130.455484 L143.242635,130.455484 Z M104.404079,139.904229 L103.815096,141.637175 C105.558412,141.314518 106.725871,141.080591 108.512455,140.749516 C107.933317,140.591236 107.295693,140.473217 106.679347,140.350228 C106.143186,140.250335 105.391609,140.104295 104.404052,139.904229 L104.404079,139.904229 Z M76.0373244,147.170348 C76.1511196,147.297911 76.2056354,147.432531 76.3254908,147.557115 C78.7803438,150.10742 82.3915674,151.907829 87.0190612,152.907926 C87.8090908,153.057999 88.8906477,153.294997 90.3013903,153.570006 C94.6748298,154.370084 96.8266171,155.502643 96.8266171,157.027785 C96.8265906,157.902876 96.3777084,158.650217 95.5030469,159.16274 C94.6283061,159.675286 93.4904602,159.926378 91.9669282,159.926448 C89.7942608,159.926448 87.4569344,159.468185 84.959792,158.555577 C82.4625702,157.643062 79.6402648,156.178324 76.4516182,154.202987 L69.28067,169.560862 C73.3439515,171.611002 77.4016756,173.153472 81.4649571,174.178425 C83.9359795,174.801815 86.4192813,175.280595 88.8928707,175.525261 L88.1467713,175.323131 L88.2423064,175.072861 L90.5275516,174.985396 L90.2779961,175.575676 C91.4457463,175.660327 92.5848095,175.737239 93.7516599,175.737239 C94.5678359,175.737239 95.3344184,175.674631 96.1167999,175.630781 L96.4248407,174.950739 L97.7086884,174.949379 L97.719274,159.698196 L97.1773179,160.737218 L96.7878473,160.298653 L97.6065374,159.042212 L97.6864587,159.023453 L97.7102763,145.514057 L97.39075,145.589797 L97.0253352,143.248937 C90.0319604,144.556989 83.0277353,145.855286 76.0362129,147.170067 L76.0373244,147.170348 Z M148.53808,130.412103 L150.866118,130.46627 L151.341226,131.187981 L149.583805,131.605231 L148.53808,130.412103 Z M98.3252995,143.016605 L98.3681711,143.158237 L99.3110832,143.162927 L98.8046418,142.903863 C98.6432114,142.934112 98.4869151,142.987576 98.3253524,143.01759 L98.3252995,143.016605 Z M101.32367,142.456434 L102.540643,144.215783 L98.3498051,145.36253 L98.3897658,174.938662 L102.379742,174.825873 C106.473722,173.908246 109.977819,172.291513 112.97963,169.957407 C117.931572,166.107093 120.460207,161.132637 120.460207,155.05702 C120.460207,153.264185 120.211975,151.630428 119.643766,150.092179 L118.53114,150.659783 L112.98217,152.128952 L115.197048,147.279011 L117.731875,146.601313 C117.439607,146.217478 117.148053,145.893601 116.808811,145.530799 C115.448985,144.076614 113.719934,142.921403 111.807116,142.014867 L111.345028,143.034942 L108.958505,143.070585 L110.20795,141.256693 C109.903032,141.145779 109.576572,141.049404 109.259295,140.950872 C107.397024,141.298268 105.545338,141.699385 103.683332,142.047156 L102.940329,144.120135 L102.780486,144.158123 L102.783133,142.185059 C102.297042,142.275807 101.809919,142.364913 101.323855,142.45566 L101.32367,142.456434 Z M127.590771,137.585623 C127.490208,137.875428 127.338304,138.134163 127.245654,138.426196 L134.691828,137.568646 L133.507749,136.48425 C131.535944,136.850428 129.562497,137.219092 127.590665,137.585623 L127.590771,137.585623 Z M136.005527,135.967084 L135.081378,138.007211 L136.868571,135.989782 L138.728804,136.761932 L139.367857,136.610218 L138.285056,135.577644 C137.528053,135.718103 136.762529,135.826578 136.005527,135.967107 L136.005527,135.967084 Z M139.367777,136.610194 L139.714456,136.907198 L139.634534,136.925957 L139.315008,137.001697 L139.517458,137.105342 L136.353952,141.649509 L136.172673,141.616681 L136.295466,141.739319 L136.15706,141.848122 L135.609361,142.585051 L132.823496,142.715427 L133.944511,140.476852 L136.532055,139.407323 L135.081193,138.006953 L134.915793,137.742801 L131.68348,138.661952 L129.282826,140.066425 L131.195802,140.44672 L128.29032,142.729684 L127.949385,142.734374 L127.869463,142.753133 L126.096376,143.401684 C126.058268,143.730625 126.104315,144.135213 126.075205,144.468469 L126.213611,144.359666 L125.969613,145.252062 C125.940767,145.794178 125.860052,146.317933 125.860052,146.87121 C125.860052,150.220421 126.460309,153.412289 127.524267,156.338246 L127.842258,155.124811 L129.515577,155.562016 L129.204863,158.215028 L128.32041,158.121467 C128.386834,158.26896 128.377837,158.400532 128.44876,158.54615 L129.136374,158.838089 L128.951126,159.640723 C130.491119,162.51392 132.570342,165.053204 135.215683,167.332909 C138.347696,170.058143 141.949975,172.07522 145.98494,173.500211 C149.863767,174.870168 154.016233,175.572229 158.442865,175.625271 L158.445511,162.045058 L158.201513,162.937454 L155.478368,162.142606 L154.920322,159.164827 L152.451258,161.192432 L149.519577,159.99187 L149.309717,158.448579 L149.991589,158.4392 L151.229971,160.269342 L152.479416,158.45545 L157.273897,158.455075 L158.462183,158.704008 L158.433602,157.193546 C155.549556,157.09037 153.226547,156.161113 151.419321,154.382957 C150.229632,153.212598 149.403294,151.83828 148.95248,150.189351 L148.182351,151.889445 L148.215167,152.564399 L146.824298,152.211868 L145.166223,147.295097 L147.201887,147.798006 L148.086737,152.139809 L148.182272,151.889539 L148.243404,149.826737 L148.598471,148.45277 C148.539721,147.943108 148.548454,147.418602 148.548454,146.871539 C148.548401,145.091835 148.821324,143.571337 149.442408,142.183395 L146.616847,144.447389 L146.659719,144.58902 L146.281707,144.754569 L142.269237,147.907278 L133.473664,151.6645 L145.163074,145.020246 L144.524022,145.17196 L144.010329,143.473203 L141.713599,142.956412 L150.802657,135.639877 L156.848092,134.963188 L155.811153,136.347332 L149.325093,138.114865 L151.393624,139.292728 C153.198495,137.491991 155.627863,136.571949 158.501588,136.467132 L158.474066,131.846052 C157.82419,131.966345 157.163939,132.039271 156.51409,132.159681 L157.980645,133.328728 L157.315975,134.245182 L152.542929,134.316232 L154.895049,132.468105 C150.272848,133.324132 145.664408,134.216785 141.042472,135.074219 L140.064018,136.3686 L139.366481,136.610077 L139.367777,136.610194 Z M139.315114,137.002026 L138.728804,136.761932 L136.753161,137.306838 L139.315114,137.002026 L139.315114,137.002026 Z M159.114415,131.694361 L159.103829,136.476066 C162.176828,136.501626 164.681645,137.446735 166.560324,139.333318 C168.464885,141.246 169.351217,143.713578 169.351217,146.863941 C169.351217,148.109923 169.237157,149.249635 168.935018,150.300616 L170.400038,150.332038 L169.534745,156.530527 L169.885604,155.992046 L169.482002,156.922359 L169.360797,157.937346 L168.23097,157.598673 L168.229038,152.212923 C167.794393,153.036356 167.259106,153.756543 166.585915,154.423735 C164.707183,156.285674 162.209829,157.22893 159.137095,157.254255 L159.10719,158.854457 L159.469535,158.920114 L159.108725,159.991988 L159.145775,175.686824 C163.670324,175.672755 167.932085,174.970623 171.944027,173.558576 C173.313168,173.076677 174.644148,172.560894 175.905157,171.935324 L173.666912,171.328794 L174.049131,170.327689 L176.719613,171.514369 C178.868463,170.373086 180.836352,168.944132 182.659192,167.373054 C185.547472,164.837286 187.803527,161.969248 189.397189,158.794029 L189.034844,158.728372 L189.699514,157.811941 L189.880527,157.844769 C191.401069,154.463199 192.119064,150.7578 192.119064,146.844174 C192.119064,142.79384 191.332765,139.049985 189.738574,135.574619 C188.30277,132.444891 186.212777,129.651654 183.601045,127.169585 C175.435051,128.6785 167.278319,130.182538 159.112854,131.694056 L159.114415,131.694361 Z M131.840624,140.59745 L132.608106,140.870395 L131.368585,142.150894 L131.177515,142.651459 L130.83658,142.656148 L131.368612,142.150519 L131.84065,140.597075 L131.840624,140.59745 Z M223.027605,119.099004 C222.281823,119.271119 221.538317,119.486497 220.812331,119.70082 L221.174649,119.766477 C224.212716,119.197841 226.688687,118.682949 229.749248,118.110022 C227.431425,118.237349 225.185797,118.60062 223.027658,119.098957 L223.027605,119.099004 Z M217.484457,120.870265 C215.160019,121.827099 213.026068,123.040909 211.0328,124.450448 L212.59489,125.369247 L213.479343,125.462808 L213.607694,125.887492 L212.594811,125.369341 L210.181162,125.032028 C209.59742,125.472211 209.074809,125.854663 208.520838,126.336586 C205.445193,128.986783 203.054965,132.120498 201.4748,135.595629 C199.894661,139.070995 199.140728,142.771236 199.140728,146.846425 C199.140623,147.000015 199.127496,147.227212 199.130143,147.379818 L199.38552,147.091607 L199.875872,143.333682 L201.872924,142.859544 L200.928874,145.966527 L205.175286,142.454816 L205.638909,142.572295 L200.000491,148.842069 L199.507069,150.324745 L199.325791,150.291917 C199.645952,153.064283 200.315544,155.678135 201.440608,158.134645 C201.673491,158.642947 201.987143,159.195474 202.252444,159.686753 L208.87003,160.619059 L208.322331,161.356012 L207.375212,162.187769 L203.784577,162.206528 C204.650241,163.44782 205.698929,164.564083 206.79909,165.663369 C209.830012,160.533681 212.933444,155.436822 215.935784,150.294003 L215.253939,150.303383 L216.360796,149.433686 C220.267146,142.738548 224.126125,136.010113 227.994897,129.299029 L227.52135,129.71492 L225.123342,129.146307 L225.7024,127.946753 L224.819482,128.990864 L223.327336,128.58651 L223.257471,128.072064 L222.68262,128.436132 L215.829505,126.725228 L216.094753,125.903625 L223.335831,126.915516 L223.257498,128.072064 L224.444249,127.183397 L225.952088,127.35645 L225.702533,127.946753 L226.213155,127.370332 L228.967792,127.702556 C229.86336,126.147775 230.773695,124.596277 231.667649,123.040909 L231.646478,122.970093 L230.181457,122.938672 L231.420952,121.658173 L229.680759,122.981701 L228.055975,122.988735 L228.980151,120.948608 L231.654867,121.299803 L231.624698,118.651715 L230.079809,118.639991 L230.138295,118.550182 C227.597143,119.01984 225.063559,119.509548 222.522487,119.979065 L223.145873,120.058557 L222.599709,121.933088 L223.332788,120.393502 L223.30553,120.02064 L223.486808,120.053469 L223.332788,120.393478 L223.324849,122.064449 L222.600185,121.933135 L218.145236,120.790844 C217.928232,120.830942 217.701885,120.831645 217.484775,120.871743 L217.484457,120.870265 Z M232.30694,118.640741 L232.358544,121.359645 L232.619479,121.373714 C233.141429,120.464951 233.671158,119.557407 234.192631,118.64848 L232.306807,118.641445 L232.30694,118.640741 Z M131.124508,143.044041 L130.933438,143.544581 L129.166093,144.495224 L130.347128,143.304488 L131.124534,143.044041 L131.124508,143.044041 Z M234.535208,118.643086 C233.993437,119.581114 233.445659,120.520173 232.90357,121.45813 L236.484149,121.973561 L235.76102,122.979731 L232.330228,122.958627 L232.30641,136.468023 C235.379409,136.493583 237.884226,137.438715 239.762905,139.325275 C240.882014,140.449159 241.705045,141.758336 242.165518,143.306669 L252.535963,142.210009 L252.317635,142.337571 L250.741413,142.787673 L242.320835,144.104096 C242.517463,144.987628 242.633534,145.823864 242.633507,146.836834 C242.633454,149.962107 241.692977,152.528124 239.788363,154.415762 C237.909632,156.277701 235.412277,157.220957 232.339543,157.246282 L232.347482,175.678781 C236.872031,175.664712 241.133793,174.962627 245.145734,173.550533 C249.194725,172.125448 252.757043,170.040228 255.861005,167.365175 C258.964702,164.63994 261.298562,161.568834 262.907043,158.106131 C264.515313,154.643428 265.400878,150.842591 265.400878,146.817348 C265.400878,142.767015 264.614553,139.023159 263.020388,135.547793 C261.426065,132.072662 259.012681,129.049627 255.965617,126.374338 C252.833604,123.674194 249.231325,121.619599 245.19636,120.207036 C243.152943,119.491656 241.02881,119.039139 238.828329,118.684427 L234.534546,118.64175 L234.535208,118.643086 Z M108.47133,149.103243 L106.176558,153.972179 L104.360678,154.479168 L105.878044,149.870516 L108.47133,149.103079 L108.47133,149.103243 Z M102.783953,150.681122 L102.784376,154.929364 L102.704455,154.948123 L99.295099,154.999007 L98.6728511,151.808781 L102.783768,150.681005 L102.783953,150.681122 Z M130.650538,146.568649 L130.066186,151.714282 L129.096122,151.337692 L130.650538,146.568649 L130.650538,146.568649 Z M231.682125,123.643805 C230.882118,125.027104 230.05406,126.403274 229.253206,127.786058 L229.876592,127.86555 L228.631356,128.84398 C224.678164,135.667383 220.746938,142.528774 216.763313,149.337639 L220.813363,150.272688 L216.200159,150.305986 C213.148861,155.518214 210.023993,160.65517 206.946495,165.85497 C207.452963,166.352838 207.943738,166.828991 208.498661,167.307162 C211.630675,170.032396 215.254389,172.120289 219.289354,173.54528 C223.168182,174.915214 227.240726,175.636292 231.667358,175.68931 L231.636924,157.185995 C228.752878,157.08282 226.429869,156.153539 224.622643,154.375407 C222.703897,152.487815 221.751829,149.98905 221.751829,146.863777 C221.751908,146.662116 221.812167,146.437194 221.820371,146.240645 L220.37676,146.280039 L221.483643,145.410342 L221.824578,145.405652 C222.092579,142.977985 223.001908,140.885872 224.596946,139.285248 C226.404384,137.471778 228.820864,136.564938 231.70491,136.459652 L231.681093,123.643805 L231.682125,123.643805 Z M436.606056,77.9458306 L436.650515,79.2249696 C438.405369,78.8941521 440.14191,78.5373298 441.907058,78.2045426 L441.933522,77.4398496 C440.159403,77.6161856 438.380996,77.7695416 436.607115,77.9458306 L436.606056,77.9458306 Z M143.993683,148.252751 L144.014854,151.434067 L143.007714,151.218102 L143.994583,148.252751 L143.993683,148.252751 Z M436.606056,79.9178854 L436.647604,110.633636 C436.965728,110.185316 437.314709,109.790999 437.626058,109.339232 C438.177885,110.135745 438.682024,110.94492 439.216835,111.768541 C438.377397,112.756092 437.519567,113.676627 436.663695,114.650648 L436.664436,166.465744 C436.664488,180.796087 423.737833,192.264255 407.564629,192.264255 L312.537722,192.294269 C312.733291,192.487957 312.935211,192.642486 313.129774,192.836479 C312.212109,193.061588 311.268403,193.341662 310.355289,193.571063 C310.032852,193.148045 309.692155,192.710417 309.368024,192.288196 L301.14275,192.269437 C302.156427,192.782992 303.18712,193.300345 304.181346,193.82389 C304.753444,194.124833 305.252476,194.417851 305.82333,194.723719 C305.071647,194.921628 304.350503,195.118927 303.60803,195.325536 C302.638124,195.595386 301.662556,195.889412 300.695138,196.168829 C299.336688,195.477297 297.881486,194.816811 296.483923,194.134166 C295.880888,194.596016 295.261948,195.012352 294.663835,195.47664 C292.038422,195.064596 289.45625,194.744096 286.79953,194.385163 C287.440197,193.846963 288.067896,193.327288 288.715153,192.792418 C290.656313,192.879179 292.6088,192.964064 294.53829,193.078894 C293.984557,192.811365 293.395019,192.536731 292.837819,192.268804 L275.204861,192.282873 C275.259112,192.308667 275.353059,192.360723 275.40731,192.386517 C277.339208,192.409966 279.243795,192.395897 281.16614,192.460616 L281.524277,193.361805 C281.491991,193.496402 281.503106,193.618805 281.471614,193.75366 C280.130445,193.612967 278.761701,193.471851 277.411773,193.352027 C276.747235,193.006671 276.077035,192.727512 275.407443,192.386494 C273.843844,192.407598 272.280193,192.395873 270.714318,192.43855 C270.715747,192.388839 270.670123,192.346631 270.671446,192.296919 L253.880043,192.262918 C253.625724,192.509014 253.425735,192.791621 253.172581,193.037788 C252.737089,193.058892 252.26521,193.107666 251.830248,193.129004 C252.045929,192.857583 252.299428,192.554787 252.516327,192.283342 L251.152584,192.304446 C251.037201,192.569231 250.900647,192.809606 250.786058,193.074227 C247.744287,193.223597 244.692459,193.41154 241.688002,193.565342 C241.359292,193.611536 241.116035,193.657262 240.787908,193.703221 C240.851422,193.655855 240.841101,193.571204 240.904879,193.523837 C241.169255,193.526159 241.423282,193.564169 241.688028,193.565576 C244.647497,193.150108 247.626548,192.689055 250.630741,192.276917 L191.131745,192.293331 C190.18399,193.855358 189.223638,195.432908 188.272046,196.992965 L373.89314,197 C373.926485,196.928715 373.957977,196.820381 373.988675,196.74973 C374.316485,196.828987 374.667874,196.888782 374.995816,196.965694 L407.533295,196.977419 C426.54688,196.977395 441.981475,183.342571 441.981475,166.496157 L442,136.828574 C441.668935,137.286625 441.295132,137.759637 440.963088,138.212694 C439.870813,137.507116 438.768191,136.812253 437.673349,136.110943 C438.583154,134.833305 439.481872,133.595576 440.368971,132.284781 C440.749762,132.792029 441.123063,133.249986 441.500333,133.761032 C441.328317,132.984075 441.157148,132.232068 440.975155,131.458113 C441.093185,131.286467 441.207774,131.092403 441.326015,130.919632 C441.531111,130.645654 441.715962,130.373553 441.932199,130.09294 L441.942785,122.200734 C441.108296,122.859555 440.195579,123.417757 439.308215,123.964187 C439.133023,123.384459 438.998189,122.812165 438.794496,122.265453 C439.912282,121.318562 440.971689,120.303153 441.842619,119.038177 C441.894223,118.964313 441.883902,118.86231 441.938154,118.787907 L441.964618,78.9528683 C440.181791,79.2891493 438.389597,79.5852389 436.606718,79.9214731 L436.606056,79.9178854 Z M100.222239,160.08508 L102.849928,161.130199 L102.812878,161.290824 L102.82611,163.032563 L100.780523,163.063047 L100.222477,160.085033 L100.222239,160.08508 Z M274.797262,119.319119 L274.796892,174.243542 L296.302856,174.296303 L296.286978,154.42404 C296.286792,152.673976 296.249399,151.09312 296.136662,149.680322 C296.036099,148.42496 295.959089,147.309166 295.769712,146.201908 L295.247604,146.174238 L295.25819,119.315836 L274.796495,119.318181 L274.797262,119.319119 Z M94.7230207,163.135785 L96.0068684,163.134425 L95.6246754,164.135507 L94.1168365,163.962454 L94.7230207,163.135762 L94.7230207,163.135785 Z M220.3079,133.925456 L223.183743,133.242694 L219.589403,138.344242 L215.478486,139.472042 L220.308165,133.925433 L220.3079,133.925456 Z M93.743853,164.430166 L95.3158936,164.815549 L94.3118497,166.874647 L92.0266045,166.962111 L93.743853,164.43033 L93.743853,164.430166 Z M241.270029,129.631957 L241.429872,129.59397 L238.675764,133.509941 L235.262174,134.39624 L241.270029,129.631887 L241.270029,129.631957 Z M142.318512,153.200475 L144.014775,154.846027 L144.006836,157.654505 L141.277869,156.557564 L142.317454,153.200381 L142.318512,153.200475 Z M216.208628,135.657159 L214.258999,139.685685 L206.553213,141.666932 L206.765719,141.23716 L206.313556,141.723819 L206.073792,141.7808 L206.765587,141.23723 L207.2548,140.59004 L216.208363,135.657323 L216.208628,135.657159 Z M101.005573,164.375061 L101.619035,164.98804 L102.764528,165.095436 L102.803166,166.072482 L101.619061,164.988087 L101.155438,164.870607 L101.005652,164.375155 L101.005573,164.375061 Z M191.734727,143.061393 L188.871852,145.486012 L189.546446,144.036188 L191.734595,143.061487 L191.734727,143.061393 Z M107.822697,163.13602 L110.429004,164.110346 L113.956919,165.017609 L113.461963,165.36273 L110.429189,164.110346 L107.690166,163.546822 L107.82275,163.13602 L107.822697,163.13602 Z M247.004777,130.471663 L248.62956,130.464629 L247.980557,131.149736 L245.285993,131.86535 L247.004777,130.471054 L247.004777,130.471663 Z M295.941993,119.308332 L295.887477,146.026041 L314.698613,174.256205 L315.300616,174.265584 L315.274152,159.175027 L313.349717,158.190524 L315.262666,158.570842 L315.246788,150.305798 L312.410906,148.854966 L314.046752,145.204437 L308.121728,136.369819 L306.853547,136.139785 L306.408264,133.817896 L305.458074,132.37452 L304.971904,135.29696 L305.121691,135.792436 L304.940412,135.759608 L304.97164,135.296984 L304.393719,133.385896 L304.417537,131.483602 L304.881159,131.601081 L296.623335,119.299304 L295.941464,119.308684 L295.941993,119.308332 Z M249.312437,130.455015 L250.756048,130.41562 L248.301089,131.074348 L249.312437,130.454921 L249.312437,130.455015 Z M100.576856,166.071591 L102.772282,166.536583 L102.756404,166.76779 L100.268603,166.751376 L100.576644,166.071333 L100.576856,166.071591 Z M437.807521,86.7626275 C437.865477,86.8001457 438.031936,86.8097598 438.089971,86.8472781 L437.850208,86.904259 C437.876672,86.8444642 437.781666,86.8224222 437.807336,86.7626275 L437.807521,86.7626275 Z M106.690038,165.607302 L112.300405,166.32355 L109.889826,168.261416 L105.919698,167.307397 L106.689853,165.607302 L106.690038,165.607302 Z M186.113775,146.826118 L186.051055,147.751342 L185.276719,150.286875 L180.562158,150.268116 L181.182474,148.072546 L186.113775,146.825884 L186.113775,146.826118 Z M145.880566,156.757677 L147.678133,158.455075 L148.178805,158.412163 L148.234644,160.295487 L144.627072,159.407195 L145.190438,158.438942 L145.792414,158.448321 L145.26459,158.118465 L145.880698,156.75838 L145.880566,156.757677 Z M205.734179,142.623132 L210.290485,143.817245 L211.319008,144.104096 L209.62735,145.871254 L209.420667,146.603119 L207.17824,146.83198 L209.134009,147.35386 L208.227035,150.300217 L205.579577,150.321321 L206.957425,148.932113 L207.178399,146.831371 L207.299604,145.816384 L201.728139,150.325378 L200.342988,150.274963 L205.734497,142.622405 L205.734179,142.623132 Z M140.656574,158.453034 L143.986009,158.421144 L143.980716,159.256629 L140.655515,158.453011 L140.656574,158.453034 Z M140.656574,158.453034 L142.496933,160.29197 L144.004772,160.465023 L143.952108,160.856854 L144.18605,160.497875 L148.208842,161.060039 L148.210377,162.197617 L144.518649,162.163851 L147.585826,165.22886 L146.926899,166.447384 L139.160776,163.132643 L139.463101,162.150508 L144.518517,162.164578 L142.496986,160.29279 L140.163205,159.936531 L140.656627,158.453855 L140.656574,158.453034 Z M187.564002,148.226488 L188.623858,148.050621 L185.635809,152.325595 L187.564055,148.226254 L187.564002,148.226488 Z M315.281879,119.269407 L315.297758,123.286208 L322.62749,126.856308 L322.319449,127.53635 L320.768818,127.221736 L322.202478,127.715852 L320.54525,131.295565 L315.248482,130.201368 L315.232603,133.543309 L315.579282,133.840313 L319.021453,134.464453 L318.251298,136.164547 L317.557968,135.570539 L317.727602,134.999206 L317.435228,135.447948 L315.579202,133.840313 L315.296725,133.755662 L315.278201,135.960049 L317.57644,137.614418 L317.363934,138.04419 L317.428241,138.256637 L315.254224,137.862437 C315.256871,140.306519 315.330176,142.289595 315.427299,143.814479 C315.473875,144.530163 315.519923,145.181152 315.605931,145.820394 L317.407679,146.682282 L317.423557,150.699084 L319.433206,147.718491 L322.327838,149.079584 L321.452224,151.563294 L317.42361,150.699037 L315.894388,150.455191 L315.910267,158.720235 L316.997275,158.91744 L316.449576,159.65437 L315.964544,159.466075 L315.904736,174.273604 L336.707287,174.266569 L336.691408,167.139033 L334.959605,166.791567 L334.980776,162.614141 L336.270366,162.914873 L336.715676,165.236762 L336.669893,135.358139 L334.594507,136.988824 L330.002211,132.844695 L333.655036,127.653337 L336.693631,129.207813 L336.680399,127.46605 L334.984137,125.820475 L336.058152,124.275824 L336.644461,124.515917 L336.644038,120.267675 L336.41433,119.791169 L336.638216,119.965629 L336.685322,119.271705 L325.993604,119.306644 L326.094961,119.358466 L325.552978,120.397488 L323.612877,119.644309 L323.766897,119.304299 L315.280688,119.270767 L315.281879,119.269407 Z M320.768924,127.221876 L320.161204,126.910991 L320.305169,127.104444 L320.768791,127.221923 L320.768924,127.221876 Z M320.161204,126.910991 L315.282303,123.517462 L315.274363,125.188432 L320.161734,126.910873 L320.161204,126.910991 Z M212.143123,144.287584 L214.924754,144.99267 L214.493999,145.550121 L214.063245,146.107573 L211.160409,146.417474 L212.14307,144.287584 L212.143123,144.287584 Z M149.640464,160.416929 L150.008525,160.784726 L152.145466,161.339457 L152.086981,161.429266 L152.850256,162.53772 L152.061364,162.193959 L149.834604,162.191614 L149.951575,162.01223 L149.817403,161.285454 L150.904411,161.482659 L150.477864,161.204602 L150.008499,160.785007 L149.726049,160.700356 L149.640305,160.417234 L149.640464,160.416929 Z M179.330418,154.12652 L183.243384,156.307833 L183.132235,156.789427 L178.667231,156.180529 L179.330365,154.12652 L179.330418,154.12652 Z M210.523527,147.706907 L212.660468,148.261638 L211.134316,150.292948 L209.32836,150.266451 L210.523527,147.706766 L210.523527,147.706907 Z M155.578984,162.497083 L157.967042,163.599089 L157.473621,165.081765 L155.932914,164.233758 L155.578984,162.497083 Z M348.08601,117.322724 L348.080717,121.268944 L348.160638,121.250185 L348.571518,121.759519 L348.082305,122.40671 L348.114062,126.192304 L348.688913,125.828236 L351.300962,127.104655 L348.117079,128.46746 L348.135604,134.759511 L348.8446,135.122219 L353.367032,138.752113 L353.685024,137.538678 L354.575219,137.934238 L355.870526,138.537063 L355.606945,140.496244 L357.420178,141.962318 L356.478377,138.847831 L357.411365,139.384953 L357.419305,141.962224 L357.547655,142.386908 L355.352229,141.921939 L355.606018,140.49615 L353.366238,138.752019 L352.872817,140.234718 L352.896635,141.443065 L351.708348,141.194155 L350.802512,141.030012 L348.115888,135.826461 L348.070634,153.513283 L358.261654,153.520318 L358.274886,123.552588 L357.444737,124.204867 L357.44209,126.17793 L357.443625,127.315508 L357.412398,127.778109 L351.806795,118.867516 L350.153351,117.363502 L348.086354,117.32317 L348.08601,117.322724 Z M351.806318,118.867024 L351.937315,117.318644 L350.914508,117.335058 L351.806212,118.868196 L351.806318,118.867024 Z M357.441561,126.177461 L357.271927,126.748794 L357.35767,127.031917 L357.441826,126.177461 L357.441561,126.177461 Z M178.060676,157.842893 L182.15492,160.057058 L181.772701,161.058163 L177.418845,159.967671 L178.06057,157.842893 L178.060676,157.842893 Z M166.541958,160.805196 L167.570508,161.092024 L165.796309,164.851356 L164.021686,164.362328 L166.541958,160.805361 L166.541958,160.805196 Z M352.962265,117.302746 L358.230717,121.134769 L358.257181,120.370053 L357.642184,118.619497 L357.839077,118.421119 L358.287033,118.769945 L358.279093,117.330275 L356.995246,117.331658 L357.267772,117.949701 L357.470221,118.053346 L357.475514,118.355438 L357.267243,117.949701 L356.653781,117.336723 L352.962054,117.302957 L352.962265,117.302746 Z M168.579686,161.307003 L168.862136,161.391654 L168.793859,162.014809 L170.050978,165.888807 L168.37766,165.451601 L168.793859,162.014927 L168.579765,161.307121 L168.579686,161.307003 Z M358.961653,117.31916 L358.900521,119.381962 L361.124608,121.357393 L359.937856,122.246061 L358.96205,121.567379 L358.951464,122.100771 L359.165558,122.808601 L358.88885,123.025972 L358.946012,153.509578 L369.136767,153.516613 L369.10501,149.731018 L366.189207,148.299156 L364.637041,146.846964 L365.735112,143.399972 L367.862129,144.488096 L366.207123,141.846574 L367.437805,137.988757 L369.085533,139.190678 L369.146664,137.127853 L367.857074,136.82712 L368.29201,135.434183 L369.102311,135.848714 L369.089079,132.96942 L369.0732,117.345399 L358.962103,117.318433 L358.961653,117.31916 Z M151.137268,168.177539 L156.558152,170.531812 L156.566091,171.971482 L151.799926,169.234054 L151.229283,168.762637 L151.137982,168.177422 L151.137268,168.177539 Z M182.23246,160.870619 L182.078439,161.210652 L181.977082,161.15883 L182.23246,160.870619 L182.23246,160.870619 Z M163.146363,165.705553 L165.006597,166.477703 L164.045345,168.678362 L161.81705,167.538415 L163.146363,165.705553 Z M175.284338,163.658251 L175.790753,163.917315 L174.303212,166.925812 L173.194794,166.657932 L175.284338,163.658345 L175.284338,163.658251 Z M176.094613,164.072758 L180.412743,166.461265 L179.78671,168.354743 L175.049126,167.127778 L176.094454,164.072617 L176.094613,164.072758 Z M351.079829,123.817889 L357.426953,129.517949 L357.437538,130.122134 L353.610051,128.223943 L357.433304,130.957619 L357.44389,134.672398 L357.284047,134.710385 L356.074352,134.390683 L355.527764,132.016948 L354.864656,134.070957 L352.901187,127.861212 L353.610183,128.22392 L352.836985,127.648858 L352.436029,126.606108 L351.7599,126.918354 L349.360357,125.212186 L351.079167,123.817889 L351.079829,123.817889 Z M168.060145,167.801137 L171.114354,169.124266 L171.200097,169.407412 L171.396989,169.209034 L172.953363,169.825741 L172.454199,171.006324 L171.628232,170.823188 L171.20015,169.407576 L170.418536,170.503485 L167.817973,169.831252 L168.060383,167.801301 L168.060145,167.801137 Z M160.053728,171.90212 L162.036649,172.796861 L161.287903,174.567747 L159.464745,173.635066 L160.053728,171.90212 L160.053728,171.90212 Z M333.19705,131.781005 L335.680643,132.63274 L334.619251,131.670935 L333.19705,131.780911 L333.19705,131.781005 Z M329.459805,133.57867 L334.541421,137.075608 L334.264687,137.29298 L328.816544,134.565635 L329.459778,133.578435 L329.459805,133.57867 Z M304.329861,140.227848 L307.043215,141.556089 L307.444171,142.598839 L307.874925,142.041388 L309.351404,142.677041 L308.963468,143.376054 L308.995225,147.161649 L308.915304,147.180408 L303.872325,144.660352 L304.329782,140.227566 L304.329861,140.227848 Z M308.915278,147.180689 L308.384383,144.575748 L308.251799,144.98655 L308.91533,147.18076 L308.915278,147.180689 Z M327.60415,136.219254 L333.987794,137.510539 L333.354484,137.96437 L326.200738,138.373178 L327.604202,136.219254 L327.60415,136.219254 Z M365.680543,129.91032 L366.186984,130.169407 L366.139878,130.863331 L365.590645,130.462682 L365.680358,129.91032 L365.680543,129.91032 Z M310.286112,143.214045 L311.560036,143.746101 L309.178118,147.194501 L309.098197,147.21326 L310.286086,143.214045 L310.286112,143.214045 Z M323.953177,141.410612 L324.636583,142.538013 L326.183033,143.688112 L325.629592,144.122973 L324.636583,142.538013 L323.580908,141.878301 L323.953177,141.410612 L323.953177,141.410612 Z M364.488075,133.607512 L365.602236,134.177462 L365.381262,136.278204 L364.939022,136.231541 L365.365595,136.509598 L364.986445,139.785882 L363.272981,137.233936 L364.487996,133.607512 L364.488075,133.607512 Z M319.695121,147.428779 L322.615158,148.025156 L322.445523,148.596489 L319.57815,147.608281 L319.695121,147.428896 L319.695121,147.428779 Z M362.011046,141.554354 L364.543226,142.849743 L364.068542,146.376227 L361.967115,144.523386 L362.011046,141.554283 L362.011046,141.554354 Z M354.804636,158.210362 C353.051211,158.623133 351.463292,159.349581 350.071815,160.39613 C350.040852,160.420517 350.042175,160.463194 350.01333,160.485939 L350.338572,160.712221 L351.189019,163.241423 L348.395745,161.932152 C347.177977,163.343004 346.580262,164.897738 346.580262,166.68736 C346.580262,169.187485 347.738405,171.31993 350.051544,173.070158 C352.283411,174.758223 355.103785,175.677913 358.306986,175.737708 L358.296401,167.774687 L358.17943,167.954071 L357.7586,167.978223 L357.986719,167.317151 L358.269169,167.401802 L358.316275,166.707878 L358.236354,166.726637 L358.310453,166.405598 L358.266788,157.767482 C357.883668,157.774516 357.45429,157.790931 357.084218,157.820711 L357.127089,157.962342 L356.626417,158.005488 L356.605246,157.934672 C355.981542,158.004316 355.38949,158.072787 354.805033,158.210362 L354.804636,158.210362 Z M358.948632,157.757539 L358.906555,166.112392 L359.450046,166.210878 L359.077777,166.678567 L358.933813,166.485113 L358.917934,166.716319 L359.019291,166.768142 L358.90232,166.947526 L358.907613,175.746033 C360.982549,175.712032 362.895737,175.333965 364.563498,174.630755 L360.624862,173.214158 L360.878651,171.788369 L361.214982,168.370454 L362.999529,168.326135 L361.369003,168.030491 L361.558485,166.392349 L365.437048,166.76113 L366.544328,170.139652 L367.568246,167.013675 L370.562382,167.288989 C370.578261,167.093894 370.65236,166.936622 370.652095,166.736626 C370.652095,166.600622 370.715079,166.478149 370.704759,166.344795 L368.098452,165.370468 L368.135502,165.209843 L370.613378,165.759486 C370.338576,163.70468 369.146612,161.956539 367.122248,160.443379 C366.16629,159.729242 365.165448,159.165718 364.040781,158.747365 L360.140782,158.307792 L359.911075,157.831286 C359.575776,157.806899 359.292902,157.762581 358.946753,157.756719 L358.948632,157.757539 Z M353.091621,159.906751 L354.626586,160.452665 L355.241583,162.203222 L355.697928,160.881077 L356.74786,161.238697 L356.261717,164.161137 L355.72815,163.529188 L355.241583,162.203315 L354.954925,162.95415 L352.874908,161.172102 L353.091648,159.906845 L353.091621,159.906751 Z M352.817984,162.399372 L354.689676,163.775707 L354.520042,164.34704 L353.518644,164.433097 L354.430223,164.89945 L354.143565,165.650261 L352.374685,165.463373 L352.517326,164.519178 L353.518724,164.433121 L352.585736,163.896 L352.81809,162.399442 L352.817984,162.399372 Z M348.367534,164.669814 L351.574176,164.515286 L351.953723,165.487267 L348.336095,165.132368 L348.367322,164.669744 L348.367534,164.669814 Z M359.556775,162.316714 L361.65664,163.031977 L360.933511,164.038147 L358.989202,164.120453 L359.556775,162.316714 L359.556775,162.316714 Z M348.400349,165.344909 L352.146328,166.124492 L352.194757,166.568146 L352.348777,166.228136 L353.877999,166.471958 L353.289016,168.204928 L348.377564,168.384781 L348.401381,165.344862 L348.400349,165.344909 Z M355.883573,164.32685 L356.304377,164.302698 L356.214664,164.855061 L356.012214,164.751416 L355.883864,164.326733 L355.883573,164.32685 Z M362.01872,163.097798 L364.625027,164.072124 L364.694892,164.586547 L362.115737,163.985082 L361.796185,164.061057 L362.018747,163.097892 L362.01872,163.097798 Z M356.130482,165.70954 L356.332931,165.813184 L356.455724,165.935822 L356.093406,165.870165 L356.130455,165.70954 L356.130482,165.70954 Z M355.993663,166.955827 L356.798221,167.068382 L357.097873,168.05931 L355.814025,168.06067 L355.993716,166.955944 L355.993663,166.955827 Z M348.330749,169.078635 L353.140844,168.846959 L352.934161,169.578824 L352.923575,170.112217 L352.907697,170.343423 L351.47401,169.849331 L348.372694,169.220102 L348.329823,169.078471 L348.330749,169.078635 Z M355.745695,168.683708 L357.269201,168.62532 L357.456037,168.960265 L357.530136,168.639225 L357.689978,168.601238 L357.456037,168.960218 L356.750083,170.872665 L355.481902,170.642631 L356.771493,170.943364 L356.564809,171.675228 L355.413572,171.265787 L355.482114,170.642631 L355.745695,168.68345 L355.745695,168.683708 Z M363.879906,172.366362 L367.322104,172.990502 C367.691357,172.707661 367.960019,172.460838 368.269224,172.158745 L363.879906,172.366268 L363.879906,172.366362 Z" id="path3141"></path>
            </g>
        </g>
    </g>
</svg>
