<?xml version="1.0"?>
<svg xmlns="http://www.w3.org/2000/svg" xmlns:xlink="http://www.w3.org/1999/xlink" xmlns:svgjs="http://svgjs.com/svgjs" version="1.1" width="512" height="512" x="0" y="0" viewBox="0 0 512 512" style="enable-background:new 0 0 512 512" xml:space="preserve" class=""><g><path xmlns="http://www.w3.org/2000/svg" d="m285.392 212.419-78.677 78.681a6 6 0 1 0 8.484 8.484l78.677-78.684a6 6 0 1 0 -8.484-8.485z" fill="#39377c" data-original="#000000" style="" class=""/><path xmlns="http://www.w3.org/2000/svg" d="m262.444 299.581a6 6 0 0 0 8.485 0l34.356-34.356a6 6 0 1 0 -8.484-8.485l-34.357 34.36a6 6 0 0 0 0 8.481z" fill="#39377c" data-original="#000000" style="" class=""/><path xmlns="http://www.w3.org/2000/svg" d="m397.177 61.765h-282.354a6 6 0 0 0 -6 6v72.213a6 6 0 0 0 12 0v-66.213h270.354v333.1h-270.354v-226.887a6 6 0 0 0 -12 0v232.884a6 6 0 0 0 6 6h282.354a6 6 0 0 0 6-6v-345.097a6 6 0 0 0 -6-6z" fill="#39377c" data-original="#000000" style="" class=""/><path xmlns="http://www.w3.org/2000/svg" d="m412.862 10h-313.724a37.415 37.415 0 0 0 -37.373 37.373v417.255a37.415 37.415 0 0 0 37.373 37.372h313.724a37.415 37.415 0 0 0 37.373-37.372v-417.255a37.415 37.415 0 0 0 -37.373-37.373zm25.373 454.628a25.4 25.4 0 0 1 -25.373 25.372h-313.724a25.4 25.4 0 0 1 -25.373-25.372v-417.255a25.4 25.4 0 0 1 25.373-25.373h313.724a25.4 25.4 0 0 1 25.373 25.373z" fill="#39377c" data-original="#000000" style="" class=""/><path xmlns="http://www.w3.org/2000/svg" d="m272.823 444.51h-33.646a6 6 0 0 0 0 12h33.646a6 6 0 0 0 0-12z" fill="#39377c" data-original="#000000" style="" class=""/></g></svg>
