<svg width="16" height="16" viewBox="0 0 16 16" fill="none" xmlns="http://www.w3.org/2000/svg">
<path d="M12.3333 0H3.66666C2.748 0 2 0.748 2 1.66666V14.3333C2 15.252 2.748 16 3.66666 16H12.3333C13.252 16 14 15.252 14 14.3333V1.66666C14 0.748 13.252 0 12.3333 0ZM8 15C7.63266 15 7.33334 14.7007 7.33334 14.3333C7.33334 13.966 7.63269 13.6667 8 13.6667C8.36731 13.6667 8.66666 13.966 8.66666 14.3333C8.66666 14.7007 8.36734 15 8 15ZM12.6667 13C12.6667 13.184 12.5173 13.3333 12.3333 13.3333H3.66666C3.48266 13.3333 3.33331 13.184 3.33331 13V1.66666C3.33331 1.48266 3.48266 1.33331 3.66666 1.33331H12.3333C12.5173 1.33331 12.6667 1.48266 12.6667 1.66666V13Z" fill="#A0A7B9"/>
</svg>
