<svg
    xmlns="http://www.w3.org/2000/svg"
    viewBox="0 0 86 66"
    id="vector">
    <path
        id="path"
        d="M 45.13 6.76 L 43.04 66.99 L 41.18 6.75 L 45.13 6.76 Z"
        fill="#4d0598"/>
    <path
        id="path_1"
        d="M 40.36 2.76 C 40.36 3.492 40.665 4.194 41.206 4.712 C 41.748 5.229 42.484 5.52 43.25 5.52 C 44.016 5.52 44.752 5.229 45.294 4.712 C 45.835 4.194 46.14 3.492 46.14 2.76 C 46.14 2.028 45.835 1.326 45.294 0.808 C 44.752 0.291 44.016 0 43.25 0 C 42.484 0 41.748 0.291 41.206 0.808 C 40.665 1.326 40.36 2.028 40.36 2.76 Z"
        fill="#4d0598"/>
    <path
        id="path_2"
        d="M 46 9.52 L 46 17.61 C 48.55 19.34 48.32 17.97 48.26 16.42 L 52.16 17.9 C 52.64 18.07 54.16 18.61 53.87 18.21 L 53.59 17.66 L 53.47 17.46 C 53.03 16.84 51.47 14.7 51.95 14.96 L 53.66 16.57 C 55.034 17.395 56.607 17.831 58.21 17.83 L 58.35 17.83 L 54.61 13.29 L 57.14 14.7 C 59.415 15.965 62.052 16.423 64.62 16 L 64.62 16 L 58.38 11.46 L 64.54 13.67 C 66.839 14.506 69.29 14.846 71.73 14.67 L 72.33 14.67 L 62 9.72 L 70.44 12.26 C 71.985 12.729 73.595 12.952 75.21 12.92 L 78.32 12.86 L 64.16 6.91 L 76.28 10.12 C 77.193 10.361 78.137 10.459 79.08 10.41 L 86.38 10.05 L 80.51 9.43 C 78.318 9.191 76.163 8.691 74.09 7.94 L 54 0.54 C 53.31 0.287 52.556 0.266 51.853 0.479 C 51.15 0.691 50.534 1.127 50.1 1.72 L 46.42 8.31 C 46.154 8.658 46.007 9.082 46 9.52 Z"
        fill="#4d0598"/>
    <path
        id="path_3"
        d="M 40.36 9.52 L 40.36 17.61 C 37.81 19.34 38.03 17.97 38.09 16.42 L 34.19 17.9 C 33.72 18.07 32.19 18.61 32.48 18.21 L 32.76 17.66 L 32.89 17.46 C 33.33 16.84 34.89 14.7 34.41 14.96 L 32.69 16.57 C 31.319 17.394 29.749 17.829 28.15 17.83 L 28 17.83 L 31.74 13.29 L 29.21 14.7 C 26.947 15.958 24.325 16.416 21.77 16 L 21.77 16 L 28 11.45 L 21.85 13.66 C 19.547 14.496 17.094 14.837 14.65 14.66 L 14.06 14.66 L 24.37 9.72 L 15.93 12.26 C 14.385 12.729 12.775 12.952 11.16 12.92 L 8.05 12.86 L 22.22 6.91 L 10.11 10.12 C 9.194 10.361 8.246 10.459 7.3 10.41 L 0 10.05 L 5.87 9.43 C 8.062 9.192 10.217 8.692 12.29 7.94 L 32.42 0.54 C 33.11 0.287 33.864 0.266 34.567 0.479 C 35.27 0.691 35.886 1.127 36.32 1.72 L 40 8.31 C 40.239 8.668 40.365 9.09 40.36 9.52 Z"
        fill="#4d0598"/>
    <path
        id="path_4"
        d="M 49.06 32.91 C 48.82 34.18 47.49 35.59 45.06 37.1 L 44.8 37.26 L 44.54 37.42 L 44.22 37.62 C 43.85 37.84 43.52 38.03 43.22 38.23 L 42.95 38.39 L 42.7 38.55 C 40.93 39.69 40.39 40.45 40.7 41.9 C 41.194 42.982 41.922 43.942 42.83 44.71 L 42.95 44.83 L 43.02 44.92 C 43.09 44.98 43.15 45.05 43.22 45.12 L 43.79 45.73 L 43.98 45.94 C 44.048 46.005 44.112 46.076 44.17 46.15 C 45.33 47.43 46.4 48.83 46.56 50.08 C 46.72 51.33 45.31 52.78 44.02 53.82 L 43.8 54 L 43.57 54.17 L 43.28 54.41 L 43.22 54.41 L 42.99 54.58 L 42.77 54.76 C 42.531 54.941 42.31 55.146 42.11 55.37 C 41.734 56.074 41.607 56.885 41.75 57.67 C 41.634 57.132 41.597 56.579 41.64 56.03 C 41.634 55.729 41.703 55.432 41.841 55.165 C 41.979 54.898 42.182 54.669 42.43 54.5 L 42.64 54.32 L 42.86 54.14 L 42.86 54.14 L 43.22 53.83 C 43.29 53.83 43.36 53.71 43.43 53.65 L 43.64 53.46 C 43.93 53.21 44.27 52.9 44.64 52.54 C 46.93 50.32 45.64 48.87 44.64 47.83 C 44.51 47.68 44.38 47.54 44.27 47.39 C 44.16 47.24 43.85 46.92 43.58 46.65 L 43.39 46.45 C 43.32 46.39 43.26 46.32 43.19 46.25 L 42.61 45.7 L 42.41 45.51 L 42.2 45.32 L 41 44.16 C 40.408 43.595 39.996 42.868 39.816 42.07 C 39.635 41.272 39.694 40.438 39.984 39.674 C 40.275 38.909 40.785 38.247 41.45 37.77 L 41.66 37.61 L 41.66 37.61 L 41.74 37.56 L 41.93 37.44 C 42.42 37.14 42.86 36.85 43.26 36.58 L 43.5 36.41 L 43.75 36.24 C 46.33 34.45 46.9 33.56 47.07 32.98 C 47.24 32.4 45.67 31.24 43.88 30.34 L 43.57 30.18 L 43.25 30 C 42.43 29.6 41.63 29.25 40.97 29 L 40.63 28.86 L 40.29 28.73 L 39.53 28.43 C 35.62 26.93 34.41 25.94 34.94 23 C 34.987 22.681 35.1 22.376 35.272 22.104 C 35.444 21.832 35.672 21.599 35.94 21.42 C 36.743 20.955 37.663 20.73 38.59 20.77 C 38.924 20.771 39.258 20.791 39.59 20.83 C 39.697 20.988 39.763 21.17 39.784 21.36 C 39.805 21.55 39.78 21.742 39.71 21.92 C 39.25 22.97 37.12 23.44 37.09 23.44 L 36.98 23.44 L 36.92 23.53 C 36.729 23.905 36.685 24.338 36.798 24.744 C 36.911 25.149 37.173 25.498 37.53 25.72 C 38.561 26.319 39.663 26.786 40.81 27.11 L 42.49 27.72 L 42.86 27.86 L 43.25 28.01 C 44.03 28.31 44.8 28.63 45.53 29.01 L 45.85 29.17 L 46.18 29.34 C 47.045 29.748 47.828 30.31 48.49 31 C 48.728 31.251 48.904 31.555 49.003 31.887 C 49.102 32.219 49.121 32.569 49.06 32.91 Z"
        fill="#4d0598"/>
    <path
        id="path_5"
        d="M 37.32 32.91 C 37.56 34.18 38.89 35.59 41.32 37.1 L 41.58 37.26 L 41.85 37.42 L 42.16 37.62 C 42.53 37.84 42.87 38.03 43.16 38.23 L 43.42 38.39 L 43.68 38.55 C 45.44 39.69 45.98 40.45 45.68 41.9 C 45.181 42.982 44.45 43.941 43.54 44.71 L 43.42 44.83 L 43.35 44.92 L 43.16 45.12 C 42.97 45.32 42.77 45.52 42.58 45.73 L 42.39 45.94 L 42.2 46.15 C 41 47.43 40 48.83 39.79 50.08 C 39.58 51.33 41.04 52.78 42.33 53.82 L 42.56 54 L 42.78 54.17 L 43.08 54.41 L 43.14 54.41 L 43.36 54.58 L 43.58 54.76 C 43.819 54.941 44.04 55.146 44.24 55.37 C 44.619 56.073 44.75 56.884 44.61 57.67 C 44.716 57.13 44.753 56.579 44.72 56.03 C 44.722 55.729 44.65 55.432 44.511 55.165 C 44.371 54.899 44.168 54.67 43.92 54.5 L 43.71 54.32 L 43.5 54.14 L 43.5 54.14 C 43.378 54.043 43.261 53.939 43.15 53.83 L 42.93 53.65 L 42.72 53.46 C 42.43 53.21 42.1 52.9 41.72 52.54 C 39.43 50.32 40.72 48.87 41.72 47.83 C 41.86 47.68 41.98 47.54 42.1 47.39 C 42.22 47.24 42.52 46.92 42.78 46.65 L 42.97 46.45 L 43.18 46.25 L 43.75 45.7 L 43.95 45.51 L 44.16 45.32 C 44.85 44.68 45.43 44.17 45.47 44.13 C 46.049 43.561 46.449 42.836 46.623 42.043 C 46.796 41.25 46.735 40.424 46.447 39.665 C 46.159 38.906 45.656 38.248 45 37.77 L 44.78 37.61 L 44.78 37.61 L 44.7 37.56 L 44.52 37.44 C 44.03 37.14 43.59 36.85 43.19 36.58 L 42.94 36.41 L 42.69 36.24 C 40.11 34.45 39.54 33.56 39.37 32.98 C 39.2 32.4 40.77 31.24 42.56 30.34 L 42.88 30.18 L 43.19 30.04 C 44 29.64 44.81 29.29 45.46 29.04 L 45.8 28.9 L 46.14 28.77 L 46.9 28.47 C 50.81 26.97 52.02 25.98 51.49 23.04 C 51.444 22.721 51.331 22.416 51.159 22.143 C 50.986 21.871 50.758 21.638 50.49 21.46 C 49.683 20.996 48.76 20.771 47.83 20.81 C 47.496 20.81 47.162 20.83 46.83 20.87 C 46.719 21.026 46.649 21.208 46.627 21.398 C 46.604 21.589 46.629 21.782 46.7 21.96 C 47.17 23.01 49.3 23.48 49.32 23.48 L 49.44 23.48 L 49.5 23.57 C 49.687 23.946 49.728 24.378 49.615 24.782 C 49.502 25.186 49.244 25.535 48.89 25.76 C 47.856 26.36 46.751 26.827 45.6 27.15 L 43.93 27.76 L 43.55 27.9 L 43.17 28.05 C 42.39 28.35 41.61 28.67 40.88 29.05 C 40.776 29.109 40.67 29.163 40.56 29.21 L 40.24 29.38 C 39.363 29.77 38.567 30.32 37.89 31 C 37.654 31.253 37.48 31.557 37.381 31.888 C 37.282 32.219 37.261 32.569 37.32 32.91 Z"
        fill="#4d0598"/>
</svg>
