<svg width="24" height="24" viewBox="0 0 24 24" fill="none" xmlns="http://www.w3.org/2000/svg">
<path d="M12 24C18.6169 24 24 18.6169 24 12C24 5.38312 18.6169 0 12 0C5.38312 0 0 5.38312 0 12C0 18.6169 5.38312 24 12 24ZM14.0988 5.34639C14.4906 4.94801 15.1329 4.94802 15.5247 5.34643L18.2296 8.09678C18.5716 8.44452 18.5654 9.00408 18.2159 9.34424C17.869 9.68192 17.3144 9.67582 16.9749 9.33058L15.6949 8.02875V13.7928C15.6949 14.2807 15.2994 14.6761 14.8116 14.6761C14.3237 14.6761 13.9282 14.2807 13.9282 13.7928V8.02875L12.6482 9.3306C12.3088 9.67582 11.7542 9.68192 11.4072 9.34425C11.0577 9.00409 11.0516 8.44452 11.3936 8.0968L14.0988 5.34639ZM5.78406 14.6828C6.13103 14.3451 6.68564 14.3512 7.02511 14.6964L8.30512 15.9982V10.2342C8.30512 9.74635 8.7006 9.35087 9.18844 9.35087C9.67628 9.35087 10.0717 9.74635 10.0717 10.2342V15.9982L11.3518 14.6964C11.6912 14.3512 12.2458 14.3451 12.5928 14.6827C12.9423 15.0229 12.9484 15.5825 12.6064 15.9302L9.90088 18.6806C9.50903 19.079 8.86676 19.079 8.47497 18.6805L5.77037 15.9302C5.42841 15.5825 5.43455 15.0229 5.78406 14.6828Z" fill="#1BBD9F"/>
</svg>
