<svg width="14" height="16" viewBox="0 0 14 16" fill="none" xmlns="http://www.w3.org/2000/svg">
<path d="M2.99975 12.0203L4.57348 14.8954C4.91308 15.5164 5.677 15.7464 6.28112 15.378C6.8789 15.0137 7.08435 14.2081 6.73852 13.5771L5.80102 11.8643L6.61291 11.3699C6.76232 11.2788 6.81359 11.0773 6.72729 10.9197L6.32092 10.1773C6.36938 10.1674 6.68798 10.1015 12.3065 8.93905C13.0011 8.89927 13.4172 8.09809 13.0664 7.45757L12.0278 5.56037L12.6915 4.50015C12.7567 4.39586 12.7606 4.26184 12.7014 4.15369L12.0764 3.01197C12.0172 2.90383 11.9048 2.84048 11.787 2.84782L10.5847 2.92391L9.43176 0.817627C9.26477 0.512499 8.96557 0.327748 8.63159 0.323371C8.62756 0.323242 8.62365 0.323242 8.61962 0.323242C8.29687 0.323242 8.0039 0.492672 7.83032 0.779132L3.74804 6.26397L1.09411 7.87999C0.050288 8.51535 -0.311284 9.9277 0.293452 11.0316C0.845942 12.0409 2.01074 12.438 2.99975 12.0203ZM6.19738 13.9068C6.36999 14.2218 6.26782 14.6247 5.96838 14.8072C5.66796 14.9904 5.2854 14.8779 5.11474 14.5659L3.55224 11.7112L4.63476 11.052C6.44311 14.3559 6.16833 13.8539 6.19738 13.9068ZM5.48852 11.2933L5.17602 10.7224L5.71728 10.3929L6.02978 10.9637L5.48852 11.2933ZM11.6317 3.51795L12.0636 4.3069L11.6785 4.92205L10.9341 3.56211L11.6317 3.51795ZM8.35302 1.14052C8.43688 0.995811 8.56994 0.980877 8.6239 0.982422C8.67724 0.983066 8.81018 1.00058 8.89038 1.14709L12.5251 7.78716C12.6435 8.00333 12.4996 8.27511 12.2622 8.28129C12.2196 8.28232 12.1999 8.29043 12.0908 8.31193L8.24597 1.28819C8.32666 1.17876 8.33703 1.1682 8.35302 1.14052ZM7.83007 1.84695L11.4425 8.44609L5.9906 9.5739L4.33288 6.54567L7.83007 1.84695ZM0.834712 10.702C0.697505 10.4516 0.624995 10.1673 0.624995 9.87967C0.624995 9.29182 0.924556 8.74439 1.40661 8.45085L3.84228 6.9677L5.40478 9.82199L2.96911 11.3053C2.2229 11.7595 1.2655 11.4889 0.834712 10.702Z" fill="white"/>
</svg>
