<?xml version="1.0"?>
<svg xmlns="http://www.w3.org/2000/svg" xmlns:xlink="http://www.w3.org/1999/xlink" xmlns:svgjs="http://svgjs.com/svgjs" version="1.1" width="512" height="512" x="0" y="0" viewBox="0 0 64 64" style="enable-background:new 0 0 512 512" xml:space="preserve" class=""><g><g xmlns="http://www.w3.org/2000/svg"><path d="m17 44h2v2h-2z" fill="#717889" data-original="#000000" style="" class=""/><path d="m13 44h2v2h-2z" fill="#717889" data-original="#000000" style="" class=""/><path d="m45 38h8v2h-8z" fill="#717889" data-original="#000000" style="" class=""/><path d="m44.877 33h8.246v2h-8.246z" transform="matrix(.97 -.243 .243 .97 -6.786 12.906)" fill="#717889" data-original="#000000" style="" class=""/><path d="m48 39.877h2v8.246h-2z" transform="matrix(.243 -.97 .97 .243 -5.571 80.865)" fill="#717889" data-original="#000000" style="" class=""/><path d="m60 1h-20c-1.654 0-3 1.346-3 3v5h-4v-3c0-1.654-1.346-3-3-3h-20c-1.654 0-3 1.346-3 3v12c0 1.654 1.346 3 3 3h6v2.723c0 1.256 1.021 2.277 2.277 2.277h.109c.696 0 1.344-.312 1.778-.855l3.316-4.145h3.52v4.574c-3.16 1.585-6.638 2.426-10.211 2.426h-8.789c-3.86 0-7 3.14-7 7v8c0 3.519 2.613 6.432 6 6.92v9.608c0 1.914 1.558 3.472 3.472 3.472h3.056c1.914 0 3.472-1.558 3.472-3.472 0-1.324-.736-2.514-1.919-3.105l-.081-.041v-6.382h1.789c4.345 0 8.552 1.236 12.211 3.558v.442c0 1.654 1.346 3 3 3h2c1.654 0 3-1.346 3-3v-7.279l6-2v-11.442l-6-2v-4.279h4v2.723c0 1.256 1.021 2.277 2.277 2.277.795 0 1.543-.424 1.953-1.105l2.336-3.895h2.434c1.654 0 3-1.346 3-3v-2.39l.771 1.284c.409.682 1.157 1.106 1.952 1.106 1.256 0 2.277-1.021 2.277-2.277v-2.723h2c1.654 0 3-1.346 3-3v-12c0-1.654-1.346-3-3-3zm-37.48 18-3.917 4.896c-.054.066-.132.104-.217.104h-.109c-.153 0-.277-.124-.277-.277v-4.723h-8c-.551 0-1-.449-1-1v-12c0-.551.449-1 1-1h20c.551 0 1 .449 1 1v3h-1c-1.654 0-3 1.346-3 3v7zm-18.494 27h2.974v-2h-3.899c-.066-.323-.101-.658-.101-1v-1h4v-2h-4v-2h4v-2h-4v-1c0-.342.035-.677.101-1h3.899v-2h-2.974c.913-1.207 2.347-2 3.974-2h1v18h-1c-1.627 0-3.061-.793-3.974-2zm10.161 12.211c.501.251.813.755.813 1.317 0 .811-.661 1.472-1.472 1.472h-3.056c-.811 0-1.472-.661-1.472-1.472v-9.528h4v7.618zm-3.187-10.211v-18h2v7c0 2.757 2.243 5 5 5h2c.551 0 1 .449 1 1v5.372c-1.383-.237-2.789-.372-4.211-.372zm12 .803v-5.803c0-1.654-1.346-3-3-3h-2c-1.654 0-3-1.346-3-3v-7h1.789c4.305 0 8.491-1.106 12.211-3.212v24.423c-1.893-1.071-3.911-1.868-6-2.408zm12 5.197c0 .551-.449 1-1 1h-2c-.551 0-1-.449-1-1v-30c0-.551.449-1 1-1h2c.551 0 1 .449 1 1zm6-19.279v8.559l-4 1.333v-11.225zm10-10.721c0 .551-.449 1-1 1h-3.566l-2.919 4.865c-.128.215-.515.108-.515-.142v-4.723h-6v-1c0-1.654-1.346-3-3-3h-2c-1.654 0-3 1.346-3 3v-12c0-.551.449-1 1-1h20c.551 0 1 .449 1 1zm10-8c0 .551-.449 1-1 1h-4v4.723c0 .25-.386.356-.515.142l-2.485-4.142v-5.723c0-1.654-1.346-3-3-3h-11v-5c0-.551.449-1 1-1h20c.551 0 1 .449 1 1z" fill="#717889" data-original="#000000" style="" class=""/><path d="m31 13h2v2h-2z" fill="#717889" data-original="#000000" style="" class=""/><path d="m35 13h14v2h-14z" fill="#717889" data-original="#000000" style="" class=""/><path d="m31 17h18v2h-18z" fill="#717889" data-original="#000000" style="" class=""/><path d="m43 21h2v2h-2z" fill="#717889" data-original="#000000" style="" class=""/><path d="m47 21h2v2h-2z" fill="#717889" data-original="#000000" style="" class=""/><path d="m39 21h2v2h-2z" fill="#717889" data-original="#000000" style="" class=""/><path d="m11 7h2v2h-2z" fill="#717889" data-original="#000000" style="" class=""/><path d="m15 7h10v2h-10z" fill="#717889" data-original="#000000" style="" class=""/><path d="m11 11h14v2h-14z" fill="#717889" data-original="#000000" style="" class=""/><path d="m11 15h14v2h-14z" fill="#717889" data-original="#000000" style="" class=""/><path d="m41 5h18v2h-18z" fill="#717889" data-original="#000000" style="" class=""/><path d="m55 9h4v2h-4z" fill="#717889" data-original="#000000" style="" class=""/><path d="m55 13h4v2h-4z" fill="#717889" data-original="#000000" style="" class=""/></g></g></svg>
