<svg width="60" height="60" viewBox="0 0 60 60" fill="none" xmlns="http://www.w3.org/2000/svg">
<circle opacity="0.15" cx="30" cy="30" r="30" fill="#A0A7B9"/>
<path d="M41.8589 18.6297H39.5784V17.0731C39.5784 15.9282 38.6503 15 37.5053 15H37.4224C36.2774 15 35.3492 15.9282 35.3492 17.0731V18.6297H24.6518V17.0731C24.6518 15.9282 23.7236 15 22.5787 15H22.4958C21.3508 15 20.4226 15.9282 20.4226 17.0731V18.6297H18.1422C16.9972 18.6297 16.069 19.5578 16.069 20.7028V42.9269C16.069 44.072 16.9972 45 18.1422 45H41.8589C43.0039 45 43.932 44.072 43.932 42.9269V20.7028C43.932 19.5578 43.0038 18.6297 41.8589 18.6297ZM40.4492 41.7244H19.5519V24.8905H40.4492V41.7244Z" fill="#A0A7B9"/>
<path d="M22.3922 32.5085H25.9993C26.1825 32.5085 26.331 32.36 26.331 32.1768V28.5697C26.331 28.3866 26.1825 28.238 25.9993 28.238H22.3922C22.209 28.238 22.0605 28.3866 22.0605 28.5697V32.1768C22.0605 32.36 22.209 32.5085 22.3922 32.5085Z" fill="#A0A7B9"/>
<path d="M28.1972 32.5085H31.8043C31.9875 32.5085 32.136 32.36 32.136 32.1768V28.5697C32.136 28.3866 31.9875 28.238 31.8043 28.238H28.1972C28.014 28.238 27.8655 28.3866 27.8655 28.5697V32.1768C27.8655 32.36 28.014 32.5085 28.1972 32.5085Z" fill="#A0A7B9"/>
<path d="M34.0013 32.5085H37.6084C37.7916 32.5085 37.9401 32.36 37.9401 32.1768V28.5697C37.9401 28.3866 37.7916 28.238 37.6084 28.238H34.0013C33.8181 28.238 33.6696 28.3866 33.6696 28.5697V32.1768C33.6696 32.36 33.8181 32.5085 34.0013 32.5085Z" fill="#A0A7B9"/>
<path d="M22.3922 38.3132H25.9993C26.1825 38.3132 26.331 38.1647 26.331 37.9815V34.3744C26.331 34.1912 26.1825 34.0427 25.9993 34.0427H22.3922C22.209 34.0427 22.0605 34.1912 22.0605 34.3744V37.9815C22.0605 38.1647 22.209 38.3132 22.3922 38.3132Z" fill="#A0A7B9"/>
<path d="M28.1972 38.3132H31.8043C31.9875 38.3132 32.136 38.1647 32.136 37.9815V34.3744C32.136 34.1912 31.9875 34.0427 31.8043 34.0427H28.1972C28.014 34.0427 27.8655 34.1912 27.8655 34.3744V37.9815C27.8655 38.1647 28.014 38.3132 28.1972 38.3132Z" fill="#A0A7B9"/>
<path d="M34.0013 38.3132H37.6084C37.7916 38.3132 37.9401 38.1647 37.9401 37.9815V34.3744C37.9401 34.1912 37.7916 34.0427 37.6084 34.0427H34.0013C33.8181 34.0427 33.6696 34.1912 33.6696 34.3744V37.9815C33.6696 38.1647 33.8181 38.3132 34.0013 38.3132Z" fill="#A0A7B9"/>
</svg>
