<?xml version="1.0" encoding="UTF-8"?>
<svg width="492px" height="496px" viewBox="0 0 492 496" version="1.1" xmlns="http://www.w3.org/2000/svg" xmlns:xlink="http://www.w3.org/1999/xlink">
    <!-- Generator: Sketch 63.1 (92452) - https://sketch.com -->
    <title>Design/iOS/antibiotic</title>
    <desc>Created with Sketch.</desc>
    <g id="Page-1" stroke="none" stroke-width="1" fill="none" fill-rule="evenodd">
        <g id="antibiotic" fill="#6861AC" fill-rule="nonzero">
            <path d="M190,425.368 C190,442.264 203.736,456 220.632,456 C228.808,456 236.504,452.816 242.288,447.024 L293.032,396.28 C298.816,390.504 302,382.808 302,374.632 C302,357.736 288.264,344 271.368,344 C263.192,344 255.496,347.184 249.712,352.976 L198.968,403.72 C193.184,409.504 190,417.192 190,425.368 L190,425.368 Z M261.024,364.288 C263.792,361.52 267.464,360 271.368,360 C279.44,360 286,366.56 286,374.632 C286,378.536 284.48,382.208 281.712,384.976 L262,404.688 L241.312,384 L261.024,364.288 Z M210.288,415.024 L230,395.312 L250.688,416 L230.976,435.712 C228.208,438.48 224.536,440 220.632,440 C212.56,440 206,433.44 206,425.368 C206,421.464 207.52,417.792 210.288,415.024 Z" id="Shape"></path>
            <polygon id="Path" points="214 344 230 344 230 360 214 360"></polygon>
            <polygon id="Path" points="182 376 198 376 198 392 182 392"></polygon>
            <polygon id="Path" points="262 448 278 448 278 464 262 464"></polygon>
            <polygon id="Path" points="294 416 310 416 310 432 294 432"></polygon>
            <path d="M238,144 L222,144 C222,148.408 218.408,152 214,152 C209.592,152 206,148.408 206,144 L190,144 C190,157.232 200.768,168 214,168 C227.232,168 238,157.232 238,144 Z" id="Path"></path>
            <path d="M278,168 C291.232,168 302,157.232 302,144 L286,144 C286,148.408 282.408,152 278,152 C273.592,152 270,148.408 270,144 L254,144 C254,157.232 264.768,168 278,168 Z" id="Path"></path>
            <path d="M222,200 C222,213.232 232.768,224 246,224 C259.232,224 270,213.232 270,200 L254,200 C254,204.408 250.408,208 246,208 C241.592,208 238,204.408 238,200 L222,200 Z" id="Path"></path>
            <path d="M367.904,288.84 L315.928,276.84 C306.76,274.728 299.632,267.392 297.792,258.168 L294.408,241.24 C311.424,229.44 323.2,211.936 327.744,192 L334,192 C351.648,192 366,177.648 366,160 C366,153.448 364.008,147.352 360.608,142.28 L365.008,111.44 C365.664,106.888 366,102.24 366,97.632 C366,94.448 365.776,91.04 365.376,87.376 C365.744,84.96 366,82.512 366,80 L366,79.064 C366,64.552 359.384,51.56 349.024,42.92 C330.776,16.048 300.84,-5.68434189e-14 268.368,-5.68434189e-14 L223.624,-5.68434189e-14 C169.8,-5.68434189e-14 126,43.8 126,97.632 C126,102.24 126.336,106.888 126.984,111.44 L131.384,142.28 C127.992,147.352 126,153.448 126,160 C126,177.648 140.352,192 158,192 L164.272,192 C168.808,211.936 180.576,229.44 197.592,241.24 L194.208,258.176 C192.368,267.4 185.24,274.736 176.064,276.848 L124.096,288.848 C101.528,294.056 82.032,307.536 69.184,326.8 C59.248,341.696 54,359.04 54,376.96 L54,496 L438,496 L438,376.96 C438,359.048 432.752,341.704 422.816,326.8 C409.968,307.528 390.472,294.048 367.904,288.84 Z M334,128 L333.448,128 C333.48,127.12 333.536,126.24 333.56,125.36 C338.848,123.544 343.728,120.84 348,117.408 L346.144,130.424 C342.392,128.88 338.304,128 334,128 Z M334,176 L330.04,176 L330.776,168.64 C331.592,160.48 332.256,152.248 332.76,144 L334,144 C342.824,144 350,151.176 350,160 C350,168.824 342.824,176 334,176 L334,176 Z M223.632,16 L268.376,16 C286.184,16 303.064,21.808 316.912,32.112 C299.776,32.696 286,46.728 286,64 C286,81.648 300.352,96 318,96 L334,96 L334,80 L318,80 C309.176,80 302,72.824 302,64 C302,55.176 309.168,48 317.984,48 L318.92,48 C336.056,48 350,61.936 350,79.064 L350,80 C350,97.648 335.648,112 318,112 L256.128,112 C246.136,112 238,103.872 238,93.872 C238,90.168 239.448,86.68 242.064,84.056 C244.68,81.432 248.168,80 251.88,80 L270,80 L270,64 L251.888,64 L251.88,64 C243.904,64 236.4,67.104 230.76,72.744 C225.112,78.392 222,85.896 222,93.872 C222,94.6 222.168,95.28 222.216,96 L196.128,96 C177.2,96 161.576,109.896 158.624,128 L158,128 C153.696,128 149.608,128.88 145.856,130.424 L142.824,109.168 C142.28,105.36 142,101.48 142,97.632 C142,52.616 178.616,16 223.632,16 L223.632,16 Z M142,160 C142,151.176 149.176,144 158,144 L158.808,144 L161.984,176 L158,176 C149.176,176 142,168.824 142,160 L142,160 Z M178.48,180.208 L174.168,136.864 C174.056,135.952 174,135.04 174,134.128 C174,121.928 183.928,112 196.128,112 L227.328,112 C233.376,121.576 243.984,128 256.128,128 L317.44,128 C316.944,141.048 316.152,154.136 314.856,167.04 L313.536,180.208 C311.552,200.048 300.896,217.776 284.304,228.84 C273.36,236.144 260.624,240 247.48,240 L244.52,240 C231.368,240 218.64,236.144 207.704,228.856 C191.104,217.792 180.456,200.056 178.48,180.208 L178.48,180.208 Z M254,320.104 L260.552,321.304 C298.48,328.272 326,361.368 326,400 C326,444.112 290.112,480 246,480 C201.888,480 166,444.112 166,400 C166,361.368 193.52,328.272 231.448,321.312 L238,320.104 L238,255.52 C240.168,255.688 242.32,256 244.512,256 L247.472,256 C249.664,256 251.816,255.696 253.992,255.52 L254,320.104 Z M134,480 L134,373.576 L116.656,347.56 L103.344,356.432 L118,378.424 L118,480 L70,480 L70,376.96 C70,362.216 74.328,347.944 82.504,335.672 C93.072,319.816 109.128,308.72 127.696,304.44 L179.664,292.44 C194.952,288.912 206.824,276.688 209.896,261.312 L212.304,249.264 C215.472,250.616 218.688,251.84 222,252.776 L222,307.008 C179.896,317.808 150,355.896 150,400 C150,433.368 167.136,462.792 193.048,480 L134,480 Z M422,480 L374,480 L374,378.424 L388.656,356.44 L375.344,347.568 L358,373.576 L358,480 L298.952,480 C324.864,462.792 342,433.368 342,400 C342,355.896 312.104,317.808 270,307.008 L269.992,252.776 C273.304,251.832 276.52,250.616 279.696,249.256 L282.104,261.304 C285.176,276.688 297.048,288.912 312.328,292.44 L364.304,304.44 C382.872,308.728 398.928,319.816 409.496,335.672 C417.672,347.936 422,362.216 422,376.96 L422,480 Z" id="Shape"></path>
            <path d="M86,96 C99.232,96 110,85.232 110,72 C110,58.768 99.232,48 86,48 C72.768,48 62,58.768 62,72 C62,85.232 72.768,96 86,96 Z M86,64 C90.408,64 94,67.592 94,72 C94,76.408 90.408,80 86,80 C81.592,80 78,76.408 78,72 C78,67.592 81.592,64 86,64 Z" id="Shape"></path>
            <path d="M44.656,228.44 L54.016,214.4 C57.016,215.36 60.136,216 63.376,216 C68.912,216 74.04,214.408 78.52,211.832 L96.344,229.656 L107.656,218.344 L89.832,200.52 C92.408,196.032 94,190.904 94,185.368 C94,182.128 93.368,179.008 92.4,176.008 L106.44,166.648 L97.568,153.336 L83.824,162.496 L67.496,146.168 L76.656,132.424 L63.344,123.552 L53.984,137.6 C50.984,136.64 47.864,136 44.624,136 C39.088,136 33.96,137.592 29.48,140.168 L11.656,122.344 L0.344,133.656 L18.168,151.48 C15.592,155.968 14,161.096 14,166.632 C14,169.872 14.632,172.992 15.6,175.992 L1.56,185.352 L10.432,198.664 L24.176,189.504 L40.504,205.832 L31.344,219.576 L44.656,228.44 Z M30,166.632 C30,158.56 36.56,152 44.632,152 C48.536,152 52.208,153.52 54.976,156.288 L73.72,175.032 C76.48,177.792 78,181.464 78,185.368 C78,193.44 71.44,200 63.368,200 C59.464,200 55.792,198.48 53.024,195.712 L34.28,176.968 C31.52,174.208 30,170.536 30,166.632 Z" id="Shape"></path>
            <path d="M480.344,178.344 L462.52,196.168 C458.032,193.592 452.904,192 447.368,192 C444.128,192 441.008,192.632 438.008,193.6 L428.648,179.56 L415.336,188.432 L424.496,202.176 L408.168,218.504 L394.424,209.344 L385.552,222.656 L399.592,232.016 C398.632,235.016 397.992,238.136 397.992,241.376 C397.992,246.912 399.584,252.04 402.16,256.52 L384.336,274.344 L395.648,285.656 L413.472,267.832 C417.968,270.408 423.096,272 428.632,272 C431.872,272 434.992,271.368 437.992,270.4 L447.352,284.44 L460.664,275.568 L451.504,261.824 L467.832,245.496 L481.576,254.656 L490.448,241.344 L476.408,231.984 C477.368,228.984 478.008,225.864 478.008,222.624 C478.008,217.088 476.416,211.96 473.84,207.48 L491.664,189.656 L480.344,178.344 Z M438.976,251.712 C436.208,254.48 432.536,256 428.632,256 C420.56,256 414,249.44 414,241.368 C414,237.464 415.52,233.792 418.288,231.024 L437.032,212.28 C439.792,209.52 443.464,208 447.368,208 C455.44,208 462,214.56 462,222.632 C462,226.536 460.48,230.208 457.712,232.976 L438.976,251.712 Z" id="Shape"></path>
            <polygon id="Path" transform="translate(53.962828, 279.973172) rotate(-45.000000) translate(-53.962828, -279.973172) " points="31.3382451 271.97438 76.5874109 271.97438 76.5874109 287.971964 31.3382451 287.971964"></polygon>
            <polygon id="Path" transform="translate(469.946828, 56.050828) rotate(-45.000000) translate(-469.946828, -56.050828) " points="461.948036 33.4262451 477.94562 33.4262451 477.94562 78.6754109 461.948036 78.6754109"></polygon>
            <path d="M406,144 C419.232,144 430,133.232 430,120 C430,106.768 419.232,96 406,96 C392.768,96 382,106.768 382,120 C382,133.232 392.768,144 406,144 Z M406,112 C410.408,112 414,115.592 414,120 C414,124.408 410.408,128 406,128 C401.592,128 398,124.408 398,120 C398,115.592 401.592,112 406,112 Z" id="Shape"></path>
        </g>
    </g>
</svg>