<?xml version="1.0" encoding="UTF-8"?>
<svg width="496px" height="496px" viewBox="0 0 496 496" version="1.1" xmlns="http://www.w3.org/2000/svg" xmlns:xlink="http://www.w3.org/1999/xlink">
    <!-- Generator: Sketch 63.1 (92452) - https://sketch.com -->
    <title>Design/iOS/content-management-system</title>
    <desc>Created with Sketch.</desc>
    <g id="Page-1" stroke="none" stroke-width="1" fill="none" fill-rule="evenodd">
        <g id="content-management-system" fill="#A0A7B9" fill-rule="nonzero">
            <circle id="Oval" cx="120" cy="239.992" r="8"></circle>
            <path d="M224,25.864 L224,102.128 L287.552,64 L224,25.864 Z M240,54.136 L256.448,64 L240,73.864 L240,54.136 Z" id="Shape"></path>
            <path d="M496,128 L397.744,128 C375.168,99.84 345.664,78.936 311.84,67.024 C311.896,66.016 312,65.024 312,64 C312,28.712 283.288,0 248,0 C212.712,0 184,28.712 184,64 C184,65.032 184.104,66.04 184.152,67.064 C144.136,81.184 109.904,108.192 86.752,144 L81.936,144 C36.76,144 2.84217094e-14,180.76 2.84217094e-14,225.944 C2.84217094e-14,252.352 12.832,277.28 34.32,292.616 L56,308.104 L56,313.96 L40.616,318.36 C16.696,325.184 2.84217094e-14,347.328 2.84217094e-14,372.2 L2.84217094e-14,496 L144,496 L144,434.968 C145.256,433.912 146.488,432.824 147.664,431.648 L160.488,418.824 C187.424,432.64 217.528,440 248,440 C253.328,440 258.672,439.696 264,439.256 L264,445.608 L274.568,449.44 L269.808,459.624 L300.368,490.184 L310.552,485.416 L314.392,496 L357.6,496 L361.44,485.432 L371.624,490.2 L402.184,459.64 L397.424,449.456 L408,445.608 L408,402.392 L397.432,398.56 L402.192,388.376 L390.472,376.656 C405.632,359.912 417.528,340.904 425.968,320.008 L448,320.008 L448,288.008 L496,288.008 L496,128 Z M248,16 C274.472,16 296,37.528 296,64 C296,90.472 274.472,112 248,112 C221.528,112 200,90.472 200,64 C200,37.528 221.528,16 248,16 Z M43.616,279.6 C26.328,267.248 16,247.192 16,225.944 C16,189.584 45.584,160 81.944,160 L144,160 C152.824,160 160,167.176 160,176 C160,191.664 136.96,191.984 135.976,191.992 L80,191.992 C66.768,191.992 56,202.76 56,215.992 L56,225.36 C46.688,228.664 40,237.56 40,247.992 L40,249.368 C40,255.776 42.496,261.808 47.032,266.336 L56,275.304 L56,288.448 L43.616,279.6 Z M116.688,303.992 L88,303.992 L88,319.992 L104,319.992 L104,332.68 L96,340.688 L72,316.68 L72,268.68 L58.344,255.024 C56.856,253.528 56,251.472 56,249.368 L56,247.992 C56,243.576 59.592,239.992 64,239.992 L72,239.992 L72,215.992 C72,211.576 75.592,207.992 80,207.992 L131.784,207.992 C137.056,216.128 150.168,238.864 151.824,266.28 L128,274.224 L128,292.68 L116.688,303.992 Z M45.008,333.752 L61.672,328.984 L96,363.312 L112,347.312 L120.968,356.288 C123.248,358.568 125.072,361.336 126.272,364.328 L126.448,366.24 L110.608,382.08 C110.408,381.968 110.208,381.856 110.008,381.744 L49.576,348.176 C44.664,345.44 39.112,344 33.104,344 C31.096,344 29.152,344.248 27.248,344.592 C32.032,339.592 38.056,335.736 45.008,333.752 Z M128,480 L16,480 L16,405.36 C16.424,405.616 16.816,405.92 17.248,406.152 L81.464,441.184 C89.648,445.648 98.88,448 108.192,448 C115.08,448 121.752,446.712 128,444.336 L128,480 Z M136.344,420.336 C128.824,427.856 118.824,432 108.184,432 C101.544,432 94.952,430.32 89.12,427.144 L24.904,392.112 C19.416,389.112 16,383.36 16,377.104 C16,367.672 23.672,360 33.496,360 C36.392,360 39.264,360.744 41.8,362.152 L102.232,395.72 C105.504,397.544 108.488,399.792 111.104,402.408 L122.344,413.656 L133.664,402.344 L123.32,391.992 L176,339.312 L196.688,360 L136.344,420.336 Z M211.312,352 L187.312,328 L206.848,308.472 C209.688,305.632 213.616,304 217.632,304 C223.448,304 228.672,307.224 231.272,312.432 L235.056,320 L248,320 C252.408,320 256,323.584 256,328 L256,344 C256,348.416 252.408,352 248,352 L211.312,352 Z M392,434.392 L385.416,436.792 L381.84,438.488 L378.456,446.64 L382.952,456.248 L368.256,470.952 L358.672,466.472 L350.024,470.032 L346.392,480 L325.6,480 L323.208,473.416 L321.576,469.872 L313.328,466.472 L303.744,470.952 L289.048,456.248 L293.544,446.64 L289.968,438.024 L280,434.392 L280,413.608 L286.584,411.208 L290.16,409.512 L293.544,401.36 L289.048,391.752 L303.744,377.048 L313.344,381.528 L321.984,377.968 L325.608,368 L346.4,368 L348.792,374.584 L350.416,378.12 L358.664,381.528 L368.264,377.048 L382.96,391.752 L378.464,401.36 L382.04,409.976 L392,413.608 L392,434.392 Z M379.008,365.184 L371.632,357.808 L361.448,362.576 L357.608,352 L314.4,352 L310.56,362.568 L300.376,357.8 L269.816,388.36 L274.576,398.544 L264,402.392 L264,423.136 C232.704,425.928 200.744,420.296 172.432,406.872 L211.312,368 L248,368 C261.232,368 272,357.232 272,344 L272,328 C272,314.768 261.232,304 248,304 L244.904,304 C239.384,294.096 229.064,288 217.624,288 C209.28,288 201.432,291.248 195.528,297.16 L176,316.688 L138.88,353.808 C137.08,350.584 134.896,347.576 132.288,344.976 L120,332.68 L120,319.992 L123.312,319.992 L144,299.304 L144,285.76 L168,277.76 L168,271.992 C168,243.688 156.96,219.472 149.368,206.144 C151.136,205.696 152.96,205.176 154.808,204.48 C168.472,199.368 176,189.248 176,176 C176,158.352 161.648,144 144,144 L106.056,144 C126.464,116.168 154.592,95.048 186.912,83.08 C195.048,109.08 219.352,128 248,128 C276.672,128 301,109.048 309.112,83.016 C334.912,92.552 357.888,107.856 376.632,128 L352,128 L352,176 L320,176 L320,320 L408.408,320 C401.008,336.512 391.16,351.632 379.008,365.184 L379.008,365.184 Z M432,304 L336,304 L336,192 L432,192 L432,304 Z M480,272 L448,272 L448,176 L368,176 L368,144 L480,144 L480,272 Z" id="Shape"></path>
            <polygon id="Path" points="352 208 416 208 416 224 352 224"></polygon>
            <polygon id="Path" points="352 240 416 240 416 256 352 256"></polygon>
            <polygon id="Path" points="352 272 416 272 416 288 352 288"></polygon>
            <path d="M336,384 C313.944,384 296,401.944 296,424 C296,446.056 313.944,464 336,464 C358.056,464 376,446.056 376,424 C376,401.944 358.056,384 336,384 Z M336,448 C322.768,448 312,437.232 312,424 C312,410.768 322.768,400 336,400 C349.232,400 360,410.768 360,424 C360,437.232 349.232,448 336,448 Z" id="Shape"></path>
        </g>
    </g>
</svg>