<?xml version="1.0" encoding="UTF-8"?>
<svg width="496px" height="496px" viewBox="0 0 496 496" version="1.1" xmlns="http://www.w3.org/2000/svg" xmlns:xlink="http://www.w3.org/1999/xlink">
    <!-- Generator: Sketch 63.1 (92452) - https://sketch.com -->
    <title>Design/iOS/framework</title>
    <desc>Created with Sketch.</desc>
    <g id="Page-1" stroke="none" stroke-width="1" fill="none" fill-rule="evenodd">
        <g id="framework" transform="translate(-1.000000, 0.000000)" fill="#39377C" fill-rule="nonzero">
            <path d="M273,56 C273,42.768 262.232,32 249,32 C235.768,32 225,42.768 225,56 C225,69.232 235.768,80 249,80 C262.232,80 273,69.232 273,56 Z M241,56 C241,51.584 244.592,48 249,48 C253.408,48 257,51.584 257,56 C257,60.416 253.408,64 249,64 C244.592,64 241,60.416 241,56 Z" id="Shape"></path>
            <path d="M45,323.2 C33.536,329.824 29.6,344.528 36.208,355.992 C40.648,363.68 48.728,367.984 57.04,367.984 C61.104,367.984 65.224,366.952 69,364.784 C80.456,358.16 84.392,343.456 77.784,331.992 C71.16,320.536 56.448,316.592 45,323.2 Z M61,350.92 C57.168,353.136 52.272,351.808 50.072,347.992 C47.864,344.168 49.184,339.264 53,337.064 C56.816,334.856 61.72,336.184 63.92,339.992 C66.128,343.816 64.808,348.72 61,350.92 Z" id="Shape"></path>
            <path d="M453,323.2 C441.544,316.6 426.832,320.544 420.216,331.992 C413.6,343.456 417.544,358.16 429,364.784 L429.008,364.784 C432.776,366.952 436.896,367.984 440.96,367.984 C449.264,367.984 457.352,363.68 461.792,355.992 C468.408,344.528 464.464,329.832 453,323.2 L453,323.2 Z M447.936,347.992 C445.736,351.816 440.824,353.136 437.016,350.92 C433.192,348.72 431.88,343.808 434.088,339.992 C436.288,336.168 441.192,334.84 445.008,337.064 C448.824,339.264 450.144,344.168 447.936,347.992 Z" id="Shape"></path>
            <path d="M469.008,295.496 C456.056,288.016 440.976,286.008 426.512,289.904 C413.576,293.368 402.576,301.184 395.032,312.072 L337,283.048 L337,212.944 L425.656,168.608 C430.968,175.392 438.176,180.36 446.648,182.632 C450.096,183.56 453.592,184.016 457.064,184.016 C463.992,184.016 470.832,182.192 477,178.64 C486.256,173.296 492.872,164.672 495.64,154.352 C498.408,144.032 496.984,133.248 491.64,124 C486.296,114.752 477.672,108.136 467.352,105.368 C457.04,102.576 446.256,104.024 437,109.36 C427.744,114.704 421.128,123.328 418.36,133.648 C416.512,140.536 416.696,147.592 418.504,154.296 L337,195.056 L337,144 L257,144 L257,111.36 C284.096,107.456 305,84.152 305,56 C305,25.128 279.88,-5.68434189e-14 249,-5.68434189e-14 C218.12,-5.68434189e-14 193,25.128 193,56 C193,84.152 213.904,107.456 241,111.36 L241,144 L161,144 L161,195.048 L79.496,154.296 C81.304,147.592 81.488,140.536 79.64,133.648 C76.872,123.328 70.256,114.704 61,109.36 C51.744,104.024 40.96,102.576 30.648,105.368 C20.328,108.136 11.704,114.752 6.36,124 C1.016,133.248 -0.408,144.032 2.36,154.352 C5.128,164.672 11.744,173.296 21,178.64 C27.168,182.192 34,184.016 40.936,184.016 C44.416,184.016 47.912,183.56 51.352,182.632 C59.824,180.36 67.032,175.392 72.336,168.608 L161,212.936 L161,283.04 L102.96,312.056 C95.424,301.168 84.416,293.352 71.48,289.888 C57.032,286.008 41.944,288 28.984,295.48 C2.248,310.928 -6.952,345.24 8.48,371.984 C18.84,389.928 37.696,399.976 57.072,399.976 C66.568,399.976 76.184,397.56 84.976,392.48 C108.36,378.976 118.328,351.032 110.136,326.352 L161,300.936 L161,352 L241,352 L241,416.808 C222.768,420.528 209,436.68 209,456 C209,478.056 226.944,496 249,496 C271.056,496 289,478.056 289,456 C289,436.688 275.232,420.528 257,416.808 L257,352 L337,352 L337,300.936 L387.848,326.36 C379.656,351.048 389.624,378.984 413.008,392.488 C421.808,397.568 431.424,399.984 440.912,399.984 C460.28,399.984 479.144,389.936 489.504,371.992 C504.944,345.248 495.744,310.936 469.008,295.496 Z M433.816,137.792 C435.48,131.608 439.448,126.424 445,123.224 C448.768,121.048 452.888,120.016 456.96,120.016 C465.264,120.016 473.344,124.32 477.784,132.008 C480.984,137.56 481.84,144.024 480.184,150.216 C478.52,156.4 474.552,161.584 469,164.784 C457.544,171.408 442.832,167.464 436.216,156 C433.008,150.448 432.16,143.984 433.816,137.792 Z M209,56 C209,33.944 226.944,16 249,16 C271.056,16 289,33.944 289,56 C289,78.056 271.056,96 249,96 C226.944,96 209,78.056 209,56 L209,56 Z M61.784,156 C55.168,167.464 40.456,171.408 29,164.784 C23.448,161.584 19.48,156.4 17.816,150.216 C16.16,144.024 17.008,137.56 20.216,132.008 C24.656,124.32 32.736,120.016 41.04,120.016 C45.112,120.016 49.232,121.048 53,123.224 C58.552,126.424 62.52,131.608 64.184,137.792 C65.84,143.984 64.992,150.448 61.784,156 Z M76.992,378.632 C57.88,389.656 33.376,383.096 22.352,363.992 C11.328,344.888 17.896,320.384 36.992,309.352 C43.16,305.792 49.992,303.968 56.928,303.968 C60.408,303.968 63.904,304.432 67.344,305.352 C77.664,308.12 86.288,314.736 91.632,323.992 C102.664,343.096 96.088,367.6 76.992,378.632 Z M273,456 C273,469.232 262.232,480 249,480 C235.768,480 225,469.232 225,456 C225,442.768 235.768,432 249,432 C262.232,432 273,442.768 273,456 Z M321,336 L177,336 L177,160 L321,160 L321,336 Z M475.648,363.992 C464.632,383.104 440.104,389.664 421.008,378.632 C401.912,367.6 395.344,343.096 406.368,323.992 C411.712,314.736 420.336,308.12 430.656,305.352 C440.968,302.592 451.752,304 461.008,309.352 C480.104,320.384 486.672,344.888 475.648,363.992 Z" id="Shape"></path>
            <path d="M305,240 L257,240 L257,256 L225,256 L225,272 L193,272 L193,320 L305,320 L305,240 Z M209,288 L225,288 L225,304 L209,304 L209,288 Z M241,304 L241,272 L257,272 L257,304 L241,304 Z M289,304 L273,304 L273,256 L289,256 L289,304 Z" id="Shape"></path>
            <polygon id="Path" points="193 176 209 176 209 192 193 192"></polygon>
            <polygon id="Path" points="225 176 305 176 305 192 225 192"></polygon>
            <polygon id="Path" points="193 208 305 208 305 224 193 224"></polygon>
        </g>
    </g>
</svg>