<?xml version="1.0" encoding="UTF-8"?>
<svg width="488px" height="488px" viewBox="0 0 488 488" version="1.1" xmlns="http://www.w3.org/2000/svg" xmlns:xlink="http://www.w3.org/1999/xlink">
    <!-- Generator: Sketch 63.1 (92452) - https://sketch.com -->
    <title>Design/iOS/deployment</title>
    <desc>Created with Sketch.</desc>
    <g id="Page-1" stroke="none" stroke-width="1" fill="none" fill-rule="evenodd">
        <g id="deployment" fill-rule="nonzero">
            <circle id="Oval" fill="#E6E7E8" transform="translate(251.926880, 251.992416) rotate(-9.207969) translate(-251.926880, -251.992416) " cx="251.92688" cy="251.992416" r="154.650135"></circle>
            <path d="M486.084,248.944 L456.372,223.232 C454.69941,221.812069 452.195199,222.004463 450.759139,223.663227 C449.32308,225.321991 449.491219,227.827947 451.136,229.28 L472.736,247.968 L428.536,247.968 C426.326861,247.968 424.536,249.758861 424.536,251.968 C424.536,254.177139 426.326861,255.968 428.536,255.968 L472.732,255.968 L451.132,274.656 C450.035537,275.586833 449.523235,277.034671 449.790257,278.447958 C450.057278,279.861245 451.062508,281.022366 452.423002,281.48899 C453.783496,281.955613 455.289767,281.65589 456.368,280.704 L486.08,254.992 C486.957512,254.232219 487.461714,253.12873 487.461714,251.968 C487.461714,250.80727 486.957512,249.703781 486.08,248.944 L486.084,248.944 Z" id="Path" fill="#E6E7E8"></path>
            <path d="M75.464,247.968 L31.268,247.968 L52.868,229.28 C53.9644632,228.349167 54.476765,226.901329 54.2097433,225.488042 C53.9427217,224.074755 52.9374921,222.913634 51.5769983,222.44701 C50.2165045,221.980387 48.7102329,222.28011 47.632,223.232 L17.916,248.944 C17.0384883,249.703781 16.5342865,250.80727 16.5342865,251.968 C16.5342865,253.12873 17.0384883,254.232219 17.916,254.992 L47.628,280.704 C48.7062329,281.65589 50.2125045,281.955613 51.5729983,281.48899 C52.9334921,281.022366 53.9387217,279.861245 54.2057433,278.447958 C54.472765,277.034671 53.9604632,275.586833 52.864,274.656 L31.264,255.968 L75.464,255.968 C77.673139,255.968 79.464,254.177139 79.464,251.968 C79.464,249.758861 77.673139,247.968 75.464,247.968 L75.464,247.968 Z" id="Path" fill="#E6E7E8"></path>
            <path d="M226.284,54.216 C227.446491,54.2165875 228.551731,53.7114185 229.312,52.832 L248,31.24 L248,75.432 C248,77.641139 249.790861,79.432 252,79.432 C254.209139,79.432 256,77.641139 256,75.432 L256,31.24 L274.688,52.84 C276.134986,54.5101089 278.661891,54.6909857 280.332,53.2439998 C282.002109,51.7970138 282.182986,49.2701091 280.736,47.6 L255.024,17.888 C254.243595,17.0463851 253.147758,16.5680685 252,16.5680685 C250.852242,16.5680685 249.756405,17.0463851 248.976,17.888 L223.264,47.6 C222.238475,48.7830775 221.997481,50.4557184 222.647311,51.8801812 C223.297142,53.3046439 224.718314,54.2190156 226.284,54.22 L226.284,54.216 Z" id="Path" fill="#E6E7E8"></path>
            <path d="M274.688,451.104 L256,472.696 L256,428.504 C256,426.294861 254.209139,424.504 252,424.504 C249.790861,424.504 248,426.294861 248,428.504 L248,472.696 L229.312,451.096 C227.859947,449.451219 225.353991,449.28308 223.695227,450.719139 C222.036463,452.155199 221.844069,454.65941 223.264,456.332 L248.976,486.044 C249.735781,486.921512 250.83927,487.425714 252,487.425714 C253.16073,487.425714 254.264219,486.921512 255.024,486.044 L280.736,456.332 C282.155931,454.65941 281.963537,452.155199 280.304773,450.719139 C278.646009,449.28308 276.140053,449.451219 274.688,451.096 L274.688,451.104 Z" id="Path" fill="#E6E7E8"></path>
            <path d="M91.152,131.488001 L91.444,131.488001 C92.5022375,131.412209 93.4870154,130.919108 94.1816628,130.117188 C94.8763102,129.315268 95.223916,128.270229 95.148,127.212 L93.092,98.728 L124.344,129.98 C125.356491,130.990347 126.831084,131.383789 128.212316,131.01212 C129.593548,130.640451 130.671575,129.560136 131.040316,128.17812 C131.409057,126.796104 131.012491,125.322347 130,124.312 L98.748,93.06 L127.232,95.112 C128.680817,95.2581028 130.094574,94.6053275 130.922978,93.407762 C131.751382,92.2101966 131.863545,90.657056 131.215808,89.3528885 C130.568071,88.0487211 129.262776,87.199585 127.808,87.136 L88.608,84.308 C87.4504652,84.2249492 86.3139217,84.6487122 85.4933169,85.4693169 C84.6727122,86.2899217 84.2489492,87.4264652 84.332,88.584 L87.16,127.784 C87.3150626,129.873703 89.0565529,131.489554 91.152,131.488001 Z" id="Path" fill="#E6E7E8"></path>
            <path d="M412.556,372.46 C410.353921,372.61992 408.697857,374.533792 408.856,376.736 L410.908,405.22 L379.656,373.968 C378.086484,372.452111 375.591661,372.473791 374.048726,374.016726 C372.505791,375.559661 372.484111,378.054484 374,379.624 L405.252,410.876 L376.768,408.824 C374.605178,408.729468 372.75966,410.372805 372.603726,412.532068 C372.447791,414.691332 374.038038,416.582788 376.192,416.8 L415.392,419.628013 L415.68,419.628013 C416.792704,419.630888 417.856325,419.170161 418.615329,418.356509 C419.374333,417.542856 419.760119,416.449819 419.68,415.34 L416.852,376.14 C416.778665,375.079057 416.282523,374.091955 415.474861,373.400103 C414.667199,372.708251 413.615622,372.36956 412.556,372.46 L412.556,372.46 Z" id="Path" fill="#E6E7E8"></path>
            <path d="M415.384,84.308 L376.184,87.136 C374.729224,87.199585 373.423929,88.0487211 372.776192,89.3528885 C372.128455,90.657056 372.240618,92.2101966 373.069022,93.407762 C373.897426,94.6053275 375.311183,95.2581028 376.76,95.112 L405.244,93.06 L374,124.312 C372.960174,125.316298 372.54315,126.803512 372.909211,128.202029 C373.275273,129.600547 374.367453,130.692727 375.765971,131.058789 C377.164488,131.42485 378.651702,131.007826 379.656,129.968 L410.908,98.716 L408.856,127.2 C408.697857,129.402208 410.353921,131.31608 412.556,131.476014 L412.848,131.476014 C414.949387,131.481453 416.696707,129.859941 416.848,127.764 L419.676,88.564 C419.759785,87.4062201 419.336484,86.2691457 418.516,85.448 C417.69266,84.6224283 416.545385,84.2048381 415.384,84.308 L415.384,84.308 Z" id="Path" fill="#E6E7E8"></path>
            <path d="M127.232,408.824 L98.748,410.876 L130,379.624 C131.515889,378.054484 131.494209,375.559661 129.951274,374.016726 C128.408339,372.473791 125.913516,372.452111 124.344,373.968 L93.092,405.22 L95.148,376.736 C95.307058,374.532384 93.6496162,372.617058 91.446,372.458 C89.2423838,372.298942 87.327058,373.956384 87.168,376.16 L84.34,415.36 C84.2598813,416.469819 84.6456666,417.562856 85.4046707,418.376509 C86.1636748,419.190161 87.2272964,419.650888 88.34,419.648013 C88.436,419.648013 88.532,419.648013 88.628,419.648013 L127.828,416.82 C129.282776,416.756415 130.588071,415.907279 131.235808,414.603111 C131.883545,413.298944 131.771382,411.745803 130.942978,410.548238 C130.114574,409.350672 128.700817,408.697897 127.252,408.844 L127.232,408.824 Z" id="Path" fill="#E6E7E8"></path>
            <circle id="Oval" fill="#A0A7B9" cx="236" cy="235.968" r="150.668"></circle>
            <circle id="Oval" fill="#FFFFFF" cx="236" cy="235.968" r="47.808"></circle>
            <path d="M236,200.16 C260.072633,200.17026 280.379648,218.084585 283.392,241.968 C285.813927,223.54872 277.345971,205.394216 261.677056,195.413198 C246.008141,185.432181 225.975859,185.432181 210.306944,195.413198 C194.638029,205.394216 186.170073,223.54872 188.592,241.968 C191.605116,218.078539 211.921271,200.1622 236,200.16 L236,200.16 Z" id="Path" fill="#FFFFFF"></path>
            <path d="M336,246.46 L336,225.476 C336,222.248448 333.383552,219.632 330.156,219.632 L316.036,219.632 C313.951885,209.389665 309.90992,199.646029 304.132,190.936 L314.132,180.936 C315.22874,179.840585 315.844994,178.354088 315.844994,176.804 C315.844994,175.253912 315.22874,173.767415 314.132,172.672 L299.292,157.84 C298.196585,156.74326 296.710088,156.127006 295.16,156.127006 C293.609912,156.127006 292.123415,156.74326 291.028,157.84 L281.028,167.84 C272.317971,162.06208 262.574335,158.020115 252.332,155.936 L252.332,141.816 C252.332,138.588448 249.715552,135.972 246.488,135.972 L225.508,135.972 C222.280448,135.972 219.664,138.588448 219.664,141.816 L219.664,155.936 C209.422821,158.019833 199.680443,162.06184 190.972,167.84 L180.972,157.84 C179.876585,156.74326 178.390088,156.127006 176.84,156.127006 C175.289912,156.127006 173.803415,156.74326 172.708,157.84 L157.872,172.676 C156.77526,173.771415 156.159006,175.257912 156.159006,176.808 C156.159006,178.358088 156.77526,179.844585 157.872,180.94 L167.872,190.94 C162.09408,199.650029 158.052115,209.393665 155.968,219.636 L141.848,219.636 C140.298075,219.634939 138.811209,220.249627 137.714496,221.344839 C136.617783,222.440052 136,223.926075 136,225.476 L136,246.46 C136,249.687552 138.616448,252.304 141.844,252.304 L155.964,252.304 C158.048115,262.546335 162.09008,272.289971 167.868,281 L157.868,291 C156.77126,292.095415 156.155006,293.581912 156.155006,295.132 C156.155006,296.682088 156.77126,298.168585 157.868,299.264 L172.704,314.1 C173.799415,315.19674 175.285912,315.812994 176.836,315.812994 C178.386088,315.812994 179.872585,315.19674 180.968,314.1 L190.968,304.1 C199.677955,309.877222 209.421716,313.917881 219.664,316 L219.664,330.12 C219.664,333.347552 222.280448,335.964 225.508,335.964 L246.492,335.964 C249.719552,335.964 252.336,333.347552 252.336,330.12 L252.336,316 C262.578335,313.915885 272.321971,309.87392 281.032,304.096 L291.032,314.096 C292.127415,315.19274 293.613912,315.808994 295.164,315.808994 C296.714088,315.808994 298.200585,315.19274 299.296,314.096 L314.132,299.26 C315.22874,298.164585 315.844994,296.678088 315.844994,295.128 C315.844994,293.577912 315.22874,292.091415 314.132,290.996 L304.132,280.996 C309.90992,272.285971 313.951885,262.542335 316.036,252.3 L330.156,252.3 C333.381991,252.300001 335.997792,249.68599 336,246.46 L336,246.46 Z M236,283.776 C209.596371,283.776 188.192,262.371629 188.192,235.968 C188.192,209.564371 209.596371,188.16 236,188.16 C262.403629,188.16 283.808,209.564371 283.808,235.968 C283.808,262.371629 262.403629,283.776 236,283.776 L236,283.776 Z" id="Shape" fill="#A0A7B9"></path>
            <g id="Group">
                <path d="M338.932,340.448 C332.021055,347.255849 324.456561,353.366664 316.348,358.692 C314.873028,359.66398 314.210249,361.488371 314.717407,363.180434 C315.224565,364.872497 316.781567,366.031559 318.548,366.032023 C319.326179,366.034665 320.08765,365.806363 320.736,365.376 C329.28667,359.762579 337.263823,353.320833 344.552,346.144 C346.124907,344.59208 346.14192,342.058907 344.59,340.486 C343.03808,338.913093 340.504907,338.89608 338.932,340.448 L338.932,340.448 Z" id="Path" fill="#FFFFF0"></path>
                <path d="M236,81.3019911 C180.55578,81.0220382 129.202138,110.43939 101.398314,158.409052 C73.5944894,206.378713 73.5944894,265.561287 101.398314,313.530948 C129.202138,361.50061 180.55578,390.917962 236,390.638009 C259.943997,390.706248 283.570465,385.157556 304.98,374.436 C306.29211,373.817568 307.166592,372.537255 307.265344,371.090073 C307.364097,369.64289 306.671642,368.255653 305.455704,367.464713 C304.239767,366.673773 302.690921,366.603093 301.408,367.28 C281.1057,377.441868 258.703363,382.70132 236,382.636 C167.249775,382.63444 107.727384,334.877026 92.8258936,267.761163 C77.9244036,200.6453 111.643579,132.185802 173.9334,103.089899 C236.223222,73.9939953 310.364251,92.0714243 352.270919,146.573026 C394.177587,201.074629 392.601572,277.371429 348.48,330.096 C347.561827,331.191376 347.297777,332.693385 347.787314,334.036234 C348.276852,335.379083 349.445605,336.358762 350.853315,336.606234 C352.261025,336.853707 353.693827,336.331376 354.612,335.236 C393.165651,289.167612 401.55713,224.942553 376.134001,170.515125 C350.710872,116.087698 296.072293,81.3019911 236,81.3019911 L236,81.3019911 Z" id="Path" fill="#FFFFF0"></path>
                <path d="M287.808,235.968 C287.808,207.355232 264.612768,184.16 236,184.16 C207.387232,184.16 184.192,207.355232 184.192,235.968 C184.192,264.580768 207.387232,287.776 236,287.776 C264.599062,287.742936 287.774936,264.567062 287.808,235.968 L287.808,235.968 Z M192.208,235.968 C192.208001,218.247862 202.88321,202.272864 219.255102,195.493157 C235.626994,188.713449 254.47085,192.464409 266.998591,204.996727 C279.526332,217.529045 283.270408,236.374271 276.484721,252.743685 C269.699033,269.1131 253.720137,279.782472 236,279.776003 C211.816476,279.749546 192.218454,260.151524 192.192,235.968 L192.208,235.968 Z" id="Shape" fill="#FFFFFF"></path>
                <path d="M225.508,339.968 L246.492,339.968 C251.92595,339.961388 256.329388,335.55795 256.336,330.124 L256.336,319.2 C264.850055,317.138727 272.991469,313.765026 280.468,309.2 L288.204,316.936 C292.051328,320.767843 298.272672,320.767843 302.12,316.936 L316.956,302.1 C320.792698,298.253117 320.792698,292.026883 316.956,288.18 L309.228,280.448 C313.790128,272.969995 317.163636,264.829047 319.228,256.316 L330.144,256.316 C335.587318,256.316 340,251.903318 340,246.46 L340,225.476 C339.995589,220.041137 335.590863,215.636411 330.156,215.632 L319.24,215.632 C317.176376,207.118712 313.802822,198.977652 309.24,191.5 L316.968,183.768 C320.809102,179.922939 320.809102,173.693061 316.968,169.848 L302.12,155.012 C298.273117,151.175302 292.046883,151.175302 288.2,155.012 L280.468,162.74 C272.988763,158.180295 264.848203,154.806949 256.336,152.74 L256.336,141.812 C256.331589,136.377137 251.926863,131.972411 246.492,131.968 L225.508,131.968 C220.073137,131.972411 215.668411,136.377137 215.664,141.812 L215.664,152.724 C207.152577,154.793339 199.012376,158.166537 191.532,162.724 L183.8,155.012 C179.953117,151.175302 173.726883,151.175302 169.88,155.012 L155.044,169.848 C151.205101,173.693973 151.205101,179.922027 155.044,183.768 L162.772,191.5 C158.211777,198.978973 154.838396,207.119616 152.772,215.632 L141.844,215.632 C136.409137,215.636411 132.004411,220.041137 132,225.476 L132,246.46 C132.006612,251.89395 136.41005,256.297388 141.844,256.304 L152.76,256.304 C154.826949,264.816203 158.200295,272.956763 162.76,280.436 L155.04,288.172 C151.205961,292.018421 151.205961,298.241579 155.04,302.088 L169.876,316.924 C173.722883,320.760698 179.949117,320.760698 183.796,316.924 L191.532,309.2 C199.010063,313.762013 207.150993,317.135512 215.664,319.2 L215.664,330.116 C215.666203,335.553074 220.07093,339.961381 225.508,339.968 L225.508,339.968 Z M193.18,300.768 C191.594003,299.718687 189.488482,299.931078 188.144,301.276 L178.144,311.276 C177.422941,311.994052 176.257059,311.994052 175.536,311.276 L160.7,296.44 C159.981948,295.718941 159.981948,294.553059 160.7,293.832 L170.7,283.832 C172.040238,282.486116 172.249181,280.383306 171.2,278.8 C165.701836,270.520782 161.857833,261.255786 159.88,251.516 C159.499785,249.653335 157.861074,248.315612 155.96,248.316 L141.84,248.316 C141.349548,248.314947 140.879722,248.118553 140.534424,247.770252 C140.189126,247.421952 139.996807,246.950443 139.999961,246.46 L139.999961,225.476 C139.999961,224.457587 140.825587,223.632 141.844,223.632 L155.964,223.632 C157.865074,223.632388 159.503785,222.294665 159.884,220.432 C161.861833,210.692214 165.705836,201.427218 171.204,193.148 C172.253313,191.562003 172.040922,189.456482 170.696,188.112 L160.696,178.112 C160.350125,177.766175 160.15581,177.297106 160.15581,176.808 C160.15581,176.318894 160.350125,175.849825 160.696,175.504 L175.532,160.668 C175.877302,160.321141 176.346567,160.126146 176.836,160.126146 C177.325433,160.126146 177.794698,160.321141 178.14,160.668 L188.14,170.668 C189.484482,172.012922 191.590003,172.225313 193.176,171.176 C201.453068,165.673803 210.718878,161.829463 220.46,159.856 C222.324139,159.475486 223.662291,157.834577 223.66,155.932 L223.66,141.812 C223.6622,140.7945 224.4865,139.9702 225.504,139.968 L246.488,139.968 C247.5055,139.9702 248.3298,140.7945 248.332,141.812 L248.332,155.932 C248.329709,157.834577 249.667861,159.475486 251.532,159.856 C261.272087,161.828787 270.536713,165.6732 278.812,171.176 C280.39885,172.227525 282.506911,172.015046 283.852,170.668 L293.852,160.668 C294.197986,160.320899 294.667913,160.125806 295.158,160.125806 C295.648087,160.125806 296.118014,160.320899 296.464,160.668 L311.3,175.504 C311.645875,175.849825 311.84019,176.318894 311.84019,176.808 C311.84019,177.297106 311.645875,177.766175 311.3,178.112 L301.3,188.112 C299.955078,189.456482 299.742687,191.562003 300.792,193.148 C306.291773,201.424456 310.134684,210.688737 312.108,220.428 C312.488514,222.292139 314.129423,223.630291 316.032,223.628 L330.152,223.628 C331.1695,223.6302 331.9938,224.4545 331.996,225.472 L331.996,246.456 C331.9938,247.4735 331.1695,248.2978 330.152,248.3 L316.032,248.3 C314.129423,248.297709 312.488514,249.635861 312.108,251.5 C310.139594,261.245648 306.299325,270.516903 300.8,278.8 C299.750687,280.385997 299.963078,282.491518 301.308,283.836 L311.308,293.836 C311.655101,294.181986 311.850194,294.651913 311.850194,295.142 C311.850194,295.632087 311.655101,296.102014 311.308,296.448 L296.472,311.284 C296.126175,311.629875 295.657106,311.82419 295.168,311.82419 C294.678894,311.82419 294.209825,311.629875 293.864,311.284 L283.864,301.284 C282.519518,299.939078 280.413997,299.726687 278.828,300.776 C270.552407,306.27739 261.287798,310.120436 251.548,312.092 C249.683861,312.472514 248.345709,314.113423 248.348,316.016 L248.348,330.136 C248.3458,331.1535 247.5215,331.9778 246.504,331.98 L225.508,331.98 C224.4905,331.9778 223.6662,331.1535 223.664,330.136 L223.664,316 C223.666291,314.097423 222.328139,312.456514 220.464,312.076 C210.729702,310.104858 201.470502,306.263159 193.2,300.764 L193.18,300.768 Z" id="Shape" fill="#FFFFFF"></path>
                <path d="M470.084,232.944 L440.372,207.232 C438.69941,205.812069 436.195199,206.004463 434.759139,207.663227 C433.32308,209.321991 433.491219,211.827947 435.136,213.28 L456.736,231.968 L412.536,231.968 C410.326861,231.968 408.536,233.758861 408.536,235.968 C408.536,238.177139 410.326861,239.968 412.536,239.968 L456.732,239.968 L435.132,258.66 C434.003531,259.581428 433.465274,261.043529 433.726919,262.476712 C433.988564,263.909895 435.008729,265.087488 436.389987,265.550735 C437.771245,266.013982 439.295138,265.689616 440.368,264.704 L470.08,238.992 C470.957512,238.232219 471.461714,237.12873 471.461714,235.968 C471.461714,234.80727 470.957512,233.703781 470.08,232.944 L470.084,232.944 Z" id="Path" fill="#A0A7B9"></path>
                <path d="M59.464,231.968 L15.268,231.968 L36.868,213.28 C37.9644632,212.349167 38.476765,210.901329 38.2097433,209.488042 C37.9427217,208.074755 36.9374921,206.913634 35.5769983,206.44701 C34.2165045,205.980387 32.7102329,206.28011 31.632,207.232 L1.916,232.944 C1.03848828,233.703781 0.534286463,234.80727 0.534286463,235.968 C0.534286463,237.12873 1.03848828,238.232219 1.916,238.992 L31.628,264.704 C32.7008623,265.689616 34.2247545,266.013982 35.6060127,265.550735 C36.9872709,265.087488 38.0074356,263.909895 38.2690806,262.476712 C38.5307255,261.043529 37.992469,259.581428 36.864,258.66 L15.264,239.968 L59.464,239.968 C61.673139,239.968 63.464,238.177139 63.464,235.968 C63.464,233.758861 61.673139,231.968 59.464,231.968 L59.464,231.968 Z" id="Path" fill="#A0A7B9"></path>
                <path d="M210.288,38.212 C211.449853,38.2135921 212.554987,37.7099311 213.316,36.832 L232,15.236 L232,59.432 C232,61.641139 233.790861,63.432 236,63.432 C238.209139,63.432 240,61.641139 240,59.432 L240,15.236 L258.692,36.836 C259.613428,37.964469 261.075529,38.5027255 262.508712,38.2410806 C263.941895,37.9794356 265.119488,36.9592709 265.582735,35.5780127 C266.045982,34.1967545 265.721616,32.6728623 264.736,31.6 L239.024,1.884 C238.242366,1.04457877 237.146987,0.567821017 236,0.567821017 C234.853013,0.567821017 233.757634,1.04457877 232.976,1.884 L207.264,31.6 C206.240604,32.783782 206.001475,34.4556253 206.651985,35.8788316 C207.302495,37.3020379 208.723174,38.2152263 210.288,38.216 L210.288,38.212 Z" id="Path" fill="#A0A7B9"></path>
                <path d="M258.692,435.104 L240,456.7 L240,412.504 C240,410.294861 238.209139,408.504 236,408.504 C233.790861,408.504 232,410.294861 232,412.504 L232,456.7 L213.316,435.1 C211.870119,433.428786 209.343214,433.246119 207.672,434.692 C206.000786,436.137881 205.818119,438.664786 207.264,440.336 L232.976,470.048 C233.735781,470.925512 234.83927,471.429714 236,471.429714 C237.16073,471.429714 238.264219,470.925512 239.024,470.048 L264.736,440.336 C265.721616,439.263138 266.045982,437.739245 265.582735,436.357987 C265.119488,434.976729 263.941895,433.956564 262.508712,433.694919 C261.075529,433.433274 259.613428,433.971531 258.692,435.1 L258.692,435.104 Z" id="Path" fill="#A0A7B9"></path>
                <path d="M75.152,115.488 L75.444,115.488 C76.5029823,115.412233 77.4884004,114.91857 78.1831617,114.115768 C78.877923,113.312966 79.2250253,112.266892 79.148,111.208 L77.092,82.728 L108.34,113.98 C109.352491,114.991062 110.827466,115.385164 112.209316,115.013852 C113.591166,114.64254 114.669956,113.562225 115.039316,112.179852 C115.408676,110.797478 115.012491,109.323062 114,108.312 L82.752,77.06 L111.236,79.112 C113.398822,79.206532 115.24434,77.5631951 115.400274,75.4039315 C115.556209,73.2446679 113.965962,71.3532117 111.812,71.136 L72.612,68.308 C71.4522808,68.210366 70.3095568,68.6357703 69.496,69.468 C68.675516,70.2891457 68.2522149,71.4262201 68.336,72.584 L71.164,111.784 C71.3189491,113.872167 73.0580917,115.487459 75.152,115.488 L75.152,115.488 Z" id="Path" fill="#A0A7B9"></path>
                <path d="M396.556,356.46 C394.353921,356.61992 392.697857,358.533792 392.856,360.736 L394.908,389.22 L363.66,357.972 C362.098139,356.409034 359.564966,356.408139 358.002,357.97 C356.439034,359.531861 356.438139,362.065034 358,363.628 L389.248,394.876 L360.764,392.824 C358.601178,392.729468 356.75566,394.372805 356.599726,396.532068 C356.443791,398.691332 358.034038,400.582788 360.188,400.8 L399.388,403.628013 C399.484,403.628013 399.58,403.628013 399.676,403.628013 C400.788704,403.630888 401.852325,403.170161 402.611329,402.356509 C403.370333,401.542856 403.756119,400.449819 403.676,399.34 L400.848,360.14 C400.661027,357.947756 398.751095,356.310163 396.556,356.46 L396.556,356.46 Z" id="Path" fill="#A0A7B9"></path>
                <path d="M399.384,68.308 L360.184,71.136 C358.729224,71.199585 357.423929,72.0487211 356.776192,73.3528885 C356.128455,74.657056 356.240618,76.2101966 357.069022,77.407762 C357.897426,78.6053275 359.311183,79.2581028 360.76,79.112 L389.244,77.06 L358,108.312 C356.960174,109.316298 356.54315,110.803512 356.909211,112.202029 C357.275273,113.600547 358.367453,114.692727 359.765971,115.058789 C361.164488,115.42485 362.651702,115.007826 363.656,113.968 L394.904,82.716 L392.852,111.196 C392.774945,112.254246 393.121506,113.299749 393.815418,114.102437 C394.509331,114.905125 395.493734,115.399223 396.552,115.476014 L396.844,115.476014 C398.945387,115.481453 400.692707,113.859941 400.844,111.764 L403.672,72.564 C403.755785,71.4062201 403.332484,70.2691457 402.512,69.448 C401.692682,68.618717 400.544778,68.2003633 399.384,68.308 L399.384,68.308 Z" id="Path" fill="#A0A7B9"></path>
                <path d="M111.232,392.824 L82.748,394.876 L114,363.628 C115.039826,362.623702 115.45685,361.136488 115.090789,359.737971 C114.724727,358.339453 113.632547,357.247273 112.234029,356.881211 C110.835512,356.51515 109.348298,356.932174 108.344,357.972 L77.096,389.22 L79.152,360.736 C79.227916,359.677771 78.8803102,358.632732 78.1856628,357.830812 C77.4910154,357.028892 76.5062375,356.535791 75.448,356.46 C74.3866783,356.367408 73.3330964,356.708553 72.5274739,357.405654 C71.7218514,358.102754 71.2328633,359.096387 71.172,360.16 L68.344,399.36 C68.2638813,400.469819 68.6496666,401.562856 69.4086707,402.376509 C70.1676748,403.190161 71.2312964,403.650888 72.344,403.648013 C72.44,403.648013 72.536,403.648013 72.632,403.648013 L111.832,400.82 C114.034079,400.66008 115.690143,398.746208 115.532,396.544 C115.47227,395.473923 114.980929,394.473872 114.170404,393.772673 C113.359878,393.071474 112.299536,392.729139 111.232,392.824 Z" id="Path" fill="#A0A7B9"></path>
            </g>
        </g>
    </g>
</svg>