<svg width="36" height="36" viewBox="0 0 36 36" fill="none" xmlns="http://www.w3.org/2000/svg">
<circle opacity="0.15" cx="18" cy="18" r="18" fill="#A0A7B9"/>
<g clip-path="url(#clip0)">
<path d="M27.9223 18.308C28.0265 18.1161 28.0265 17.8839 27.9223 17.6919C26.0117 14.1742 22.285 11.786 18.0005 11.786C13.716 11.786 9.98926 14.1742 8.07867 17.6919C7.97443 17.8839 7.97443 18.1161 8.07867 18.308C9.9893 21.8258 13.7159 24.2139 18.0005 24.2139C22.285 24.2139 26.0117 21.8258 27.9223 18.308ZM18.0005 22.7665C15.368 22.7665 13.234 20.6324 13.234 18C13.234 15.3675 15.368 13.2335 18.0005 13.2335C20.633 13.2335 22.767 15.3675 22.767 18C22.767 20.6325 20.633 22.7665 18.0005 22.7665Z" fill="#A0A7B9"/>
<path d="M17.9991 15.5709C17.7986 15.5709 17.6039 15.5954 17.4175 15.6412C17.6084 15.8621 17.7241 16.1497 17.7241 16.4646C17.7241 17.1607 17.1598 17.725 16.4637 17.725C16.1489 17.725 15.8612 17.6093 15.6403 17.4184C15.5945 17.6047 15.57 17.7995 15.57 18C15.57 19.3416 16.6576 20.4291 17.9991 20.4291C19.3406 20.4291 20.4282 19.3415 20.4282 18C20.4282 16.6585 19.3407 15.5709 17.9991 15.5709Z" fill="#A0A7B9"/>
</g>
<line x1="10.8545" y1="24.5933" x2="22.5933" y2="10.1455" stroke="#A0A7B9" stroke-width="2" stroke-linecap="round"/>
<defs>
<clipPath id="clip0">
<rect x="8" y="8" width="20" height="20" fill="white"/>
</clipPath>
</defs>
</svg>
