<svg width="24" height="24" viewBox="0 0 24 24" fill="none" xmlns="http://www.w3.org/2000/svg">
<circle opacity="0.15" cx="12" cy="12" r="12" fill="#6861AC"/>
<g clip-path="url(#clip0)">
<path d="M18.6142 12.2054C18.6837 12.0774 18.6837 11.9226 18.6142 11.7947C17.3405 9.44951 14.856 7.85742 11.9997 7.85742C9.14332 7.85742 6.65886 9.44953 5.38513 11.7947C5.31563 11.9226 5.31563 12.0774 5.38513 12.2054C6.65888 14.5506 9.14328 16.1427 11.9997 16.1427C14.856 16.1427 17.3405 14.5506 18.6142 12.2054ZM11.9997 15.1777C10.2447 15.1777 8.82199 13.755 8.82199 12C8.82199 10.2451 10.2447 8.82237 11.9997 8.82237C13.7547 8.82237 15.1774 10.2451 15.1774 12C15.1774 13.755 13.7547 15.1777 11.9997 15.1777Z" fill="#6861AC"/>
<path d="M11.9993 10.3806C11.8656 10.3806 11.7358 10.3969 11.6115 10.4275C11.7388 10.5747 11.816 10.7665 11.816 10.9764C11.816 11.4405 11.4398 11.8167 10.9757 11.8167C10.7658 11.8167 10.574 11.7395 10.4267 11.6123C10.3962 11.7365 10.3799 11.8663 10.3799 12C10.3799 12.8944 11.1049 13.6194 11.9993 13.6194C12.8936 13.6194 13.6187 12.8944 13.6187 12C13.6187 11.1057 12.8937 10.3806 11.9993 10.3806Z" fill="#6861AC"/>
</g>
<defs>
<clipPath id="clip0">
<rect width="13.3333" height="13.3333" fill="white" transform="translate(5.33301 5.33337)"/>
</clipPath>
</defs>
</svg>
