<svg width="20" height="20" viewBox="0 0 20 20" fill="none" xmlns="http://www.w3.org/2000/svg">
<path d="M5.43477 4.13046H4.56523C3.69789 4.13046 2.96918 4.70151 2.7134 5.48452C1.17562 5.74608 0 7.08448 0 8.69569C0 10.3069 1.17562 11.6453 2.7134 11.9069C2.96918 12.6899 3.69789 13.2609 4.56523 13.2609H5.4348C6.22332 13.2609 7.02531 13.2985 7.82609 13.3668V4.0246C7.02531 4.0928 6.22332 4.13046 5.43477 4.13046ZM2.60871 10.5405C1.84953 10.2713 1.30437 9.54592 1.30437 8.69565C1.30437 7.84538 1.84953 7.11999 2.60871 6.85077V10.5405Z" fill="#6861AC"/>
<path d="M8.87438 17.5373L8.40715 14.7346C7.41629 14.6258 6.41532 14.5652 5.4352 14.5652H4.56566C4.52176 14.5652 4.47906 14.5603 4.43555 14.5586L5.04332 18.1522C5.20297 19.0969 6.01438 19.7826 6.97223 19.7826C8.16387 19.7826 9.07016 18.7116 8.87438 17.5373Z" fill="#6861AC"/>
<path d="M18.695 0.217407C17.9746 0.217407 17.3906 0.801353 17.3906 1.52174V15.8696C17.3906 16.5899 17.9746 17.1739 18.695 17.1739C19.4153 17.1739 19.9993 16.59 19.9993 15.8696V1.52178C19.9993 0.801392 19.4153 0.217407 18.695 0.217407Z" fill="#6861AC"/>
<path d="M9.13086 3.88224V13.5091C12.2356 13.9129 13.8136 14.5308 16.0874 15.3106V2.08072C13.8302 2.85474 12.2485 3.47677 9.13086 3.88224Z" fill="#6861AC"/>
</svg>
