<svg width="12" height="10" viewBox="0 0 12 10" fill="none" xmlns="http://www.w3.org/2000/svg">
<path d="M9.88032 0.921387C9.54054 0.921387 9.22121 1.05378 8.98088 1.29416L4.27427 6.00844L3.01983 4.75411C2.77966 4.51389 2.46033 4.38155 2.12066 4.38155C1.78094 4.38155 1.46161 4.51389 1.22139 4.75405C0.981221 4.99422 0.848999 5.31355 0.848999 5.65322C0.848999 5.99288 0.981221 6.31222 1.22139 6.55233L3.37527 8.70622C3.61544 8.94644 3.93477 9.07877 4.27449 9.07877C4.61405 9.07877 4.93349 8.94638 5.17394 8.70599L10.7795 3.09233C11.2753 2.59644 11.2752 1.78966 10.7795 1.29378C10.5394 1.05366 10.22 0.921387 9.88032 0.921387Z" fill="#6861AC"/>
</svg>
