<svg width="73" height="40" viewBox="0 0 73 40" fill="none" xmlns="http://www.w3.org/2000/svg">
<line x1="-4.37114e-08" y1="39.5" x2="73" y2="39.5" stroke="#988EDE"/>
<g clip-path="url(#clip0)">
<path d="M26.8604 15.1937V24.8061H63.1394V15.1937H26.8604ZM34.9711 22.093C33.8169 22.093 32.878 21.1541 32.878 20C32.878 18.8458 33.8169 17.9069 34.9711 17.9069C36.1252 17.9069 37.0641 18.8458 37.0641 20C37.0641 21.1541 36.1252 22.093 34.9711 22.093ZM55.7264 21.3953H41.6539C40.8833 21.3953 40.2586 20.7705 40.2586 20C40.2586 19.2294 40.8834 18.6047 41.6539 18.6047H55.7264C56.497 18.6047 57.1217 19.2294 57.1217 20C57.1217 20.7705 56.497 21.3953 55.7264 21.3953Z" fill="#988EDE"/>
<path d="M26.8604 27.5969V38.6047C26.8604 39.3753 27.4851 40 28.2557 40H61.744C62.5146 40 63.1393 39.3752 63.1393 38.6047V27.5969H26.8604ZM34.9711 35.8914C33.8169 35.8914 32.878 34.9525 32.878 33.7983C32.878 32.6442 33.8169 31.7053 34.9711 31.7053C36.1252 31.7053 37.0641 32.6442 37.0641 33.7983C37.0641 34.9525 36.1252 35.8914 34.9711 35.8914ZM55.7264 35.1937H41.6539C40.8833 35.1937 40.2586 34.569 40.2586 33.7984C40.2586 33.0278 40.8834 32.4031 41.6539 32.4031H55.7264C56.497 32.4031 57.1217 33.0279 57.1217 33.7984C57.1218 34.569 56.497 35.1937 55.7264 35.1937Z" fill="#988EDE"/>
<path d="M61.7441 0H28.2557C27.485 0 26.8604 0.624766 26.8604 1.39531V12.403H63.1394V1.39531C63.1394 0.624766 62.5146 0 61.7441 0ZM34.9711 8.29461C33.8169 8.29461 32.878 7.3557 32.878 6.20156C32.878 5.04742 33.817 4.10852 34.9711 4.10852C36.1252 4.10852 37.0641 5.04742 37.0641 6.20156C37.0641 7.3557 36.1252 8.29461 34.9711 8.29461ZM55.7264 7.59695H41.6539C40.8833 7.59695 40.2586 6.97219 40.2586 6.20164C40.2586 5.43102 40.8834 4.80633 41.6539 4.80633H55.7264C56.497 4.80633 57.1217 5.43109 57.1217 6.20164C57.1218 6.97219 56.497 7.59695 55.7264 7.59695Z" fill="#988EDE"/>
</g>
<circle opacity="0.15" cx="20" cy="27" r="12" fill="#988EDE"/>
<path d="M24.0625 25.9625H21.0375V22.9375C21.0375 22.6623 20.9282 22.3984 20.7336 22.2039C20.5391 22.0093 20.2752 21.9 20 21.9C19.7248 21.9 19.4609 22.0093 19.2664 22.2039C19.0718 22.3984 18.9625 22.6623 18.9625 22.9375V25.9625H15.9375C15.6623 25.9625 15.3984 26.0718 15.2039 26.2664C15.0093 26.4609 14.9 26.7248 14.9 27C14.9 27.2752 15.0093 27.5391 15.2039 27.7336C15.3984 27.9282 15.6623 28.0375 15.9375 28.0375H18.9625V31.0625C18.9625 31.3377 19.0718 31.6016 19.2664 31.7961C19.4609 31.9907 19.7248 32.1 20 32.1C20.2752 32.1 20.5391 31.9907 20.7336 31.7961C20.9282 31.6016 21.0375 31.3377 21.0375 31.0625V28.0375H24.0625C24.3377 28.0375 24.6016 27.9282 24.7961 27.7336C24.9907 27.5391 25.1 27.2752 25.1 27C25.1 26.7248 24.9907 26.4609 24.7961 26.2664C24.6016 26.0718 24.3377 25.9625 24.0625 25.9625Z" fill="#988EDE" stroke="#988EDE" stroke-width="0.2"/>
<defs>
<clipPath id="clip0">
<rect x="25" width="40" height="40" fill="white"/>
</clipPath>
</defs>
</svg>
