<svg width="20" height="20" viewBox="0 0 20 20" fill="none" xmlns="http://www.w3.org/2000/svg">
<path d="M17.9058 2.41977H16.3855V1.38209C16.3855 0.618791 15.7667 0 15.0034 0H14.9482C14.1848 0 13.5661 0.618791 13.5661 1.38209V2.41977H6.43445V1.38209C6.43445 0.618791 5.81566 0 5.05236 0H4.99708C4.23377 0 3.61498 0.618791 3.61498 1.38209V2.41977H2.09468C1.33138 2.41977 0.712585 3.03856 0.712585 3.80186V18.6179C0.712585 19.3813 1.33138 20 2.09468 20H17.9058C18.6691 20 19.2879 19.3813 19.2879 18.6179V3.80186C19.2879 3.03856 18.6691 2.41977 17.9058 2.41977ZM16.966 17.8163H3.0345V6.59369H16.966V17.8163Z" fill="#6861AC"/>
<path d="M4.92811 11.6723H7.33284C7.45496 11.6723 7.55397 11.5733 7.55397 11.4512V9.04645C7.55397 8.92433 7.45496 8.82532 7.33284 8.82532H4.92811C4.80598 8.82532 4.70697 8.92433 4.70697 9.04645V11.4512C4.70697 11.5733 4.80598 11.6723 4.92811 11.6723Z" fill="#6861AC"/>
<path d="M8.79786 11.6723H11.2026C11.3247 11.6723 11.4237 11.5733 11.4237 11.4512V9.04645C11.4237 8.92433 11.3247 8.82532 11.2026 8.82532H8.79786C8.67573 8.82532 8.57672 8.92433 8.57672 9.04645V11.4512C8.57672 11.5733 8.67573 11.6723 8.79786 11.6723Z" fill="#6861AC"/>
<path d="M12.6674 11.6723H15.0722C15.1943 11.6723 15.2933 11.5733 15.2933 11.4512V9.04645C15.2933 8.92433 15.1943 8.82532 15.0722 8.82532H12.6674C12.5453 8.82532 12.4463 8.92433 12.4463 9.04645V11.4512C12.4463 11.5733 12.5453 11.6723 12.6674 11.6723Z" fill="#6861AC"/>
<path d="M4.92811 15.5422H7.33284C7.45496 15.5422 7.55397 15.4432 7.55397 15.3211V12.9163C7.55397 12.7942 7.45496 12.6952 7.33284 12.6952H4.92811C4.80598 12.6952 4.70697 12.7942 4.70697 12.9163V15.3211C4.70697 15.4432 4.80598 15.5422 4.92811 15.5422Z" fill="#6861AC"/>
<path d="M8.79786 15.5422H11.2026C11.3247 15.5422 11.4237 15.4432 11.4237 15.3211V12.9163C11.4237 12.7942 11.3247 12.6952 11.2026 12.6952H8.79786C8.67573 12.6952 8.57672 12.7942 8.57672 12.9163V15.3211C8.57672 15.4432 8.67573 15.5422 8.79786 15.5422Z" fill="#6861AC"/>
<path d="M12.6674 15.5422H15.0722C15.1943 15.5422 15.2933 15.4432 15.2933 15.3211V12.9163C15.2933 12.7942 15.1943 12.6952 15.0722 12.6952H12.6674C12.5453 12.6952 12.4463 12.7942 12.4463 12.9163V15.3211C12.4463 15.4432 12.5453 15.5422 12.6674 15.5422Z" fill="#6861AC"/>
</svg>
