<svg width="16" height="16" viewBox="0 0 16 16" fill="none" xmlns="http://www.w3.org/2000/svg">
<g clip-path="url(#clip0)">
<path d="M16 11.0398C16 11.53 15.6137 11.9422 15.1235 11.9422H0.876414C0.38638 11.9422 5.91278e-05 11.53 5.91278e-05 11.0398V9.85522H16V11.0398Z" fill="#A0A7B9"/>
<path d="M6.56725 5.14016C6.56725 4.3503 7.20855 3.71021 7.99961 3.71021C8.79083 3.71021 9.43213 4.3503 9.43213 5.14016C9.43213 5.92986 8.79083 6.57011 7.99961 6.57011C7.20855 6.57011 6.56725 5.92986 6.56725 5.14016Z" fill="#A0A7B9"/>
<path d="M0.876384 0.888989H15.1235C15.3563 0.88597 15.5803 0.976851 15.7451 1.14095C15.91 1.30505 16.0019 1.52878 16 1.76142V9.31408H2.86102e-05V1.76142C-0.00193405 1.52878 0.090004 1.30505 0.254858 1.14095C0.419713 0.976851 0.643745 0.88597 0.876384 0.888989ZM4.4831 5.61542C4.48371 5.75491 4.58969 5.87131 4.72857 5.88474L5.23959 5.93456C5.30058 6.13987 5.38422 6.33794 5.48899 6.52484L5.16109 6.92037C5.07172 7.02801 5.07927 7.18576 5.17815 7.2845L5.8501 7.95509C5.94883 8.05367 6.10629 8.06106 6.21377 7.97199L6.6087 7.64485C6.7959 7.75038 6.99457 7.83401 7.20079 7.89394L7.25076 8.41025C7.26404 8.54929 7.38029 8.65587 7.51993 8.65708H8.47177C8.61141 8.65602 8.7278 8.54944 8.74109 8.41025L8.79091 7.89259C8.99652 7.83175 9.19474 7.74796 9.38179 7.64319L9.77792 7.97169C9.88541 8.06061 10.043 8.05336 10.1417 7.95478L10.8135 7.28435C10.9124 7.18561 10.9198 7.0277 10.8308 6.92022L10.5039 6.52574C10.6094 6.33885 10.6932 6.14063 10.7535 5.93456L11.271 5.88459C11.4099 5.87131 11.5161 5.75506 11.5169 5.61542V4.66479C11.5163 4.52515 11.41 4.40875 11.2711 4.39547L10.7521 4.34535C10.6911 4.14003 10.6075 3.94212 10.5027 3.75537L10.8308 3.35984C10.9198 3.2522 10.9124 3.09429 10.8135 2.99556L10.1417 2.32497C10.043 2.22639 9.88541 2.21915 9.77792 2.30807L9.38315 2.63521C9.19595 2.52953 8.99728 2.44605 8.79091 2.38596L8.74109 1.86966C8.72765 1.73062 8.61141 1.62434 8.47177 1.62329H7.51993C7.38029 1.62434 7.26389 1.73092 7.25061 1.86996L7.20079 2.38762C6.99517 2.44861 6.79695 2.53225 6.60991 2.63717L6.21377 2.30867C6.10583 2.21915 5.94747 2.227 5.84889 2.32663L5.18524 2.99707C5.08727 3.09596 5.08032 3.25296 5.16909 3.35999L5.49593 3.75447C5.39041 3.94121 5.30662 4.13958 5.24639 4.34565L4.72888 4.39562C4.58999 4.4089 4.48371 4.5253 4.4831 4.66479V5.61542Z" fill="#A0A7B9"/>
<path d="M5.72619 4.65443C5.78582 4.37847 5.89678 4.11609 6.05318 3.88088C6.11931 3.7814 6.11236 3.65036 6.03612 3.55842L5.74204 3.20365L6.05892 2.88345L6.41173 3.17572C6.50246 3.2509 6.63153 3.2586 6.73057 3.19474C6.96774 3.0394 7.23102 2.92814 7.50774 2.86669C7.62323 2.84163 7.70943 2.74471 7.72076 2.62696L7.76529 2.16455H8.22589L8.27057 2.62696C8.28175 2.74486 8.36749 2.84194 8.48313 2.86775C8.7594 2.92678 9.02223 3.03729 9.25774 3.19338C9.35708 3.25921 9.48797 3.25211 9.57975 3.17602L9.93362 2.88255L10.2567 3.20486L9.96351 3.55842C9.88803 3.64975 9.88063 3.77959 9.94539 3.87877C10.1007 4.11579 10.2122 4.37892 10.2742 4.65564C10.2999 4.76992 10.3962 4.85492 10.5129 4.86624L10.9756 4.91077V5.36986L10.5127 5.41455C10.3954 5.42572 10.2988 5.51132 10.2731 5.6262C10.2135 5.90232 10.1025 6.1647 9.9463 6.39975C9.88018 6.49924 9.88712 6.63028 9.96336 6.72221L10.2564 7.07593L9.93347 7.39824L9.57945 7.10491C9.48872 7.02973 9.35964 7.02203 9.26061 7.08589C9.02344 7.24139 8.76016 7.3525 8.48344 7.41409C8.3678 7.43915 8.28175 7.53592 8.27042 7.65367L8.22589 8.11623H7.76529L7.72076 7.65367C7.70943 7.53592 7.62368 7.4387 7.50819 7.41303C7.23178 7.35386 6.96909 7.24335 6.73344 7.08725C6.63395 7.02143 6.50321 7.02852 6.41143 7.10461L6.05756 7.39809L5.73449 7.07578L6.02767 6.72221C6.10315 6.63103 6.11055 6.5012 6.04579 6.40186C5.89044 6.16485 5.77903 5.90171 5.71698 5.62514C5.69132 5.51086 5.5953 5.42587 5.47861 5.41455L5.0239 5.37016V4.91077L5.48661 4.86609C5.60391 4.85492 5.70068 4.76947 5.72619 4.65443ZM7.99899 7.1114C9.0873 7.1099 9.96849 6.22689 9.96758 5.13873C9.96653 4.05042 9.08383 3.16893 7.99566 3.16938C6.9075 3.16983 6.02556 4.05208 6.02556 5.14039C6.02737 6.22916 6.91022 7.1108 7.99899 7.1114Z" fill="#A0A7B9"/>
<path d="M3.76955 14.5701H5.60394V12.4832H10.3962V14.5701H12.2304C12.3799 14.5701 12.501 14.6912 12.501 14.8406C12.501 14.9899 12.3799 15.1112 12.2304 15.1112H3.76955C3.62024 15.1112 3.49901 14.9899 3.49901 14.8406C3.49901 14.6912 3.62024 14.5701 3.76955 14.5701Z" fill="#A0A7B9"/>
</g>
<defs>
<clipPath id="clip0">
<rect width="16" height="16" fill="white" transform="matrix(-1 0 0 1 16 0)"/>
</clipPath>
</defs>
</svg>
