<svg width="22" height="22" viewBox="0 0 22 22" fill="none" xmlns="http://www.w3.org/2000/svg">
<path d="M11 0.95C5.45839 0.95 0.95 5.45839 0.95 11C0.95 16.5416 5.45839 21.05 11 21.05C16.5416 21.05 21.05 16.5416 21.05 11C21.05 5.45839 16.5416 0.95 11 0.95ZM11 18.8222C6.68694 18.8222 3.17762 15.3133 3.17762 11C3.17762 6.68674 6.68694 3.17783 11 3.17783C15.3131 3.17783 18.8224 6.68674 18.8224 11C18.8224 15.3133 15.3131 18.8222 11 18.8222Z" fill="#6861AC" stroke="#6861AC" stroke-width="0.1"/>
<path d="M16.2111 10.4912H11.9171V5.28774C11.9171 4.72257 11.4589 4.26436 10.8937 4.26436C10.3285 4.26436 9.87031 4.72257 9.87031 5.28774V11.5146C9.87031 12.0798 10.3285 12.538 10.8937 12.538H16.2111C16.7763 12.538 17.2345 12.0798 17.2345 11.5146C17.2345 10.9494 16.7763 10.4912 16.2111 10.4912Z" fill="#6861AC" stroke="#6861AC" stroke-width="0.4"/>
</svg>
