<svg width="16" height="16" viewBox="0 0 16 16" fill="none" xmlns="http://www.w3.org/2000/svg">
<path d="M11.279 7.06234C11.279 6.71945 11.001 6.4415 10.6581 6.4415H5.29354C4.95065 6.4415 4.67271 6.71945 4.67271 7.06234C4.67271 7.40522 4.95065 7.68317 5.29354 7.68317H10.6581C11.001 7.68317 11.279 7.40522 11.279 7.06234Z" fill="" stroke="#717889" stroke-width="0.2"/>
<path d="M5.29354 8.525C4.95065 8.525 4.67271 8.80295 4.67271 9.14583C4.67271 9.48872 4.95065 9.76667 5.29354 9.76667H8.55163C8.89451 9.76667 9.17246 9.48872 9.17246 9.14583C9.17246 8.80295 8.89451 8.525 8.55163 8.525H5.29354Z" fill="#717889" stroke="#717889" stroke-width="0.2"/>
<path d="M6.51737 13.5249H4.77547C4.25633 13.5249 3.83381 13.1024 3.83381 12.5833V3.41659C3.83381 2.89744 4.25633 2.47492 4.77547 2.47492H11.1788C11.698 2.47492 12.1205 2.89744 12.1205 3.41659V6.61971C12.1205 6.96259 12.3984 7.24054 12.7413 7.24054C13.0842 7.24054 13.3622 6.96259 13.3622 6.61971V3.41659C13.3622 2.21261 12.3828 1.23325 11.1788 1.23325H4.77547C3.57149 1.23325 2.59214 2.21261 2.59214 3.41659V12.5833C2.59214 13.7872 3.57149 14.7666 4.77547 14.7666H6.51737C6.86026 14.7666 7.13821 14.4886 7.13821 14.1458C7.13821 13.8029 6.86026 13.5249 6.51737 13.5249Z" fill="#717889" stroke="#717889" stroke-width="0.2"/>
<path d="M12.7117 9.61083L12.6819 9.64055L12.7526 9.71126M12.7117 9.61083L12.6818 9.7819L12.7526 9.71126M12.7117 9.61083C12.9148 9.40775 13.2452 9.40775 13.4482 9.61083C13.6513 9.8139 13.6513 10.1443 13.4486 10.3471L13.378 10.2763M12.7117 9.61083L13.378 10.2763M12.7526 9.71126L12.7823 9.68161L12.7824 9.68154C12.9464 9.51752 13.2135 9.51752 13.3775 9.68154C13.5416 9.84557 13.5415 10.1126 13.378 10.2763M12.7526 9.71126L13.3478 10.3064L13.3779 10.2764L13.378 10.2763M9.0454 11.6561L9.0454 11.6561C8.973 11.7284 8.91962 11.8173 8.88989 11.9152L8.88988 11.9152L8.26715 13.9653L8.36283 13.9944C8.30762 14.1761 8.35572 14.3735 8.48838 14.5095C8.58775 14.6113 8.72275 14.6666 8.86122 14.6666C8.90755 14.6666 8.95432 14.6604 9.00023 14.6477L9.02692 14.744L9.02695 14.744L11.1291 14.1617C11.1291 14.1617 11.1291 14.1617 11.1291 14.1617C11.2323 14.1332 11.3262 14.0784 11.402 14.0028C11.402 14.0028 11.402 14.0028 11.402 14.0028L14.2555 11.1547L14.2555 11.1547C14.9038 10.5064 14.9038 9.45182 14.2555 8.8035L14.1848 8.87421L14.2555 8.8035C13.6072 8.15525 12.5527 8.15519 11.9048 8.80308L9.0454 11.6561ZM12.4689 11.1836L10.6404 13.0087L9.78331 13.2461L10.0327 12.4251L11.8736 10.5883L12.4689 11.1836Z" fill="#717889" stroke="#717889" stroke-width="0.2"/>
<path d="M10.6581 4.35825H5.29354C4.95065 4.35825 4.67271 4.6362 4.67271 4.97909C4.67271 5.32197 4.95065 5.59992 5.29354 5.59992H10.6581C11.001 5.59992 11.279 5.32197 11.279 4.97909C11.279 4.6362 11.001 4.35825 10.6581 4.35825Z" fill="#717889" stroke="#717889" stroke-width="0.2"/>
</svg>
