<svg width="12" height="8" viewBox="0 0 12 8" fill="none" xmlns="http://www.w3.org/2000/svg">
<path d="M6.00065 5.02865L2.19136 1.21936C1.76117 0.789168 1.05852 0.801748 0.63086 1.21844L0.630855 1.21844L0.630009 1.21928C0.527998 1.32109 0.447066 1.44201 0.391846 1.57513C0.336626 1.70825 0.308203 1.85095 0.308203 1.99507C0.308203 2.13919 0.336626 2.28189 0.391846 2.41501C0.447062 2.54812 0.527986 2.66903 0.629987 2.77083C0.629994 2.77084 0.630001 2.77084 0.630009 2.77085L5.21986 7.36071C5.32167 7.46272 5.44259 7.54365 5.57571 7.59887C5.70883 7.65409 5.85153 7.68251 5.99565 7.68251C6.13977 7.68251 6.28247 7.65409 6.41559 7.59887C6.54871 7.54365 6.66963 7.46272 6.77143 7.36071L11.3614 2.77078C11.4632 2.66891 11.544 2.54798 11.5992 2.41488C11.6543 2.28178 11.6827 2.13913 11.6827 1.99507C11.6827 1.85101 11.6543 1.70835 11.5992 1.57526C11.544 1.44216 11.4632 1.32123 11.3614 1.21936C11.2595 1.11749 11.1386 1.03668 11.0055 0.981553C10.8724 0.926423 10.7297 0.898047 10.5856 0.898047C10.4416 0.898047 10.2989 0.926423 10.1658 0.981553C10.0327 1.03668 9.9118 1.11749 9.80994 1.21936L6.00065 5.02865Z" fill="#6861AC" stroke="#717889" stroke-width="0.2"/>
</svg>
