<svg width="20" height="20" viewBox="0 0 20 20" fill="none" xmlns="http://www.w3.org/2000/svg">
<circle opacity="0.15" cx="10" cy="10" r="10" fill="#A0A7B9"/>
<g clip-path="url(#clip0)">
<path d="M10.0008 4.44434C6.93754 4.44434 4.44531 6.93651 4.44531 9.99986C4.44531 13.0632 6.93754 15.5554 10.0008 15.5554C13.0641 15.5554 15.5564 13.0632 15.5564 9.99986C15.5564 6.93651 13.0642 4.44434 10.0008 4.44434ZM13.1909 9.06149L9.70067 12.5517C9.55226 12.7001 9.35498 12.7818 9.14513 12.7818C8.93528 12.7818 8.738 12.7001 8.58959 12.5517L6.81076 10.7729C6.66235 10.6245 6.58061 10.4272 6.58061 10.2174C6.58061 10.0075 6.66235 9.81018 6.81076 9.66178C6.95911 9.51337 7.15638 9.43163 7.36629 9.43163C7.57615 9.43163 7.77348 9.51337 7.92183 9.66183L9.14507 10.885L12.0797 7.95036C12.2281 7.80195 12.4254 7.72027 12.6353 7.72027C12.8451 7.72027 13.0424 7.80195 13.1908 7.95036C13.4972 8.25679 13.4972 8.75517 13.1909 9.06149Z" fill="#A0A7B9"/>
</g>
<defs>
<clipPath id="clip0">
<rect width="11.1111" height="11.1111" fill="white" transform="translate(4.44531 4.44434)"/>
</clipPath>
</defs>
</svg>
