<svg width="16" height="16" viewBox="0 0 16 16" fill="none" xmlns="http://www.w3.org/2000/svg">
<path d="M8.95581 14.0062C8.83551 14.1763 8.65936 14.2998 8.4585 14.3553L7.45957 14.6281C7.38116 14.6503 7.30024 14.6618 7.21861 14.6618C7.03458 14.6618 6.85664 14.6055 6.70662 14.4999C6.48642 14.3467 6.34822 14.105 6.32638 13.8433L6.23866 12.8118C6.2179 12.6002 6.27482 12.3882 6.39512 12.2178L6.432 12.1648H2.86881C2.5813 12.1648 2.34822 11.9278 2.34822 11.641C2.34822 11.3531 2.5813 11.1161 2.86881 11.1161H7.18173L8.14557 9.73945H2.86881C2.5813 9.73945 2.34822 9.50243 2.34822 9.21492C2.34822 8.92742 2.5813 8.6904 2.86881 8.6904L8.88778 8.675L11.1449 5.43869V3.04235C11.1449 2.6485 10.8402 2.33057 10.4474 2.33057H8.71951V3.69791C8.71951 4.34346 8.19176 4.85402 7.54729 4.85402H4.07217C3.42627 4.85402 2.91679 4.3431 2.91679 3.69791V2.33057H1.17028C0.776792 2.33057 0.458496 2.64886 0.458496 3.04235V15.2704C0.458496 15.6643 0.77715 15.9997 1.17028 15.9997H10.4467C10.8405 15.9997 11.1445 15.6639 11.1445 15.2704V10.8981L8.95581 14.0062ZM2.86881 6.26433H8.74922C9.03601 6.26433 9.26945 6.50099 9.26945 6.7885C9.26945 7.076 9.03601 7.31302 8.74922 7.31302H2.86881C2.5813 7.31302 2.34822 7.076 2.34822 6.7885C2.34822 6.50099 2.5813 6.26433 2.86881 6.26433Z" fill="#A0A7B9"/>
<path d="M4.08153 4.16613H7.55342C7.81622 4.16613 8.02997 3.95274 8.02997 3.68922V1.69245C8.02997 1.42893 7.81622 1.21554 7.55342 1.21554H7.03033C7.02675 0.544218 6.4811 0 5.80835 0C5.13523 0 4.5903 0.54386 4.58636 1.21554H4.08153C3.81801 1.21554 3.60498 1.42893 3.60498 1.69245V3.68887C3.60498 3.95238 3.81801 4.16613 4.08153 4.16613ZM5.8087 0.67705C6.10767 0.67705 6.35006 0.917651 6.35328 1.2159H5.26305C5.26663 0.917651 5.50938 0.67705 5.8087 0.67705Z" fill="#A0A7B9"/>
<path d="M15.5369 3.21455C15.5207 3.12575 15.4703 3.04806 15.3965 2.9965L14.5272 2.3907C14.4685 2.34953 14.4008 2.32983 14.3342 2.32983C14.2282 2.32983 14.1226 2.37996 14.0578 2.47412L7.8999 11.3044L9.32239 12.2965L15.481 3.4666C15.5318 3.39321 15.5522 3.30262 15.5369 3.21455Z" fill="#A0A7B9"/>
<path d="M6.93028 12.7462L7.01944 13.7831C7.02373 13.8429 7.0556 13.8963 7.10393 13.9306C7.1383 13.9543 7.17876 13.9679 7.21886 13.9679C7.23641 13.9679 7.25431 13.9654 7.27149 13.9603L8.27579 13.6854C8.32126 13.6728 8.36065 13.6449 8.38786 13.6066L8.76487 13.066L7.34131 12.0735L6.9643 12.6141C6.9378 12.6524 6.92527 12.6993 6.93028 12.7462Z" fill="#A0A7B9"/>
</svg>
