<svg width="13" height="13" viewBox="0 0 13 13" fill="none" xmlns="http://www.w3.org/2000/svg">
<path d="M7.84494 2.98313C8.44603 3.35289 8.86752 3.9786 8.94425 4.70491C9.18939 4.81728 9.46146 4.88191 9.74992 4.88191C10.803 4.88191 11.6565 4.0445 11.6565 3.01147C11.6565 1.97828 10.803 1.14087 9.74992 1.14087C8.7069 1.14119 7.86084 1.96363 7.84494 2.98313ZM6.59588 6.81315C7.64896 6.81315 8.50248 5.97558 8.50248 4.94255C8.50248 3.90952 7.6488 3.07211 6.59588 3.07211C5.54297 3.07211 4.68896 3.90968 4.68896 4.94271C4.68896 5.97574 5.54297 6.81315 6.59588 6.81315ZM7.40463 6.94064H5.78681C4.44073 6.94064 3.34564 8.01522 3.34564 9.33588V11.277L3.35067 11.3074L3.48695 11.3493C4.77153 11.743 5.88756 11.8744 6.80614 11.8744C8.60031 11.8744 9.64025 11.3725 9.70433 11.3405L9.83169 11.2773H9.84531V9.33588C9.8458 8.01522 8.75071 6.94064 7.40463 6.94064ZM10.559 5.00956H8.95366C8.9363 5.63973 8.66212 6.20718 8.22847 6.6153C9.42496 6.96436 10.3004 8.05294 10.3004 9.33874V9.93691C11.8854 9.87993 12.7988 9.43918 12.859 9.40957L12.9864 9.34622H13V7.40447C13 6.08398 11.9049 5.00956 10.559 5.00956ZM3.25041 4.88222C3.62339 4.88222 3.97041 4.77542 4.26438 4.59348C4.35783 3.99547 4.68458 3.47291 5.15133 3.117C5.15328 3.08198 5.15668 3.04728 5.15668 3.01194C5.15668 1.97875 4.303 1.14135 3.25041 1.14135C2.19717 1.14135 1.3438 1.97875 1.3438 3.01194C1.3438 4.04466 2.19717 4.88222 3.25041 4.88222ZM4.96265 6.6153C4.5311 6.20925 4.25789 5.64482 4.23794 5.01848C4.1784 5.01418 4.11951 5.00956 4.05883 5.00956H2.44117C1.0951 5.00956 0 6.08398 0 7.40447V9.3459L0.00502933 9.37583L0.141308 9.41801C1.17183 9.73365 2.09155 9.87913 2.8904 9.92497V9.33874C2.89073 8.05294 3.76583 6.96468 4.96265 6.6153Z" fill="#717889"/>
</svg>
