<svg width="24" height="24" viewBox="0 0 24 24" fill="none" xmlns="http://www.w3.org/2000/svg">
<path d="M12 13.0285L8.19069 9.21923C7.7605 8.78905 7.05785 8.80163 6.63019 9.21832L6.63018 9.21832L6.62934 9.21916C6.52733 9.32096 6.44639 9.44189 6.39117 9.57501C6.33595 9.70812 6.30753 9.85083 6.30753 9.99495C6.30753 10.1391 6.33595 10.2818 6.39117 10.4149C6.44639 10.548 6.52731 10.6689 6.62932 10.7707C6.62932 10.7707 6.62933 10.7707 6.62934 10.7707L11.2192 15.3606C11.321 15.4626 11.4419 15.5435 11.575 15.5987C11.7082 15.654 11.8509 15.6824 11.995 15.6824C12.1391 15.6824 12.2818 15.654 12.4149 15.5987C12.548 15.5435 12.669 15.4626 12.7708 15.3606L17.3607 10.7707C17.4626 10.6688 17.5434 10.5479 17.5985 10.4148C17.6536 10.2817 17.682 10.139 17.682 9.99495C17.682 9.85088 17.6536 9.70823 17.5985 9.57513C17.5434 9.44204 17.4626 9.3211 17.3607 9.21923C17.2588 9.11737 17.1379 9.03656 17.0048 8.98143C16.8717 8.9263 16.729 8.89792 16.585 8.89792C16.4409 8.89792 16.2983 8.9263 16.1652 8.98143C16.0321 9.03656 15.9111 9.11737 15.8093 9.21923L12 13.0285Z" fill="#6861AC" stroke="#6861AC" stroke-width="0.2"/>
</svg>
