<svg width="40" height="40" viewBox="0 0 40 40" fill="none" xmlns="http://www.w3.org/2000/svg">
<circle opacity="0.15" cx="20" cy="20" r="20" fill="#1BBD9F"/>
<g clip-path="url(#clip0)">
<path d="M29.2857 19.2857H17.7557C17.3684 17.7638 15.8206 16.844 14.2986 17.2314C13.2893 17.4882 12.5012 18.2764 12.2443 19.2857H10.7143C10.3198 19.2857 10 19.6055 10 20C10 20.3945 10.3198 20.7142 10.7143 20.7142H12.2443C12.6317 22.2362 14.1794 23.1559 15.7014 22.7686C16.7107 22.5117 17.4989 21.7236 17.7558 20.7142H29.2857C29.6802 20.7142 30 20.3945 30 19.9999C30 19.6054 29.6802 19.2857 29.2857 19.2857Z" fill="#1BBD9F"/>
<path d="M29.2857 12.1426H27.0414C26.6541 10.6207 25.1063 9.70094 23.5843 10.0883C22.575 10.3452 21.7869 11.1333 21.53 12.1426H10.7143C10.3198 12.1426 10 12.4624 10 12.8569C10 13.2514 10.3198 13.5712 10.7143 13.5712H21.53C21.9173 15.0932 23.4651 16.0129 24.9871 15.6256C25.9964 15.3687 26.7845 14.5805 27.0414 13.5712H29.2857C29.6802 13.5712 30 13.2514 30 12.8569C30 12.4624 29.6802 12.1426 29.2857 12.1426Z" fill="#1BBD9F"/>
<path d="M29.2857 26.4285H25.6128C25.2255 24.9066 23.6777 23.9868 22.1557 24.3742C21.1464 24.6311 20.3583 25.4192 20.1014 26.4285H10.7143C10.3198 26.4285 10 26.7483 10 27.1428C10 27.5372 10.3198 27.8571 10.7143 27.8571H20.1014C20.4888 29.379 22.0366 30.2988 23.5585 29.9114C24.5679 29.6545 25.356 28.8664 25.6129 27.8571H29.2857C29.6802 27.8571 30 27.5373 30 27.1428C30 26.7483 29.6802 26.4285 29.2857 26.4285Z" fill="#1BBD9F"/>
</g>
<defs>
<clipPath id="clip0">
<rect width="20" height="20" fill="white" transform="translate(10 10)"/>
</clipPath>
</defs>
</svg>
