<svg width="60" height="60" viewBox="0 0 60 60" fill="none" xmlns="http://www.w3.org/2000/svg">
<circle opacity="0.15" cx="30" cy="30" r="30" fill="#A0A7B9"/>
<path d="M44.4828 18.1034H15.5172C15.2317 18.1034 15 18.3346 15 18.6206V41.3793C15 41.6653 15.2317 41.8965 15.5172 41.8965H44.4828C44.7683 41.8965 45 41.6653 45 41.3793V18.6206C45 18.3346 44.7683 18.1034 44.4828 18.1034ZM20.1724 40.862H16.0345V36.2068H20.1724V40.862ZM20.1724 35.1724H16.0345V30.5172H20.1724V35.1724ZM20.1724 29.4827H16.0345V24.8275H20.1724V29.4827ZM20.1724 23.793H16.0345V19.1379H20.1724V23.793ZM33.8984 30.4365L28.2088 34.0572C28.1245 34.1105 28.0278 34.1379 27.931 34.1379C27.8452 34.1379 27.7598 34.1167 27.6822 34.0743C27.5167 33.9832 27.4138 33.8094 27.4138 33.6206V26.3793C27.4138 26.1905 27.5167 26.0167 27.6822 25.9256C27.8478 25.8351 28.0495 25.8418 28.2093 25.9427L33.899 29.5634C34.0474 29.6586 34.1379 29.823 34.1379 29.9999C34.1379 30.1768 34.0474 30.3413 33.8984 30.4365ZM43.9655 40.862H39.8276V36.2068H43.9655V40.862ZM43.9655 35.1724H39.8276V30.5172H43.9655V35.1724ZM43.9655 29.4827H39.8276V24.8275H43.9655V29.4827ZM43.9655 23.793H39.8276V19.1379H43.9655V23.793Z" fill="#A0A7B9"/>
</svg>
