<svg width="12" height="7" viewBox="0 0 12 7" fill="none" xmlns="http://www.w3.org/2000/svg">
<path d="M1.88725 6.29245L5.76725 2.41245L9.64725 6.29245C9.73983 6.38503 9.84974 6.45847 9.97071 6.50858C10.0917 6.55868 10.2213 6.58447 10.3522 6.58447C10.4832 6.58447 10.6128 6.55868 10.7338 6.50858C10.8548 6.45847 10.9647 6.38503 11.0572 6.29245C11.1498 6.19987 11.2233 6.08996 11.2734 5.969C11.3235 5.84803 11.3493 5.71838 11.3493 5.58745C11.3493 5.45652 11.3235 5.32687 11.2734 5.20591C11.2233 5.08494 11.1498 4.97503 11.0572 4.88245L6.46725 0.292452C6.37473 0.199749 6.26485 0.126201 6.14387 0.0760193C6.0229 0.0258379 5.89322 7.62939e-06 5.76225 7.62939e-06C5.63128 7.62939e-06 5.5016 0.0258379 5.38062 0.0760193C5.25965 0.126201 5.14976 0.199749 5.05725 0.292452L0.467248 4.88245C0.374545 4.97497 0.300997 5.08485 0.250816 5.20583C0.200634 5.3268 0.174805 5.45648 0.174805 5.58745C0.174805 5.71842 0.200634 5.8481 0.250816 5.96908C0.300997 6.09005 0.374545 6.19994 0.467248 6.29245C0.857248 6.67245 1.49725 6.68245 1.88725 6.29245Z" fill="#454C5C"/>
</svg>
