<svg width="60" height="60" viewBox="0 0 60 60" fill="none" xmlns="http://www.w3.org/2000/svg">
<circle opacity="0.15" cx="30" cy="30" r="30" fill="#A0A7B9"/>
<g clip-path="url(#clip0)">
<path d="M20.5664 21.4453H29.9414C30.4269 21.4453 30.8203 21.0519 30.8203 20.5664V18.2227C30.8203 17.7372 30.4269 17.3438 29.9414 17.3438H28.3548C27.9712 15.9927 26.7263 15 25.2539 15C23.7815 15 22.5366 15.9924 22.153 17.3438H20.5664C20.0809 17.3438 19.6875 17.7372 19.6875 18.2227V20.5664C19.6875 21.0519 20.0809 21.4453 20.5664 21.4453Z" fill="#A0A7B9"/>
<path d="M44.3995 23.9692C43.5986 23.1683 42.3002 23.1683 41.4991 23.9692L39.6346 25.8337L41.9133 28.1124C42.7131 28.9119 42.7131 30.2131 41.9133 31.0126L39.0132 33.913C38.6701 34.2561 38.6701 34.8125 39.0132 35.1558C39.3565 35.4991 39.9129 35.4991 40.2562 35.1558L43.1564 32.2556C44.4274 30.9844 44.6096 29.0316 43.7048 27.564L44.3995 26.8694C45.2003 26.0685 45.2003 24.7701 44.3995 23.9692Z" fill="#A0A7B9"/>
<path d="M29.7661 35.7394L27.2803 39.8827C27.0727 40.2285 27.1271 40.6712 27.4123 40.9563C27.6975 41.2415 28.1402 41.296 28.486 41.0886L32.6292 38.6025C32.6908 38.5657 32.7478 38.5213 32.7986 38.4705L41.2922 29.9769L38.392 27.0767L29.8982 35.5701C29.8474 35.6211 29.803 35.6779 29.7661 35.7394Z" fill="#A0A7B9"/>
<path d="M33.5332 40.1099L29.3903 42.5958C28.9808 42.8416 28.5116 42.9716 28.0341 42.9716C28.0339 42.9716 28.0339 42.9716 28.0339 42.9716C27.3294 42.9716 26.6673 42.6972 26.1694 42.1994C25.3123 41.3422 25.1491 40.0177 25.7728 38.9783L28.2587 34.8351C28.3697 34.6502 28.5033 34.479 28.6558 34.3266L35.5078 27.4747V19.9805C35.5078 19.495 35.1144 19.1016 34.6289 19.1016H32.5781V20.5664C32.5781 22.0203 31.3953 23.2031 29.9414 23.2031H20.5664C19.1125 23.2031 17.9297 22.0203 17.9297 20.5664V19.1016H15.8789C15.3934 19.1016 15 19.495 15 19.9805V44.1211C15 44.6063 15.3934 45 15.8789 45H34.6289C35.1144 45 35.5078 44.6063 35.5078 44.1211V38.2471L34.0414 39.7133C33.8889 39.8657 33.7182 39.9992 33.5332 40.1099ZM24.0234 25.2539H31.0547C31.5401 25.2539 31.9336 25.6474 31.9336 26.1328C31.9336 26.6183 31.5401 27.0117 31.0547 27.0117H24.0234C23.5382 27.0117 23.1445 26.6183 23.1445 26.1328C23.1445 25.6474 23.5382 25.2539 24.0234 25.2539ZM24.0234 28.7695H31.0547C31.5401 28.7695 31.9336 29.163 31.9336 29.6484C31.9336 30.1339 31.5401 30.5273 31.0547 30.5273H24.0234C23.5382 30.5273 23.1445 30.1339 23.1445 29.6484C23.1445 29.163 23.5382 28.7695 24.0234 28.7695ZM19.3945 25.2539H20.5664C21.0519 25.2539 21.4453 25.6474 21.4453 26.1328C21.4453 26.6183 21.0519 27.0117 20.5664 27.0117H19.3945C18.9093 27.0117 18.5156 26.6183 18.5156 26.1328C18.5156 25.6474 18.9093 25.2539 19.3945 25.2539ZM19.3945 28.7695H20.5664C21.0519 28.7695 21.4453 29.163 21.4453 29.6484C21.4453 30.1339 21.0519 30.5273 20.5664 30.5273H19.3945C18.9093 30.5273 18.5156 30.1339 18.5156 29.6484C18.5156 29.163 18.9093 28.7695 19.3945 28.7695ZM24.082 39.0234H22.6172V40.4883C22.6172 40.9735 22.2237 41.3672 21.7383 41.3672C21.2531 41.3672 20.8594 40.9735 20.8594 40.4883V39.0234H19.3945C18.9093 39.0234 18.5156 38.63 18.5156 38.1445C18.5156 37.6591 18.9093 37.2656 19.3945 37.2656H20.8594V35.8008C20.8594 35.3153 21.2531 34.9219 21.7383 34.9219C22.2237 34.9219 22.6172 35.3153 22.6172 35.8008V37.2656H24.082C24.5675 37.2656 24.9609 37.6591 24.9609 38.1445C24.9609 38.63 24.5675 39.0234 24.082 39.0234Z" fill="#A0A7B9"/>
</g>
<defs>
<clipPath id="clip0">
<rect x="15" y="15" width="30" height="30" fill="white"/>
</clipPath>
</defs>
</svg>
