<svg width="48" height="36" viewBox="0 0 48 36" fill="none" xmlns="http://www.w3.org/2000/svg">
<path d="M37.5055 35.463H29.7474H27.6584H27.2072V25.0568H30.6105C31.4736 25.0568 31.9837 24.076 31.4736 23.3699L24.8533 14.2092C24.4315 13.6208 23.5586 13.6208 23.1369 14.2092L16.5166 23.3699C16.0065 24.076 16.5067 25.0568 17.3796 25.0568H20.783V35.463H20.3318H18.2427H9.24888C4.09971 35.1786 0 30.3629 0 25.1451C0 21.5456 1.95178 18.407 4.84512 16.7103C4.5803 15.9943 4.44299 15.2293 4.44299 14.425C4.44299 10.747 7.41479 7.77524 11.0928 7.77524C11.8872 7.77524 12.6522 7.91255 13.3682 8.17736C15.4965 3.66572 20.0866 0.536987 25.4221 0.536987C32.3269 0.546795 38.0155 5.83327 38.6629 12.5713C43.9689 13.4835 48 18.3972 48 23.9583C48 29.9019 43.3707 35.0511 37.5055 35.463Z" fill="#6861AC"/>
</svg>
