<svg width="16" height="16" viewBox="0 0 16 16" fill="none" xmlns="http://www.w3.org/2000/svg">
<path d="M1.13358 1.25098H14.863C15.4882 1.25098 15.9968 1.75951 15.9968 2.38468L16 11.7387C16 12.3638 15.4916 12.8743 14.8664 12.8743H10.3745V13.9992H11.2517C11.3207 13.9992 11.3744 14.0579 11.3744 14.1269V14.6203C11.3744 14.6893 11.3208 14.7492 11.2517 14.7492H4.77118C4.70244 14.7492 4.62556 14.6893 4.62556 14.6203V14.1269C4.62556 14.0579 4.70244 13.9992 4.77118 13.9992H5.62547V12.8743H1.13663C0.511961 12.8743 0.00292397 12.3638 0.00292397 11.7387L9.53674e-07 2.3857C-0.000125885 1.7604 0.508403 1.25098 1.13358 1.25098ZM8.01563 11.993C8.22288 11.993 8.39061 11.8251 8.39061 11.618C8.39061 11.411 8.22288 11.2432 8.01563 11.2432C7.80851 11.2432 7.64065 11.411 7.64065 11.618C7.64065 11.8251 7.80838 11.993 8.01563 11.993ZM1.00105 10.3746H14.999V2.25075H1.00105V10.3746Z" fill="#A0A7B9"/>
</svg>
