<svg width="20" height="20" viewBox="0 0 20 20" fill="none" xmlns="http://www.w3.org/2000/svg">
<g clip-path="url(#clip0)">
<path d="M10.4314 12.2724L9.88664 11.0631C10.4059 10.6819 10.852 10.2077 11.2004 9.66649L12.4408 10.1365C12.678 10.2264 12.943 10.1069 13.0328 9.86981L13.4887 8.66656C13.5318 8.55269 13.528 8.42633 13.4779 8.31531C13.4279 8.20429 13.3359 8.11769 13.2219 8.07453L11.9816 7.60455C12.0793 6.96816 12.0594 6.31764 11.9231 5.68796L13.1324 5.14323C13.2434 5.09318 13.33 5.00117 13.3731 4.88721C13.4163 4.77334 13.4124 4.64698 13.3624 4.53596L12.8339 3.36283C12.7298 3.1316 12.4578 3.02875 12.2267 3.1328L11.0174 3.67753C10.6362 3.15823 10.162 2.71222 9.62079 2.36372L10.0908 1.12338C10.1806 0.886271 10.0612 0.621158 9.8241 0.531348L8.62095 0.0754125C8.50717 0.0323443 8.38081 0.0361093 8.2697 0.0861566C8.15868 0.136204 8.07208 0.228217 8.02892 0.342178L7.55903 1.58243C6.922 1.48417 6.27038 1.50447 5.64235 1.64084L5.09771 0.431621C5.04766 0.320598 4.95565 0.234003 4.84169 0.190843C4.72791 0.147774 4.60146 0.151539 4.49044 0.201587L3.31722 0.730068C3.08599 0.834203 2.98305 1.10602 3.08719 1.33725L3.63192 2.54655C3.11262 2.92774 2.6666 3.40195 2.31811 3.9432L1.07776 3.47321C0.963987 3.43014 0.837629 3.434 0.726515 3.48395C0.615492 3.534 0.528897 3.62602 0.485737 3.73998L0.0298932 4.94313C-0.0599164 5.18024 0.0594624 5.44535 0.296567 5.53516L1.53691 6.00514C1.43921 6.64143 1.45904 7.29214 1.59541 7.92173L0.38601 8.46646C0.274987 8.51651 0.188392 8.60852 0.145232 8.72248C0.102071 8.83635 0.105928 8.96271 0.155976 9.07373L0.684457 10.2469C0.734412 10.3579 0.826517 10.4445 0.940387 10.4876C1.05435 10.5308 1.18061 10.527 1.29164 10.4769L2.50094 9.93216C2.88213 10.4515 3.35625 10.8975 3.89758 11.246L3.4276 12.4863C3.33779 12.7234 3.45717 12.9885 3.69427 13.0783L4.89752 13.5342C4.94995 13.554 5.00514 13.5639 5.06015 13.5639C5.12452 13.5639 5.1889 13.5504 5.24877 13.5234C5.35979 13.4734 5.44639 13.3814 5.48955 13.2674L5.95944 12.0272C6.59647 12.1253 7.24818 12.1051 7.87611 11.9688L8.42076 13.178C8.4708 13.289 8.56282 13.3756 8.67678 13.4188C8.79065 13.4619 8.9171 13.4581 9.02803 13.408L10.2012 12.8796C10.4325 12.7755 10.5355 12.5037 10.4314 12.2724ZM9.67047 7.90786C9.21472 9.11083 8.04453 9.91903 6.75864 9.91903C6.3825 9.91903 6.0116 9.85071 5.65622 9.71608C4.8786 9.42149 4.26224 8.84168 3.92073 8.08344C3.57921 7.32529 3.55341 6.47945 3.848 5.70183C4.30375 4.49886 5.47394 3.69066 6.75983 3.69066C7.13597 3.69066 7.50687 3.75899 7.86225 3.89361C8.63986 4.1882 9.25623 4.76801 9.59774 5.52616C9.93935 6.2844 9.96515 7.13024 9.67047 7.90786ZM19.8791 14.1776C19.7968 14.0879 19.6821 14.0346 19.5605 14.0293L18.6957 13.9922C18.6161 13.584 18.4723 13.19 18.2702 12.8263L18.908 12.2409C19.0949 12.0695 19.1073 11.779 18.9358 11.5923L18.3026 10.9022C18.2203 10.8125 18.1056 10.7592 17.9839 10.7539C17.8625 10.7494 17.7435 10.7921 17.6538 10.8744L17.0161 11.4597C16.6709 11.2273 16.2907 11.0504 15.8908 10.9361L15.9279 10.0713C15.9388 9.81792 15.7422 9.60377 15.4888 9.59294L14.5532 9.55281C14.3011 9.54326 14.0857 9.73858 14.0748 9.99185L14.0377 10.8567C13.6296 10.9363 13.2356 11.0801 12.8718 11.2821L12.2864 10.6443C12.2041 10.5546 12.0895 10.5012 11.9679 10.496C11.8463 10.491 11.7275 10.5342 11.6377 10.6165L10.9477 11.2497C10.7609 11.4212 10.7485 11.7116 10.9199 11.8984L11.5052 12.5362C11.2728 12.8814 11.0959 13.2615 10.9816 13.6615L10.1169 13.6244C9.8646 13.6142 9.64926 13.81 9.63842 14.0634L9.59829 14.9991C9.59306 15.1207 9.6364 15.2395 9.71877 15.3292C9.80105 15.4189 9.91575 15.4723 10.0374 15.4775L10.9022 15.5145C10.9818 15.9227 11.1256 16.3167 11.3275 16.6806L10.6899 17.2659C10.6002 17.3482 10.5468 17.4629 10.5416 17.5844C10.5363 17.7061 10.5797 17.8248 10.662 17.9146L11.2953 18.6046C11.3776 18.6943 11.4923 18.7476 11.614 18.7529C11.7351 18.7577 11.8544 18.7147 11.9441 18.6324L12.5818 18.0471C12.9269 18.2795 13.3072 18.4565 13.707 18.5707L13.6699 19.4355C13.6591 19.6889 13.8556 19.903 14.109 19.9139L15.0446 19.954C15.0512 19.9543 15.0578 19.9544 15.0643 19.9544C15.1791 19.9544 15.2899 19.9114 15.3748 19.8335C15.4645 19.7513 15.5178 19.6366 15.5231 19.515L15.5602 18.6501C15.9683 18.5705 16.3623 18.4267 16.7261 18.2248L17.3115 18.8625C17.3937 18.9522 17.5084 19.0056 17.63 19.0108C17.7521 19.0162 17.8705 18.9726 17.9601 18.8903L18.6501 18.2571C18.837 18.0856 18.8494 17.7952 18.678 17.6084L18.0926 16.9706C18.3251 16.6255 18.502 16.2453 18.6163 15.8454L19.481 15.8825C19.7341 15.8922 19.9485 15.6968 19.9595 15.4434L19.9996 14.5078C20.0048 14.3861 19.9615 14.2674 19.8791 14.1776ZM14.7072 16.8925C13.5277 16.842 12.6092 15.8412 12.6598 14.6618C12.709 13.5126 13.6478 12.6124 14.797 12.6124C14.828 12.6124 14.8592 12.613 14.8905 12.6144C16.07 12.665 16.9885 13.6657 16.9379 14.8451C16.8873 16.0254 15.8963 16.9425 14.7072 16.8925Z" fill="#6861AC"/>
</g>
<defs>
<clipPath id="clip0">
<rect width="20" height="20" fill="white"/>
</clipPath>
</defs>
</svg>
