<svg width="16" height="16" viewBox="0 0 16 16" fill="none" xmlns="http://www.w3.org/2000/svg">
<path d="M13.4081 5.20117L14.5562 3.28687L12.7131 1.44385L10.7987 2.59192C10.4944 2.43408 10.1748 2.30225 9.84521 2.19739L9.30322 0H6.69678L6.15479 2.19739C5.8252 2.30225 5.50562 2.43408 5.20117 2.59192L3.28687 1.44385L1.44385 3.28687L2.59192 5.20129C2.43408 5.50562 2.30225 5.8252 2.19739 6.15479L0 6.69678V9.30322L2.19739 9.84521C2.30225 10.1748 2.43408 10.4944 2.59192 10.7988L1.44385 12.7131L3.28687 14.5562L5.20129 13.4081C5.50562 13.566 5.8252 13.6978 6.15479 13.8026L6.69678 16H9.30322L9.84521 13.8026C10.1748 13.6978 10.4944 13.5659 10.7988 13.4081L12.7131 14.5562L14.5562 12.7131L13.4081 10.7987C13.566 10.4944 13.6978 10.1748 13.8026 9.84521L16 9.30322V6.69678L13.8026 6.15479C13.6978 5.8252 13.5659 5.50562 13.4081 5.20117ZM8 12.2188C5.67371 12.2188 3.78125 10.3263 3.78125 8C3.78125 5.67371 5.67371 3.78125 8 3.78125C10.3263 3.78125 12.2188 5.67371 12.2188 8C12.2188 10.3263 10.3263 12.2188 8 12.2188Z" fill="#717889"/>
<path d="M9.40625 7.0625C9.40625 6.28711 8.77539 5.65625 8 5.65625C7.22461 5.65625 6.59375 6.28711 6.59375 7.0625C6.59375 7.83789 7.22461 8.46875 8 8.46875C8.77539 8.46875 9.40625 7.83789 9.40625 7.0625Z" fill="#717889"/>
<path d="M8 8.46875C6.875 8.46875 5.9281 9.26562 5.70312 10.3344C6.2937 10.925 7.10938 11.2812 8 11.2812C8.89062 11.2812 9.7063 10.925 10.2969 10.3344C10.0768 9.2561 9.12207 8.46875 8 8.46875Z" fill="#717889"/>
</svg>
