<svg width="24" height="24" viewBox="0 0 24 24" fill="none" xmlns="http://www.w3.org/2000/svg">
<path d="M9.62501 18.521C9.55909 18.586 9.51313 18.6691 9.49207 18.7601L8.40205 23.3861C8.36213 23.554 8.41303 23.732 8.53498 23.8541C8.63001 23.9481 8.758 24.0001 8.88911 24.0001C8.92701 24.0001 8.96601 23.996 9.0041 23.9861L13.6292 22.8961C13.7191 22.8751 13.802 22.8291 13.8681 22.763L20.409 16.2221L16.1661 11.979L9.62501 18.521Z" fill="#1BBD9F"/>
<path d="M23.4137 10.389L21.9996 8.97485C21.2437 8.21899 19.9266 8.21899 19.1706 8.97485L17.2266 10.9189L21.4697 15.162L23.4137 13.218C23.7916 12.84 23.9996 12.338 23.9996 11.804C23.9996 11.269 23.7916 10.7669 23.4137 10.389Z" fill="#1BBD9F"/>
<path d="M6.84009 18.9999H2.49994C2.224 18.9999 2.00006 18.776 2.00006 18.5001V15.9999H9.50006C10.0519 15.9999 10.5 15.5521 10.5 15V11.0001H14.5701C15.1219 11.0001 15.57 10.552 15.57 9.99994C15.57 9.44806 15.1219 9 14.5701 9H10.5V6H17.0001V6.99994C17.0001 7.552 17.4479 8.00006 18 8.00006C18.5521 8.00006 18.9999 7.552 18.9999 6.99994V2.25C18.9999 1.00891 17.991 0 16.7499 0H2.25C1.00891 0 0 1.00891 0 2.25V18.5001C0 19.8779 1.12207 21 2.49994 21H6.84009C7.39197 21 7.84003 20.5519 7.84003 20.0001C7.84003 19.448 7.39197 18.9999 6.84009 18.9999ZM8.49994 14.0001H2.00006V11.0001H8.49994V14.0001ZM8.49994 9H2.00006V6H8.49994V9Z" fill="#1BBD9F"/>
</svg>
