<svg width="24" height="24" viewBox="0 0 24 24" fill="none" xmlns="http://www.w3.org/2000/svg">
<circle opacity="0.15" cx="12" cy="12" r="12" fill="#6861AC"/>
<path d="M10.7384 16.0917C10.8674 16.0919 10.9952 16.0666 11.1145 16.0174C11.2338 15.9681 11.3423 15.8957 11.4336 15.8044L11.3275 15.6983L11.4336 15.8044L17.3269 9.91106L17.327 9.91102C17.5113 9.72651 17.6149 9.47632 17.6148 9.21548C17.6147 8.95464 17.511 8.70452 17.3265 8.52014C17.142 8.33576 16.8918 8.23223 16.6309 8.23232C16.3701 8.23242 16.12 8.33612 15.9356 8.52063L10.7375 13.717L7.89861 10.8781C7.80802 10.7847 7.69978 10.7102 7.58017 10.6589C7.46017 10.6075 7.33112 10.5804 7.20055 10.5794C7.06998 10.5783 6.94052 10.6033 6.81971 10.6528C6.69889 10.7024 6.58916 10.7755 6.4969 10.8679C6.40463 10.9602 6.3317 11.0701 6.28234 11.191C6.23298 11.3119 6.20819 11.4414 6.20942 11.5719C6.21064 11.7025 6.23786 11.8315 6.28948 11.9514C6.34091 12.0709 6.41554 12.179 6.50905 12.2695L10.0431 15.8044L10.0431 15.8044C10.1344 15.8957 10.2429 15.9681 10.3623 16.0174C10.4815 16.0666 10.6093 16.0919 10.7384 16.0917ZM10.7384 16.0917C10.7383 16.0917 10.7382 16.0917 10.7381 16.0917L10.7384 15.9417L10.7387 16.0917C10.7386 16.0917 10.7385 16.0917 10.7384 16.0917Z" fill="#6861AC" stroke="#6861AC" stroke-width="0.3"/>
</svg>
