<svg width="4" height="6" viewBox="0 0 4 6" fill="none" xmlns="http://www.w3.org/2000/svg">
<path d="M3.35497 4.94004L1.41497 3.00004L3.35497 1.06004C3.40126 1.01375 3.43798 0.958796 3.46303 0.898314C3.48808 0.837832 3.50098 0.773008 3.50098 0.707543C3.50098 0.642077 3.48808 0.577253 3.46303 0.516771C3.43798 0.456289 3.40126 0.401333 3.35497 0.355042C3.30867 0.308751 3.25372 0.272031 3.19324 0.246979C3.13276 0.221927 3.06793 0.209033 3.00247 0.209033C2.937 0.209033 2.87218 0.221927 2.81169 0.246979C2.75121 0.272031 2.69626 0.308751 2.64997 0.355042L0.354966 2.65004C0.308614 2.6963 0.27184 2.75124 0.24675 2.81173C0.221659 2.87222 0.208744 2.93706 0.208744 3.00254C0.208744 3.06803 0.221659 3.13287 0.24675 3.19335C0.27184 3.25384 0.308614 3.30879 0.354966 3.35504L2.64997 5.65004C2.69622 5.69639 2.75117 5.73317 2.81165 5.75826C2.87214 5.78335 2.93698 5.79626 3.00247 5.79626C3.06795 5.79626 3.13279 5.78335 3.19328 5.75826C3.25376 5.73317 3.30871 5.69639 3.35497 5.65004C3.54497 5.45504 3.54997 5.13504 3.35497 4.94004Z" fill="#6861AC"/>
</svg>
