<svg width="57" height="56" viewBox="0 0 57 56" fill="none" xmlns="http://www.w3.org/2000/svg">
<ellipse opacity="0.15" cx="28.0913" cy="28" rx="28.0493" ry="28" fill="#FFB300"/>
<g clip-path="url(#clip0)">
<path d="M21.1456 25.1833C21.0353 25.1833 20.9376 25.2579 20.909 25.364L15.9364 37.75V38.1833C15.9364 38.5014 15.916 38.6167 16.1817 38.6167H35.6114C36.1132 38.6167 36.5551 38.2791 36.6749 37.831L41.114 25.6167C41.114 25.6167 41.114 25.3458 41.114 25.1833H21.1456Z" fill="#FFB300"/>
<path d="M20.5948 24.3167H38.0755H38.5096V21.6005C38.5096 20.9475 37.9774 20.4167 37.3236 20.4167H26.5784L24.4079 17.3833H16.2543C15.6006 17.3833 15.0684 17.9146 15.0684 18.5672V36.6788L19.5317 25.1014C19.6511 24.6542 20.093 24.3167 20.5948 24.3167Z" fill="#FFB300"/>
</g>
<defs>
<clipPath id="clip0">
<rect width="26.0458" height="26" fill="white" transform="translate(15.0684 15)"/>
</clipPath>
</defs>
</svg>
