<svg width="21" height="20" viewBox="0 0 21 20" fill="none" xmlns="http://www.w3.org/2000/svg">
<path d="M0.615235 18.715H1.23047C1.91011 18.715 2.46094 18.1396 2.46094 17.43V9.72029C2.46094 9.01055 1.91011 8.43533 1.23047 8.43533H0.615235C0.275414 8.43533 0 8.72294 0 9.07781V18.0725C0 18.4274 0.275414 18.715 0.615235 18.715Z" fill="#6861AC"/>
<path d="M3.69083 9.72034V17.4301C3.69083 17.5596 3.67192 17.6837 3.6543 17.8081L7.24413 19.6612C7.66887 19.8827 8.14488 20 8.61944 20C8.80818 20 14.1769 20 14.1769 20C14.6342 20 15.0812 19.8677 15.4705 19.6167L20.5079 15.8977C21.0504 15.471 21.161 14.6641 20.7537 14.0976C20.3842 13.5832 19.6682 13.3604 19.031 13.8411L15.2441 16.0717C15.1558 16.12 15.0579 16.1451 14.9581 16.1451C14.7364 16.1451 7.65125 16.1451 7.91544 16.1451C7.5753 16.1451 7.30021 15.8579 7.30021 15.5027C7.30021 15.1476 7.5753 14.8602 7.91544 14.8602H13.5756C14.2553 14.8602 14.8061 14.2848 14.8061 13.5752C14.8061 12.8655 14.2553 12.2903 13.5756 12.2903H10.6856L7.76933 10.2599C7.26288 9.90672 6.6728 9.72034 6.06301 9.72034H3.69083Z" fill="#6861AC"/>
<path d="M12.7246 4.21937C12.7246 4.39614 12.7251 4.80393 13.3311 4.96791V3.47079C12.7251 3.63482 12.7246 4.0426 12.7246 4.21937Z" fill="#6861AC"/>
<path d="M14.5801 6.41385V7.91092C15.186 7.74698 15.1866 7.3392 15.1866 7.16238C15.1866 6.98557 15.186 6.57779 14.5801 6.41385Z" fill="#6861AC"/>
<path d="M13.9554 0C10.9505 0 8.50586 2.55288 8.50586 5.69084C8.50586 8.82879 10.9505 11.3817 13.9554 11.3817C16.9603 11.3817 19.4049 8.82879 19.4049 5.69084C19.4049 2.55288 16.9603 0 13.9554 0ZM15.6149 5.48218C16.1526 5.85675 16.4368 6.43774 16.4368 7.16238C16.4368 7.88701 16.1526 8.468 15.6149 8.84257C15.33 9.04101 14.9834 9.17328 14.5804 9.23864V9.88053H13.3304V9.23864C12.9273 9.17324 12.5807 9.04101 12.2958 8.84257C11.7581 8.468 11.474 7.88701 11.474 7.16238H12.7239C12.7239 7.33915 12.7245 7.74693 13.3304 7.91091V6.29565C12.9274 6.23025 12.5808 6.09798 12.2959 5.89954C11.7582 5.52497 11.474 4.94398 11.474 4.21935C11.474 3.49471 11.7582 2.91372 12.2959 2.53915C12.5808 2.34071 12.9274 2.20844 13.3304 2.14304V1.50115H14.5804V2.14304C14.9835 2.20844 15.3301 2.34067 15.615 2.53915C16.1527 2.91372 16.4368 3.49471 16.4368 4.21935H15.1869C15.1869 4.04258 15.1863 3.63479 14.5804 3.47081V5.08607C14.9834 5.15152 15.3301 5.28374 15.6149 5.48218Z" fill="#6861AC"/>
</svg>
