<svg width="10" height="10" viewBox="0 0 10 10" fill="none" xmlns="http://www.w3.org/2000/svg">
<path d="M9.99119 3.86255C9.97007 3.79776 9.91404 3.7505 9.84656 3.74066L6.60851 3.27008L5.16043 0.335964C5.13036 0.274747 5.06807 0.236084 5.00005 0.236084C4.93203 0.236084 4.86956 0.274747 4.83967 0.335964L3.39141 3.27025L0.153361 3.74084C0.0858792 3.75068 0.0300323 3.79776 0.00873171 3.86273C-0.0122109 3.92735 0.00515178 3.99859 0.0540178 4.04603L2.39726 6.33002L1.84398 9.55518C1.83253 9.62231 1.86009 9.69015 1.91504 9.73024C1.97035 9.77069 2.04356 9.77588 2.10353 9.74384L5.00005 8.2213L7.89621 9.74384C7.92235 9.75763 7.95117 9.76443 7.97963 9.76443C8.01668 9.76443 8.05355 9.75297 8.08488 9.73024C8.14001 9.69015 8.16757 9.62231 8.15594 9.55518L7.60284 6.3302L9.94608 4.04603C9.99477 3.99823 10.0123 3.92717 9.99119 3.86255Z" fill="#FFB300"/>
</svg>
