<svg width="12" height="12" viewBox="0 0 12 12" fill="none" xmlns="http://www.w3.org/2000/svg">
<circle opacity="0.15" cx="6" cy="6" r="6" fill="#FFB300"/>
<path d="M6 4.5C5.85166 4.5 5.70666 4.45601 5.58332 4.3736C5.45999 4.29119 5.36386 4.17406 5.30709 4.03701C5.25032 3.89997 5.23547 3.74917 5.26441 3.60368C5.29335 3.4582 5.36478 3.32456 5.46967 3.21967C5.57456 3.11478 5.7082 3.04335 5.85368 3.01441C5.99917 2.98547 6.14997 3.00032 6.28701 3.05709C6.42406 3.11386 6.54119 3.20999 6.6236 3.33332C6.70601 3.45666 6.75 3.60166 6.75 3.75C6.75 3.94891 6.67098 4.13968 6.53033 4.28033C6.38968 4.42098 6.19891 4.5 6 4.5Z" fill="#FFB300"/>
<path d="M6 9C5.80109 9 5.61032 8.92098 5.46967 8.78033C5.32902 8.63968 5.25 8.44891 5.25 8.25V6C5.25 5.80109 5.32902 5.61032 5.46967 5.46967C5.61032 5.32902 5.80109 5.25 6 5.25C6.19891 5.25 6.38968 5.32902 6.53033 5.46967C6.67098 5.61032 6.75 5.80109 6.75 6V8.25C6.75 8.44891 6.67098 8.63968 6.53033 8.78033C6.38968 8.92098 6.19891 9 6 9Z" fill="#FFB300"/>
</svg>
