<svg width="16" height="16" viewBox="0 0 16 16" fill="none" xmlns="http://www.w3.org/2000/svg">
<path d="M8.00345 8.89663C10.4634 8.89663 12.4576 6.90505 12.4576 4.44831C12.4576 1.99158 10.4634 0 8.00345 0C5.5435 0 3.54932 1.99158 3.54932 4.44831C3.54932 6.90505 5.5435 8.89663 8.00345 8.89663Z" fill="white"/>
<path d="M16 15.1242C16 12.7767 14.9944 10.6589 13.3643 9.19555C12.989 8.85868 12.4233 8.84575 12.0397 9.17312C9.71335 11.1585 6.29421 11.159 3.96724 9.17324C3.5842 8.84638 3.01797 8.85651 2.64403 9.19376C1.02243 10.6565 0.00125284 12.7711 1.19875e-07 15.1199C-0.000250424 15.6039 0.392269 16 0.876905 16H15.1231C15.606 16 16 15.6093 16 15.1242Z" fill="white"/>
</svg>
