<?xml version="1.0" encoding="UTF-8"?>
<svg width="464px" height="480px" viewBox="0 0 464 480" version="1.1" xmlns="http://www.w3.org/2000/svg" xmlns:xlink="http://www.w3.org/1999/xlink">
    <!-- Generator: Sketch 63.1 (92452) - https://sketch.com -->
    <title>Design/iOS/hospital</title>
    <desc>Created with Sketch.</desc>
    <g id="Page-1" stroke="none" stroke-width="1" fill="none" fill-rule="evenodd">
        <g id="hospital" fill="#A0A7B9" fill-rule="nonzero">
            <polygon id="Path" points="192 360 176 360 176 368 168 368 168 384 176 384 176 392 192 392 192 384 200 384 200 368 192 368"></polygon>
            <path d="M8,160 C3.581722,160 0,163.581722 0,168 L0,472 C0,476.418278 3.581722,480 8,480 L456,480 C460.418278,480 464,476.418278 464,472 L464,168 C464,163.581722 460.418278,160 456,160 L424,160 L424,48 C428.418278,48 432,44.418278 432,40 L432,8 C432,3.581722 428.418278,0 424,0 L48,0 C43.581722,0 40,3.581722 40,8 L40,40 C40,44.418278 43.581722,48 48,48 L48,160 L8,160 Z M96,176 L96,328 L16,328 L16,176 L96,176 Z M280,96.044 C251.575087,74.6521533 212.424913,74.6521533 184,96.044 L184,48 L280,48 L280,96.044 Z M232,96 C267.346224,96 296,124.653776 296,160 C296,195.346224 267.346224,224 232,224 C196.653776,224 168,195.346224 168,160 C168.039679,124.670225 196.670225,96.0396791 232,96 Z M184,223.956 C212.424913,245.347847 251.575087,245.347847 280,223.956 L280,264 L184,264 L184,223.956 Z M352,280 L352,296 L336,296 L336,312 L352,312 L352,432 L336,432 L336,344 C335.976656,319.063876 316.863175,298.298578 292.014401,296.213096 C267.165627,294.127614 244.858366,311.416597 240.679,336 L223.321,336 C219.141634,311.416597 196.834373,294.127614 171.985599,296.213096 C147.136825,298.298578 128.023344,319.063876 128,344 L128,432 L112,432 L112,312 L128,312 L128,296 L112,296 L112,280 L352,280 Z M224,432 L224,424 L240,424 L240,432 L224,432 Z M288,400 C281.175709,399.998044 274.674921,402.908465 270.131,408 L264,408 L264,384 L302.7,384 L320,389.766 L320,408 L305.869,408 C301.325079,402.908465 294.824291,399.998044 288,400 L288,400 Z M291.056,368 L264,368 L264,352 L283.056,352 L291.056,368 Z M320.000002,372.9 L309.673,369.457 L295.155,340.421 C293.799571,337.711364 291.029739,335.999914 288,336 L257.013,336 C261.036591,320.391411 276.041552,310.211926 292.031942,312.242871 C308.022333,314.273816 320.006122,327.881151 320.000002,344 L320.000002,372.9 Z M248,352 L248,408 L193.869,408 C189.323953,402.909985 182.823907,399.999838 176,399.999838 C169.176093,399.999838 162.676047,402.909985 158.131,408 L144,408 L144,352 L248,352 Z M145.012,336 C148.661543,321.870546 161.406829,311.998992 176,311.998992 C190.593171,311.998992 203.338457,321.870546 206.988,336 L145.012,336 Z M144,424 L152,424 C151.998924,426.725638 152.464308,429.431358 153.376,432 L144,432 L144,424 Z M168,424 C168,419.581722 171.581722,416 176,416 C180.418278,416 184,419.581722 184,424 C184,428.418278 180.418278,432 176,432 C171.583778,431.99504 168.00496,428.416222 168,424 Z M200,424 L208,424 L208,432 L198.624,432 C199.535692,429.431358 200.001076,426.725638 200,424 Z M256,424 L264,424 C263.998924,426.725638 264.464308,429.431358 265.376,432 L256,432 L256,424 Z M280,424 C280,419.581722 283.581722,416 288,416 C292.418278,416 296,419.581722 296,424 C296,428.418278 292.418278,432 288,432 C283.583778,431.99504 280.00496,428.416222 280,424 Z M312,424 L320,424 L320,432 L310.624,432 C311.535692,429.431358 312.001076,426.725638 312,424 Z M16,344 L96,344 L96,436.687 L80,452.687 L80,416 C80,402.745166 69.254834,392 56,392 C42.745166,392 32,402.745166 32,416 L32,464 L16,464 L16,344 Z M64,464 L48,464 L48,416 C48,411.581722 51.581722,408 56,408 C60.418278,408 64,411.581722 64,416 L64,464 Z M91.314,464 L107.314,448 L356.686,448 L372.686,464 L91.314,464 Z M416,464 L400,464 L400,416 C400,411.581722 403.581722,408 408,408 C412.418278,408 416,411.581722 416,416 L416,464 Z M408,392 C394.751334,392.01488 384.01488,402.751334 384,416 L384,452.687 L368,436.687 L368,344 L448,344 L448,464 L432,464 L432,416 C431.98512,402.751334 421.248666,392.01488 408,392 L408,392 Z M448,328 L368,328 L368,176 L448,176 L448,328 Z M408,160 L360,160 C355.581722,160 352,163.581722 352,168 L352,264 L296,264 L296,208 L295.956,208 C317.347847,179.575087 317.347847,140.424913 295.956,112 L296,112 L296,48 L408,48 L408,160 Z M56,16 L416,16 L416,32 L56,32 L56,16 Z M64,48 L168,48 L168,112 L168.044,112 C146.652153,140.424913 146.652153,179.575087 168.044,208 L168,208 L168,264 L112,264 L112,168 C112,163.581722 108.418278,160 104,160 L64,160 L64,48 Z" id="Shape"></path>
            <polygon id="Path" points="32 200 48 200 48 216 32 216"></polygon>
            <polygon id="Path" points="32 232 48 232 48 248 32 248"></polygon>
            <polygon id="Path" points="32 264 48 264 48 280 32 280"></polygon>
            <polygon id="Path" points="32 296 48 296 48 312 32 312"></polygon>
            <polygon id="Path" points="64 200 80 200 80 216 64 216"></polygon>
            <polygon id="Path" points="64 232 80 232 80 248 64 248"></polygon>
            <polygon id="Path" points="64 264 80 264 80 280 64 280"></polygon>
            <polygon id="Path" points="64 296 80 296 80 312 64 312"></polygon>
            <polygon id="Path" points="384 200 400 200 400 216 384 216"></polygon>
            <polygon id="Path" points="384 232 400 232 400 248 384 248"></polygon>
            <polygon id="Path" points="384 264 400 264 400 280 384 280"></polygon>
            <polygon id="Path" points="384 296 400 296 400 312 384 312"></polygon>
            <polygon id="Path" points="416 200 432 200 432 216 416 216"></polygon>
            <polygon id="Path" points="416 232 432 232 432 248 416 248"></polygon>
            <polygon id="Path" points="416 264 432 264 432 280 416 280"></polygon>
            <polygon id="Path" points="416 296 432 296 432 312 416 312"></polygon>
            <polygon id="Path" points="392 360 424 360 424 376 392 376"></polygon>
            <polygon id="Path" points="40 360 72 360 72 376 40 376"></polygon>
            <polygon id="Path" points="328 64 344 64 344 80 328 80"></polygon>
            <polygon id="Path" points="360 64 392 64 392 80 360 80"></polygon>
            <polygon id="Path" points="328 96 344 96 344 112 328 112"></polygon>
            <polygon id="Path" points="360 96 392 96 392 112 360 112"></polygon>
            <polygon id="Path" points="328 128 344 128 344 144 328 144"></polygon>
            <polygon id="Path" points="360 128 392 128 392 144 360 144"></polygon>
            <polygon id="Path" points="328 160 344 160 344 176 328 176"></polygon>
            <polygon id="Path" points="128 64 144 64 144 80 128 80"></polygon>
            <polygon id="Path" points="80 64 112 64 112 80 80 80"></polygon>
            <polygon id="Path" points="128 96 144 96 144 112 128 112"></polygon>
            <polygon id="Path" points="80 96 112 96 112 112 80 112"></polygon>
            <polygon id="Path" points="128 128 144 128 144 144 128 144"></polygon>
            <polygon id="Path" points="80 128 112 128 112 144 80 144"></polygon>
            <polygon id="Path" points="128 160 144 160 144 176 128 176"></polygon>
            <path d="M196,188 L208,188 L208,200 C208,204.418278 211.581722,208 216,208 L248,208 C252.418278,208 256,204.418278 256,200 L256,188 L268,188 C272.418278,188 276,184.418278 276,180 L276,148 C276,143.581722 272.418278,140 268,140 L256,140 L256,128 C256,123.581722 252.418278,120 248,120 L216,120 C211.581722,120 208,123.581722 208,128 L208,140 L196,140 C191.581722,140 188,143.581722 188,148 L188,180 C188,184.418278 191.581722,188 196,188 Z M204,156 L216,156 C220.418278,156 224,152.418278 224,148 L224,136 L240,136 L240,148 C240,152.418278 243.581722,156 248,156 L260,156 L260,172 L248,172 C243.581722,172 240,175.581722 240,180 L240,192 L224,192 L224,180 C224,175.581722 220.418278,172 216,172 L204,172 L204,156 Z" id="Shape"></path>
        </g>
    </g>
</svg>