<svg width="14" height="14" viewBox="0 0 14 14" fill="none" xmlns="http://www.w3.org/2000/svg">
<circle opacity="0.15" cx="7" cy="7" r="7" fill="#A0A7B9"/>
<path d="M7 5.25C6.82694 5.25 6.65777 5.19868 6.51388 5.10254C6.36998 5.00639 6.25783 4.86973 6.19161 4.70985C6.12538 4.54996 6.10805 4.37403 6.14181 4.2043C6.17558 4.03456 6.25891 3.87865 6.38128 3.75628C6.50365 3.63391 6.65956 3.55058 6.8293 3.51681C6.99903 3.48305 7.17496 3.50038 7.33485 3.56661C7.49473 3.63283 7.63139 3.74498 7.72754 3.88888C7.82368 4.03277 7.875 4.20194 7.875 4.375C7.875 4.60706 7.78281 4.82962 7.61872 4.99372C7.45462 5.15781 7.23206 5.25 7 5.25Z" fill="#A0A7B9"/>
<path d="M7 10.5C6.76794 10.5 6.54538 10.4078 6.38128 10.2437C6.21719 10.0796 6.125 9.85706 6.125 9.625V7C6.125 6.76794 6.21719 6.54538 6.38128 6.38128C6.54538 6.21719 6.76794 6.125 7 6.125C7.23206 6.125 7.45462 6.21719 7.61872 6.38128C7.78281 6.54538 7.875 6.76794 7.875 7V9.625C7.875 9.85706 7.78281 10.0796 7.61872 10.2437C7.45462 10.4078 7.23206 10.5 7 10.5Z" fill="#A0A7B9"/>
</svg>
