<?xml version="1.0"?>
<svg xmlns="http://www.w3.org/2000/svg" height="512px" viewBox="-79 0 512 512" width="512px"><g><path d="m46.480469 393.882812h261.984375c18.539062 0 35.179687 8.25 46.480468 21.253907v-337.539063c0-42.789062-34.808593-77.597656-77.59375-77.597656h-199.753906c-42.789062 0-77.597656 34.808594-77.597656 77.597656v337.539063c11.300781-13.003907 27.941406-21.253907 46.480469-21.253907zm232.808593-44.691406c-2.085937.988282-4.285156 1.453125-6.445312 1.453125-5.660156 0-11.089844-3.195312-13.667969-8.652343l-12.332031-26.082032h-37.820312l-12.332032 26.082032c-3.566406 7.542968-12.570312 10.769531-20.113281 7.199218-7.542969-3.5625-10.765625-12.570312-7.199219-20.109375l44.898438-94.96875c.359375-.761719.785156-1.480469 1.257812-2.160156h-41.097656c-8.339844 0-15.105469-6.761719-15.105469-15.105469v-64.402344h-7.546875v1.773438c0 42.863281-34.871094 77.734375-77.734375 77.734375-8.34375 0-15.109375-6.761719-15.109375-15.105469s6.765625-15.105468 15.109375-15.105468c26.203125 0 47.523438-21.320313 47.523438-47.527344v-1.773438h-22.207031c-8.339844 0-15.105469-6.761718-15.105469-15.105468 0-8.339844 6.765625-15.105469 15.105469-15.105469h59.964843v-30.867188c0-8.34375 6.761719-15.105469 15.105469-15.105469s15.105469 6.761719 15.105469 15.105469v30.867188h2.992187c8.34375 0 15.109375 6.765625 15.109375 15.109375 0 8.339844-6.765625 15.105468-15.109375 15.105468h-2.992187v49.296876h74.703125c8.34375 0 15.105468 6.765624 15.105468 15.109374 0 8.339844-6.761718 15.105469-15.105468 15.105469h-23.914063c.472657.679688.894531 1.394531 1.257813 2.160157l44.898437 94.964843c3.566407 7.539063.339844 16.542969-7.199219 20.109375zm0 0" data-original="#000000" class="active-path" data-old_color="#000000" fill="#39377C"/><path d="m339.839844 455.472656c0-17.328125-14.046875-31.378906-31.375-31.378906h-261.984375c-17.328125 0-31.375 14.050781-31.375 31.378906s14.046875 31.375 31.375 31.375h169.667969v-19.789062c0-8.34375 6.761718-15.105469 15.105468-15.105469h62.695313c8.339843 0 15.105469 6.761719 15.105469 15.105469v19.777344c17.054687-.316407 30.785156-14.230469 30.785156-31.363282zm0 0" data-original="#000000" class="active-path" data-old_color="#000000" fill="#39377C"/><path d="m268.457031 507.632812 10.386719 4.367188v-29.835938h-32.484375v29.835938l10.386719-4.367188c3.746094-1.574218 7.96875-1.574218 11.710937 0zm0 0" data-original="#000000" class="active-path" data-old_color="#000000" fill="#39377C"/><path d="m227.933594 275.910156-4.628906 9.789063h9.257812zm0 0" data-original="#000000" class="active-path" data-old_color="#000000" fill="#39377C"/></g> </svg>
