<?xml version="1.0"?>
<svg xmlns="http://www.w3.org/2000/svg" xmlns:xlink="http://www.w3.org/1999/xlink" xmlns:svgjs="http://svgjs.com/svgjs" version="1.1" width="512" height="512" x="0" y="0" viewBox="0 0 512.255 512.255" style="enable-background:new 0 0 512 512" xml:space="preserve" class=""><g>
<g xmlns="http://www.w3.org/2000/svg">
	<g>
		<g>
			<path d="M239.425,57.168l31.28-6.752c-3.068-14.023-10.746-26.613-21.808-35.76l-20.384,24.656     C234.039,43.881,237.879,50.166,239.425,57.168z" fill="#6861ac" data-original="#000000" style="" class=""/>
			<path d="M510.062,431.776c-7.342-28.173-32.804-47.819-61.918-47.776c-29.095,0.109-54.454,19.829-61.728,48h-18.272V317.728     c34.171-8.757,54.774-43.557,46.018-77.728c-8.757-34.171-43.557-54.774-77.728-46.018c-22.59,5.789-40.229,23.428-46.018,46.018     h-66.272V125.888c18.203-4.595,33.435-17.015,41.6-33.92l-28.8-14c-7.716,15.9-26.86,22.534-42.76,14.818     c-15.9-7.716-22.534-26.86-14.818-42.76C184.79,38.851,196.189,31.824,208.608,32l1.328-32h-1.792     c-35.276-0.044-63.908,28.517-63.951,63.792c-0.036,29.173,19.699,54.664,47.951,61.936V240h-66.272     c-8.757-34.171-43.557-54.774-77.728-46.018C13.973,202.739-6.63,237.539,2.127,271.71c5.789,22.59,23.428,40.229,46.018,46.018     v68.544C13.921,395.109-6.66,430.016,2.177,464.24c8.837,34.224,43.744,54.804,77.968,45.968s54.804-43.744,45.968-77.968     c-5.821-22.543-23.424-40.147-45.968-45.968v-68.544c22.389-5.854,39.874-23.339,45.728-45.728h164.544     c5.854,22.389,23.339,39.874,45.728,45.728V432h-18.272c-8.837-34.224-43.744-54.804-77.968-45.968     c-34.224,8.837-54.804,43.744-45.968,77.968c8.837,34.224,43.744,54.804,77.968,45.968c22.543-5.821,40.147-23.424,45.968-45.968     h68.544c8.898,34.144,43.791,54.609,77.935,45.711S518.961,465.92,510.062,431.776z M96.144,448c0,17.673-14.327,32-32,32     s-32-14.327-32-32c0-17.673,14.327-32,32-32S96.144,430.327,96.144,448z M64.144,288c-17.673,0-32-14.327-32-32s14.327-32,32-32     s32,14.327,32,32S81.818,288,64.144,288z M256.144,480c-17.673,0-32-14.327-32-32c0-17.673,14.327-32,32-32     c17.673,0,32,14.327,32,32C288.144,465.673,273.818,480,256.144,480z M320.144,256c0-17.673,14.327-32,32-32     c17.673,0,32,14.327,32,32s-14.327,32-32,32C334.471,288,320.144,273.673,320.144,256z M448.144,480c-17.673,0-32-14.327-32-32     c0-17.673,14.327-32,32-32c17.673,0,32,14.327,32,32C480.144,465.673,465.818,480,448.144,480z" fill="#6861ac" data-original="#000000" style="" class=""/>
		</g>
	</g>
</g>
<g xmlns="http://www.w3.org/2000/svg">
</g>
<g xmlns="http://www.w3.org/2000/svg">
</g>
<g xmlns="http://www.w3.org/2000/svg">
</g>
<g xmlns="http://www.w3.org/2000/svg">
</g>
<g xmlns="http://www.w3.org/2000/svg">
</g>
<g xmlns="http://www.w3.org/2000/svg">
</g>
<g xmlns="http://www.w3.org/2000/svg">
</g>
<g xmlns="http://www.w3.org/2000/svg">
</g>
<g xmlns="http://www.w3.org/2000/svg">
</g>
<g xmlns="http://www.w3.org/2000/svg">
</g>
<g xmlns="http://www.w3.org/2000/svg">
</g>
<g xmlns="http://www.w3.org/2000/svg">
</g>
<g xmlns="http://www.w3.org/2000/svg">
</g>
<g xmlns="http://www.w3.org/2000/svg">
</g>
<g xmlns="http://www.w3.org/2000/svg">
</g>
</g></svg>
