<svg width="36" height="36" viewBox="0 0 36 36" fill="none" xmlns="http://www.w3.org/2000/svg">
<rect width="36" height="36" fill="#E5E5E5"/>
<g clip-path="url(#clip0)">
<rect width="1440" height="4412" transform="translate(-1200 -3355)" fill="#F5F5FA"/>
<g filter="url(#filter0_d)">
<rect x="-952" y="-16" width="1160" height="109" rx="8" fill="white"/>
</g>
<circle opacity="0.15" cx="18" cy="18" r="18" fill="#FFB300"/>
<mask id="path-3-outside-1" maskUnits="userSpaceOnUse" x="10" y="8" width="16" height="21" fill="black">
<rect fill="white" x="10" y="8" width="16" height="21"/>
<path d="M23.8333 11.375H14.4089L19.0026 17.9248C19.2214 18.3083 19.2274 18.6917 19.0208 19.0752C18.9965 19.1123 18.6016 19.6782 17.8359 20.7729C17.0703 21.8677 16.3108 22.95 15.5573 24.02L14.4271 25.625H23.8333C24.1615 25.625 24.4379 25.7425 24.6628 25.9775C24.8876 26.2126 25 26.494 25 26.8218C25 27.1496 24.8876 27.4279 24.6628 27.6567C24.4379 27.8856 24.1615 28 23.8333 28H12.1667C11.8385 28 11.5621 27.8856 11.3372 27.6567C11.1124 27.4279 11 27.1465 11 26.8125C11 26.5898 11.1215 26.3053 11.3646 25.959L16.5781 18.5186C13.066 13.5088 11.2552 10.9235 11.1458 10.7627C11.0486 10.5771 11 10.3854 11 10.1875C11 9.85352 11.1155 9.5721 11.3464 9.34326C11.5773 9.11442 11.8507 9 12.1667 9H23.8333C24.1615 9 24.4379 9.11442 24.6628 9.34326C24.8876 9.5721 25 9.85042 25 10.1782C25 10.506 24.8876 10.7874 24.6628 11.0225C24.4379 11.2575 24.1615 11.375 23.8333 11.375Z"/>
</mask>
<path d="M23.8333 11.375H14.4089L19.0026 17.9248C19.2214 18.3083 19.2274 18.6917 19.0208 19.0752C18.9965 19.1123 18.6016 19.6782 17.8359 20.7729C17.0703 21.8677 16.3108 22.95 15.5573 24.02L14.4271 25.625H23.8333C24.1615 25.625 24.4379 25.7425 24.6628 25.9775C24.8876 26.2126 25 26.494 25 26.8218C25 27.1496 24.8876 27.4279 24.6628 27.6567C24.4379 27.8856 24.1615 28 23.8333 28H12.1667C11.8385 28 11.5621 27.8856 11.3372 27.6567C11.1124 27.4279 11 27.1465 11 26.8125C11 26.5898 11.1215 26.3053 11.3646 25.959L16.5781 18.5186C13.066 13.5088 11.2552 10.9235 11.1458 10.7627C11.0486 10.5771 11 10.3854 11 10.1875C11 9.85352 11.1155 9.5721 11.3464 9.34326C11.5773 9.11442 11.8507 9 12.1667 9H23.8333C24.1615 9 24.4379 9.11442 24.6628 9.34326C24.8876 9.5721 25 9.85042 25 10.1782C25 10.506 24.8876 10.7874 24.6628 11.0225C24.4379 11.2575 24.1615 11.375 23.8333 11.375Z" fill="#FFB300"/>
<path d="M23.8333 11.375H14.4089L19.0026 17.9248C19.2214 18.3083 19.2274 18.6917 19.0208 19.0752C18.9965 19.1123 18.6016 19.6782 17.8359 20.7729C17.0703 21.8677 16.3108 22.95 15.5573 24.02L14.4271 25.625H23.8333C24.1615 25.625 24.4379 25.7425 24.6628 25.9775C24.8876 26.2126 25 26.494 25 26.8218C25 27.1496 24.8876 27.4279 24.6628 27.6567C24.4379 27.8856 24.1615 28 23.8333 28H12.1667C11.8385 28 11.5621 27.8856 11.3372 27.6567C11.1124 27.4279 11 27.1465 11 26.8125C11 26.5898 11.1215 26.3053 11.3646 25.959L16.5781 18.5186C13.066 13.5088 11.2552 10.9235 11.1458 10.7627C11.0486 10.5771 11 10.3854 11 10.1875C11 9.85352 11.1155 9.5721 11.3464 9.34326C11.5773 9.11442 11.8507 9 12.1667 9H23.8333C24.1615 9 24.4379 9.11442 24.6628 9.34326C24.8876 9.5721 25 9.85042 25 10.1782C25 10.506 24.8876 10.7874 24.6628 11.0225C24.4379 11.2575 24.1615 11.375 23.8333 11.375Z" stroke="#FFB300" stroke-width="2" mask="url(#path-3-outside-1)"/>
</g>
<defs>
<filter id="filter0_d" x="-960" y="-22" width="1176" height="125" filterUnits="userSpaceOnUse" color-interpolation-filters="sRGB">
<feFlood flood-opacity="0" result="BackgroundImageFix"/>
<feColorMatrix in="SourceAlpha" type="matrix" values="0 0 0 0 0 0 0 0 0 0 0 0 0 0 0 0 0 0 127 0"/>
<feOffset dy="2"/>
<feGaussianBlur stdDeviation="4"/>
<feColorMatrix type="matrix" values="0 0 0 0 0.596078 0 0 0 0 0.556863 0 0 0 0 0.870588 0 0 0 0.08 0"/>
<feBlend mode="normal" in2="BackgroundImageFix" result="effect1_dropShadow"/>
<feBlend mode="normal" in="SourceGraphic" in2="effect1_dropShadow" result="shape"/>
</filter>
<clipPath id="clip0">
<rect width="1440" height="4412" fill="white" transform="translate(-1200 -3355)"/>
</clipPath>
</defs>
</svg>
