<?xml version="1.0" encoding="UTF-8"?>
<svg width="36px" height="36px" viewBox="0 0 36 36" version="1.1" xmlns="http://www.w3.org/2000/svg" xmlns:xlink="http://www.w3.org/1999/xlink">
    <!-- Generator: Sketch 63.1 (92452) - https://sketch.com -->
    <title>Design/iOS/prescription-icon</title>
    <desc>Created with Sketch.</desc>
    <g id="Page-1" stroke="none" stroke-width="1" fill="none" fill-rule="evenodd">
        <g id="prescription-icon" fill="#6861AC" fill-rule="nonzero">
            <circle id="Oval" opacity="0.15" cx="18" cy="18" r="18"></circle>
            <path d="M24.5253829,10.2571429 L12.4465086,10.2571429 C12.0839371,10.2571429 11.7899509,10.551088 11.7899509,10.9136903 L11.7899509,26.0577486 C11.7899509,26.42032 12.0839063,26.7142857 12.4465086,26.7142857 L21.1558857,26.7142857 C21.32992,26.7142857 21.49696,26.6451657 21.62008,26.5220457 L24.9895771,23.1525486 C25.1126971,23.0294286 25.1818171,22.8623886 25.1818171,22.6882514 L25.1818171,10.9136903 C25.1818171,10.551088 24.8879543,10.2571429 24.5253829,10.2571429 Z M18.2233257,22.3798857 L14.8297703,22.3798857 C14.4671989,22.3798857 14.1732229,22.0860229 14.1732229,21.7233486 C14.1732229,21.3607771 14.467168,21.0668114 14.8297703,21.0668114 L18.2233257,21.0668114 C18.5858971,21.0668114 18.8798629,21.3607771 18.8798629,21.7233486 C18.8798629,22.0860229 18.5858971,22.3798857 18.2233257,22.3798857 Z M22.14208,16.2507931 L14.8297703,16.2507931 C14.4671989,16.2507931 14.1732229,15.956848 14.1732229,15.5942766 C14.1732229,15.2317051 14.467168,14.9377189 14.8297703,14.9377189 L22.14208,14.9377189 C22.5046514,14.9377189 22.7986171,15.231664 22.7986171,15.5942766 C22.7986171,15.9568789 22.5046514,16.2507931 22.14208,16.2507931 Z M22.14208,20.3650789 L14.8297703,20.3650789 C14.4671989,20.3650789 14.1732229,20.0711337 14.1732229,19.7085623 C14.1732229,19.3459909 14.467168,19.0520046 14.8297703,19.0520046 L22.14208,19.0520046 C22.5046514,19.0520046 22.7986171,19.3459497 22.7986171,19.7085623 C22.7986171,20.0711646 22.5046514,20.3650789 22.14208,20.3650789 Z M22.14208,18.307936 L14.8297703,18.307936 C14.4671989,18.307936 14.1732229,18.0139909 14.1732229,17.6514194 C14.1732229,17.288848 14.467168,16.9948617 14.8297703,16.9948617 L22.14208,16.9948617 C22.5046514,16.9948617 22.7986171,17.2888069 22.7986171,17.6514194 C22.7986171,18.0140217 22.5046514,18.307936 22.14208,18.307936 Z M22.14208,14.2358834 L14.8297703,14.2358834 C14.4671989,14.2358834 14.1732229,13.9419383 14.1732229,13.579336 C14.1732229,13.2167337 14.467168,12.9227783 14.8297703,12.9227783 L22.14208,12.9227783 C22.5046514,12.9227783 22.7986171,13.2167337 22.7986171,13.579336 C22.7986171,13.9419383 22.5046514,14.2358834 22.14208,14.2358834 Z" id="Shape"></path>
        </g>
    </g>
</svg>