<svg width="36" height="36" viewBox="0 0 36 36" fill="none" xmlns="http://www.w3.org/2000/svg">
<circle opacity="0.15" cx="18" cy="18" r="18" fill="#F46271"/>
<g clip-path="url(#clip0)">
<path d="M26.4134 10.8351C25.3781 9.71219 23.9575 9.09375 22.413 9.09375C21.2585 9.09375 20.2012 9.45874 19.2704 10.1785C18.8008 10.5418 18.3752 10.9863 18 11.5051C17.6249 10.9865 17.1992 10.5418 16.7294 10.1785C15.7988 9.45874 14.7415 9.09375 13.587 9.09375C12.0425 9.09375 10.6218 9.71219 9.58646 10.8351C8.56351 11.9449 8 13.461 8 15.1043C8 16.7958 8.63034 18.3441 9.98364 19.9771C11.1943 21.4378 12.9342 22.9207 14.9492 24.6377C15.6372 25.2241 16.4171 25.8888 17.2268 26.5968C17.4408 26.7842 17.7153 26.8873 18 26.8873C18.2846 26.8873 18.5592 26.7842 18.7729 26.5971C19.5826 25.8889 20.363 25.224 21.0513 24.6373C23.0659 22.9205 24.8059 21.4378 26.0165 19.9769C27.3698 18.3441 28 16.7958 28 15.1042C28 13.461 27.4365 11.9449 26.4134 10.8351Z" fill="#F46271"/>
</g>
<defs>
<clipPath id="clip0">
<rect width="20" height="20" fill="white" transform="translate(8 8)"/>
</clipPath>
</defs>
</svg>
