<svg width="14" height="16" viewBox="0 0 14 16" fill="none" xmlns="http://www.w3.org/2000/svg">
<path d="M13.0457 0H1.30238C0.949875 0 0.664062 0.285781 0.664062 0.638313V15.3617C0.664062 15.7142 0.949844 16 1.30238 16H9.76978C9.93906 16 10.1014 15.9328 10.2211 15.8131L13.497 12.5372C13.6167 12.4175 13.684 12.2551 13.684 12.0858V0.638313C13.684 0.285781 13.3982 0 13.0457 0ZM6.80872 12.0061H5.85237V12.9625C5.85237 13.315 5.56659 13.6008 5.21406 13.6008C4.86153 13.6008 4.57575 13.315 4.57575 12.9625V12.0061H3.61937C3.26688 12.0061 2.98106 11.7203 2.98106 11.3678C2.98106 11.0153 3.26684 10.7295 3.61937 10.7295H4.57575V9.77312C4.57575 9.42062 4.86153 9.13481 5.21406 9.13481C5.56659 9.13481 5.85237 9.42059 5.85237 9.77312V10.7295H6.80872C7.16122 10.7295 7.447 11.0153 7.447 11.3678C7.447 11.7203 7.16125 12.0061 6.80872 12.0061ZM6.91872 7.78603H3.61944C3.26694 7.78603 2.98113 7.50025 2.98113 7.14772C2.98113 6.79519 3.26691 6.50941 3.61944 6.50941H6.91872C7.27122 6.50941 7.55703 6.79519 7.55703 7.14772C7.55703 7.50025 7.27122 7.78603 6.91872 7.78603ZM10.7286 5.82716H3.61944C3.26694 5.82716 2.98113 5.54138 2.98113 5.18888C2.98113 4.83638 3.26691 4.55056 3.61944 4.55056H10.7286C11.0811 4.55056 11.3669 4.83634 11.3669 5.18888C11.3669 5.54141 11.0811 5.82716 10.7286 5.82716ZM10.7286 3.86822H3.61944C3.26694 3.86822 2.98113 3.58244 2.98113 3.22991C2.98113 2.87738 3.26691 2.59159 3.61944 2.59159H10.7286C11.0811 2.59159 11.3669 2.87738 11.3669 3.22991C11.3669 3.58244 11.0811 3.86822 10.7286 3.86822Z" fill="#6861AC"/>
</svg>
