<?xml version="1.0" encoding="UTF-8"?>
<svg width="448px" height="480px" viewBox="0 0 448 480" version="1.1" xmlns="http://www.w3.org/2000/svg" xmlns:xlink="http://www.w3.org/1999/xlink">
    <!-- Generator: Sketch 63.1 (92452) - https://sketch.com -->
    <title>Design/iOS/dissection</title>
    <desc>Created with Sketch.</desc>
    <g id="Page-1" stroke="none" stroke-width="1" fill="none" fill-rule="evenodd">
        <g id="dissection" fill="#6861AC" fill-rule="nonzero">
            <path d="M288,352 C282.601083,351.996457 277.223964,352.684728 272,354.048 L272,184 C272,179.581722 268.418278,176 264,176 C259.581722,176 256,179.581722 256,184 L256,365.464 C256.00775,368.205349 257.418618,370.751835 259.738718,372.212037 C262.058818,373.67224 264.965026,373.842796 267.44,372.664 C273.857939,369.590294 280.88399,367.996447 288,368 C314.509668,368 336,389.490332 336,416 C336,442.509668 314.509668,464 288,464 C261.490332,464 240,442.509668 240,416 L240,200 C240,195.581722 236.418278,192 232,192 C227.581722,192 224,195.581722 224,200 L224,304 L208,304 L208,188.944 L267.576,159.2 C270.301355,157.838193 272.01663,155.046605 272,152 L272,56 C272,25.072054 246.927946,0 216,0 C185.072054,0 160,25.072054 160,56 L160,120 C160,124.418278 163.581722,128 168,128 C172.418278,128 176,124.418278 176,120 L176,56 C176.023986,36.9991934 189.388666,20.6274612 208,16.8 L208,115.72 L163.56,145.32 C161.328353,146.808908 159.991559,149.317273 160,152 L160,336 C160,340.418278 163.581722,344 168,344 C172.418278,344 176,340.418278 176,336 L176,156.28 L220.44,126.68 C222.671647,125.191092 224.008441,122.682727 224,120 L224,16.8 C242.613033,20.6246562 255.979102,36.9980909 256,56 L256,147.056 L196.424,176.84 C193.711587,178.195397 191.998587,180.967792 192,184 L192,416 C192,442.509668 170.509668,464 144,464 C117.490332,464 96,442.509668 96,416 C96,389.490332 117.490332,368 144,368 C151.117238,368.001441 158.143348,369.60077 164.56,372.68 C167.163083,374.16072 170.375186,374.063568 172.884021,372.428235 C175.392857,370.792902 176.77823,367.893284 176.474154,364.914004 C176.170077,361.934724 174.22748,359.374771 171.44,358.28 C162.880119,354.155094 153.501912,352.008769 144,352 C108.653776,352 80,380.653776 80,416 C80,451.346224 108.653776,480 144,480 C179.346224,480 208,451.346224 208,416 L208,352 L224,352 L224,416 C224,451.346224 252.653776,480 288,480 C323.346224,480 352,451.346224 352,416 C352,380.653776 323.346224,352 288,352 Z M208,336 L208,320 L224,320 L224,336 L208,336 Z" id="Shape"></path>
            <path d="M320,416 C320,398.326888 305.673112,384 288,384 C270.326888,384 256,398.326888 256,416 C256,433.673112 270.326888,448 288,448 C305.673112,448 320,433.673112 320,416 Z M272,416 C272,407.163444 279.163444,400 288,400 C296.836556,400 304,407.163444 304,416 C304,424.836556 296.836556,432 288,432 C279.163444,432 272,424.836556 272,416 Z" id="Shape"></path>
            <circle id="Oval" cx="216" cy="152" r="8"></circle>
            <path d="M144,384 C126.326888,384 112,398.326888 112,416 C112,433.673112 126.326888,448 144,448 C161.673112,448 176,433.673112 176,416 C176,398.326888 161.673112,384 144,384 Z M144,432 C135.163444,432 128,424.836556 128,416 C128,407.163444 135.163444,400 144,400 C152.836556,400 160,407.163444 160,416 C160,424.836556 152.836556,432 144,432 Z" id="Shape"></path>
            <path d="M432,193.472 L432,170.472 C437.215399,166.19733 440.391835,159.925757 440.752,153.192 L448,8.4 C448.109646,6.20985115 447.315449,4.07070847 445.80311,2.48275236 C444.290771,0.894796258 442.19289,-6.26843408e-06 440,-6.26843408e-06 C421.134569,-6.26843408e-06 403.094879,7.73825093 390.09179,21.4066143 C377.088701,35.0749777 370.260124,53.4779959 371.2,72.32 L375.2,153.2 C375.574363,159.938549 378.76865,166.208062 384,170.472 L384,193.472 C374.445193,196.850036 368.042011,205.865717 368,215.999994 L368,439.999994 C368,462.09139 385.90861,479.999994 408,479.999994 C430.09139,479.999994 448,462.09139 448,439.999994 L448,343.999994 C448,339.581722 444.418278,335.999994 440,335.999994 C435.581722,335.999994 432,339.581722 432,343.999994 L432,439.999994 C432,453.254834 421.254834,463.999994 408,463.999994 C394.745166,463.999994 384,453.254834 384,439.999994 L384,319.999994 L440,319.999994 C444.418278,319.999994 448,316.418278 448,311.999994 L448,215.999994 C447.957989,205.865717 441.554807,196.850036 432,193.472 L432,193.472 Z M384,256 L432,256 L432,272 L384,272 L384,256 Z M401.688,32.432 C409.626672,24.0159405 420.132432,18.4704525 431.56,16.664 L424.8,152.392 C424.651562,155.253536 422.964546,157.810085 420.392,159.072 C417.711621,160.437757 416.024005,163.191724 416.024,166.2 L416.024,192 L400,192 L400,166.2 C399.999995,163.191724 398.312379,160.437757 395.632,159.072 C393.061866,157.811462 391.375271,155.258612 391.224,152.4 L387.224,71.52 C386.436278,57.0516695 391.671975,42.9025459 401.688,32.432 L401.688,32.432 Z M392,208 L424,208 C428.418278,208 432,211.581722 432,216 L432,240 L384,240 L384,216 C384,211.581722 387.581722,208 392,208 Z M384,304 L384,288 L432,288 L432,304 L384,304 Z" id="Shape"></path>
            <path d="M40,161.136 L40,94.648 C40.0016434,65.5760758 47.9016732,37.050802 62.856,12.12 C65.034909,8.34122413 63.7850897,3.51347202 60.0462711,1.26669068 C56.3074524,-0.980090655 51.4579212,0.182357515 49.144,3.88 C32.6912781,31.2980452 24.0001547,62.6723646 24,94.648 L24,161.136 C9.91451887,164.772747 0.0545185412,177.452707 0,192 L0,448 C0,465.673112 14.326888,480 32,480 C49.673112,480 64,465.673112 64,448 L64,312 C64,307.581722 60.418278,304 56,304 C51.581722,304 48,307.581722 48,312 L48,448 C48,456.836556 40.836556,464 32,464 C23.163444,464 16,456.836556 16,448 L16,288 L56,288 C60.418278,288 64,284.418278 64,280 L64,192 C63.9454815,177.452707 54.0854811,164.772747 40,161.136 Z M16,224 L48,224 L48,240 L16,240 L16,224 Z M32,176 C40.836556,176 48,183.163444 48,192 L48,208 L16,208 L16,192 C16,183.163444 23.163444,176 32,176 Z M16,272 L16,256 L48,256 L48,272 L16,272 Z" id="Shape"></path>
        </g>
    </g>
</svg>