<?xml version="1.0"?>
<svg xmlns="http://www.w3.org/2000/svg" height="512px" viewBox="0 0 64 64" width="512px" class=""><g><g id="Froppy_disk" data-name="Froppy disk"><path d="m40 8h4v9h-4z" data-original="#000000" class="active-path" data-old_color="#000000" fill="#3A377C"/><path d="m60 11.414-7.414-7.414h-2.586v16a3 3 0 0 1 -3 3h-30a3 3 0 0 1 -3-3v-16h-7a3 3 0 0 0 -3 3v50a3 3 0 0 0 3 3h1v-25a5.006 5.006 0 0 1 5-5h38a5.006 5.006 0 0 1 5 5v25h1a3 3 0 0 0 3-3z" data-original="#000000" class="active-path" data-old_color="#000000" fill="#3A377C"/><path d="m51 32h-38a3 3 0 0 0 -3 3v25h44v-25a3 3 0 0 0 -3-3zm-4 21h-30a1 1 0 0 1 0-2h30a1 1 0 0 1 0 2zm0-6h-30a1 1 0 0 1 0-2h30a1 1 0 0 1 0 2zm0-6h-30a1 1 0 0 1 0-2h30a1 1 0 0 1 0 2z" data-original="#000000" class="active-path" data-old_color="#000000" fill="#3A377C"/><path d="m47 21a1 1 0 0 0 1-1v-16h-32v16a1 1 0 0 0 1 1zm-9-14a1 1 0 0 1 1-1h6a1 1 0 0 1 1 1v11a1 1 0 0 1 -1 1h-6a1 1 0 0 1 -1-1z" data-original="#000000" class="active-path" data-old_color="#000000" fill="#3A377C"/></g></g> </svg>
