<svg width="20" height="20" viewBox="0 0 20 20" fill="none" xmlns="http://www.w3.org/2000/svg">
<path d="M0.640697 18.2168L5.40073 13.2662C4.17684 11.8113 3.50627 9.98069 3.50627 8.07499C3.50627 3.62251 7.12878 0 11.5813 0C16.0337 0 19.6562 3.62251 19.6562 8.07499C19.6562 12.5275 16.0337 16.15 11.5813 16.15C9.90973 16.15 8.31686 15.6458 6.95499 14.6888L2.1588 19.677C1.95833 19.8852 1.68869 20 1.39975 20C1.12625 20 0.866796 19.8957 0.669838 19.7061C0.251343 19.3034 0.238001 18.6357 0.640697 18.2168ZM11.5813 2.10652C8.29017 2.10652 5.61279 4.78391 5.61279 8.07499C5.61279 11.3661 8.29017 14.0435 11.5813 14.0435C14.8723 14.0435 17.5497 11.3661 17.5497 8.07499C17.5497 4.78391 14.8723 2.10652 11.5813 2.10652Z" fill="#6861AC"/>
</svg>