<?xml version="1.0"?>
<svg xmlns="http://www.w3.org/2000/svg" height="512px" viewBox="0 0 64 64" width="512px"><g><g id="content"><path d="m62.65 26.36a.992.992 0 0 0 -.77-.36h-.88v-21a3.009 3.009 0 0 0 -3-3h-32a3.009 3.009 0 0 0 -3 3v15h-10a7.008 7.008 0 0 0 -7 7v2a3.009 3.009 0 0 0 3 3h-1a2.006 2.006 0 0 0 -2 2v1a2.006 2.006 0 0 0 2 2h1.08a7.007 7.007 0 0 0 2.92 4.74v2.76l-3.33 2.5h-5.67a1 1 0 0 0 -1 1v7a7.008 7.008 0 0 0 7 7h14a7.008 7.008 0 0 0 7-7v-7a1 1 0 0 0 -1-1h-5.67l-3.33-2.5v-2.76a7.007 7.007 0 0 0 2.92-4.74h1.08a2.006 2.006 0 0 0 2-2v-1a2.006 2.006 0 0 0 -2-2h-1v-.41a2.987 2.987 0 0 0 1.5.41h35a3.021 3.021 0 0 0 2.88-2.16.355.355 0 0 0 .02-.1l.46-2.56a.977.977 0 0 0 -.21-.82zm-53.65 8.64h-1v-1h1zm16-30a1 1 0 0 1 1-1h32a1 1 0 0 1 1 1v21h-14a1 1 0 0 0 -1 1h-4a1 1 0 0 0 -1-1h-13.08a6.634 6.634 0 0 0 .08-1v-4a1 1 0 0 0 -1-1zm-3.03 51.24 1.81-7.24h4.22v6a5 5 0 0 1 -5 5h-14a5 5 0 0 1 -5-5v-6h4.22l1.81 7.24a1 1 0 0 0 .97.76h10a1 1 0 0 0 .97-.76zm-1.75-1.24h-8.44l-1.24-4.97 4.96 2.84a1.044 1.044 0 0 0 1 0l4.96-2.84zm.96-7.11-5.18 2.96-5.18-2.96 2.78-2.09a1.014 1.014 0 0 0 .4-.8v-2.29a7.042 7.042 0 0 0 4 0v2.29a1.014 1.014 0 0 0 .4.8zm-.18-11.89a5 5 0 0 1 -10 0v-5.38l3.09-1.55a2.347 2.347 0 0 1 -.03.6 3.954 3.954 0 0 1 -.6 1.06 1.589 1.589 0 0 0 -.34 1.74 1.669 1.669 0 0 0 1.37.81 5.32 5.32 0 0 0 4.25-1.61 4.585 4.585 0 0 0 .82-1.25l1.44.36zm3-2v1h-1v-1zm0-9a4.963 4.963 0 0 1 -1.98 3.97l-2.88-.72a.994.994 0 0 0 -.77.12 1.02 1.02 0 0 0 -.45.64 2.8 2.8 0 0 1 -.65 1.31 3.346 3.346 0 0 1 -1.75.93 5.153 5.153 0 0 0 .42-.91 6.39 6.39 0 0 0 .05-2.49.993.993 0 0 0 -.99-.85h-1a1 1 0 0 0 -.45.11l-4 2a.977.977 0 0 0 -.55.89 1 1 0 0 1 -1-1v-2a5 5 0 0 1 5-5h11zm36.45 4.32a1.014 1.014 0 0 1 -.95.68h-35a.985.985 0 0 1 -.48-.13 7.093 7.093 0 0 0 1.29-1.87h12.69a1 1 0 0 0 1 1h6a1 1 0 0 0 1-1h14.68z" data-original="#000000" class="active-path" data-old_color="#000000" fill="#39377C"/><path d="m32 52h2v2h-2z" data-original="#000000" class="active-path" data-old_color="#000000" fill="#39377C"/><path d="m53 49a4 4 0 1 0 4 4 4 4 0 0 0 -4-4zm0 6a2 2 0 1 1 2-2 2 2 0 0 1 -2 2z" data-original="#000000" class="active-path" data-old_color="#000000" fill="#39377C"/><path d="m61.242 50.03-.668-.167.355-.591a1 1 0 0 0 -.151-1.222l-2.829-2.828a1 1 0 0 0 -1.221-.151l-.591.355-.167-.668a1 1 0 0 0 -.97-.758h-1v-10h-2v10h-1a1 1 0 0 0 -.97.758l-.167.668-.591-.355a1 1 0 0 0 -1.221.151l-2.829 2.828a1 1 0 0 0 -.151 1.222l.355.591-.668.167a1 1 0 0 0 -.758.97v1h-8v2h8v1a1 1 0 0 0 .758.97l.668.167-.355.591a1 1 0 0 0 .151 1.222l2.829 2.828a1 1 0 0 0 1.221.151l.591-.355.167.668a1 1 0 0 0 .97.758h4a1 1 0 0 0 .97-.758l.167-.668.591.355a1 1 0 0 0 1.221-.151l2.829-2.828a1 1 0 0 0 .151-1.222l-.355-.591.668-.167a1 1 0 0 0 .758-.97v-4a1 1 0 0 0 -.758-.97zm-1.242 4.189-1.22.3a1 1 0 0 0 -.615 1.485l.647 1.078-1.725 1.725-1.078-.647a1 1 0 0 0 -1.485.615l-.3 1.22h-2.443l-.3-1.22a1 1 0 0 0 -1.485-.615l-1.078.647-1.726-1.725.648-1.078a1 1 0 0 0 -.615-1.485l-1.22-.3v-2.438l1.22-.3a1 1 0 0 0 .615-1.485l-.648-1.078 1.726-1.725 1.078.647a1 1 0 0 0 1.485-.615l.3-1.22h2.438l.3 1.22a1 1 0 0 0 1.485.615l1.078-.647 1.725 1.725-.647 1.078a1 1 0 0 0 .615 1.485l1.22.3z" data-original="#000000" class="active-path" data-old_color="#000000" fill="#39377C"/><path d="m27 6h2v2h-2z" data-original="#000000" class="active-path" data-old_color="#000000" fill="#39377C"/><path d="m31 6h20v2h-20z" data-original="#000000" class="active-path" data-old_color="#000000" fill="#39377C"/><path d="m27 10h2v2h-2z" data-original="#000000" class="active-path" data-old_color="#000000" fill="#39377C"/><path d="m31 10h10v2h-10z" data-original="#000000" class="active-path" data-old_color="#000000" fill="#39377C"/><path d="m27 14h2v2h-2z" data-original="#000000" class="active-path" data-old_color="#000000" fill="#39377C"/><path d="m31 14h4v2h-4z" data-original="#000000" class="active-path" data-old_color="#000000" fill="#39377C"/><path d="m53 6h4v2h-4z" data-original="#000000" class="active-path" data-old_color="#000000" fill="#39377C"/><path d="m43 10h14v2h-14z" data-original="#000000" class="active-path" data-old_color="#000000" fill="#39377C"/><path d="m55 18h2v2h-2z" data-original="#000000" class="active-path" data-old_color="#000000" fill="#39377C"/><path d="m43 18h10v2h-10z" data-original="#000000" class="active-path" data-old_color="#000000" fill="#39377C"/><path d="m27 18h14v2h-14z" data-original="#000000" class="active-path" data-old_color="#000000" fill="#39377C"/><path d="m37 14h20v2h-20z" data-original="#000000" class="active-path" data-old_color="#000000" fill="#39377C"/><path d="m29 22h6v2h-6z" data-original="#000000" class="active-path" data-old_color="#000000" fill="#39377C"/><path d="m37 22h20v2h-20z" data-original="#000000" class="active-path" data-old_color="#000000" fill="#39377C"/></g></g> </svg>
