<?xml version="1.0" encoding="UTF-8"?>
<svg width="480px" height="480px" viewBox="0 0 480 480" version="1.1" xmlns="http://www.w3.org/2000/svg" xmlns:xlink="http://www.w3.org/1999/xlink">
    <!-- Generator: Sketch 63.1 (92452) - https://sketch.com -->
    <title>Design/iOS/content</title>
    <desc>Created with Sketch.</desc>
    <g id="Page-1" stroke="none" stroke-width="1" fill="none" fill-rule="evenodd">
        <g id="content" fill="#6861AC" fill-rule="nonzero">
            <path d="M360,408 L280,408 L280,392 L344,392 C348.417,392.001 351.999,388.421 352,384.004 C352,384.003 352,384.001 352,384 L352,128 C352.001,123.583 348.421,120 344.004,120 C344.003,120 344.001,120 344,120 L136,120 C131.583,120 128.001,123.579 128,127.996 C128,127.997 128,127.999 128,128 L128,384 C127.999,388.417 131.579,391.999 135.996,392 C135.997,392 135.999,392 136,392 L200,392 L200,408 L120,408 C84.671,408.04 56.04,436.671 55.9999998,472 C55.9999998,476.417 59.579,480 63.996,480 C63.997,480 63.999,480 63.9999998,480 L416,480 C420.417,480 424,476.421 424,472.004 C424,472.003 424,472.001 424,472 C423.96,436.671 395.329,408.04 360,408 Z M144,376 L144,136 L336,136 L336,376 L144,376 Z M72.664,464 C76.6,440.92 96.587,424.03 120,424 L208,424 C212.417,424.001 215.999,420.421 216,416.004 C216,416.003 216,416.001 216,416 L216,392 L264,392 L264,416 C263.999,420.417 267.579,423.999 271.996,424 C271.997,424 271.999,424 272,424 L360,424 C383.413,424.03 403.4,440.92 407.336,464 L72.664,464 Z" id="Shape"></path>
            <rect id="Rectangle" x="160" y="152" width="120" height="16"></rect>
            <rect id="Rectangle" x="296" y="152" width="24" height="16"></rect>
            <rect id="Rectangle" x="160" y="184" width="80" height="16"></rect>
            <rect id="Rectangle" x="256" y="184" width="64" height="16"></rect>
            <rect id="Rectangle" x="160" y="216" width="24" height="16"></rect>
            <rect id="Rectangle" x="200" y="216" width="120" height="16"></rect>
            <rect id="Rectangle" x="200" y="312" width="120" height="16"></rect>
            <rect id="Rectangle" x="160" y="312" width="24" height="16"></rect>
            <rect id="Rectangle" x="240" y="280" width="80" height="16"></rect>
            <rect id="Rectangle" x="160" y="280" width="64" height="16"></rect>
            <rect id="Rectangle" x="296" y="248" width="24" height="16"></rect>
            <rect id="Rectangle" x="160" y="248" width="120" height="16"></rect>
            <rect id="Rectangle" x="160" y="344" width="72" height="16"></rect>
            <rect id="Rectangle" x="248" y="344" width="72" height="16"></rect>
            <path d="M136.004,-2.09446178e-07 C136.003,-2.09446178e-07 136.001,-2.09446178e-07 136,-2.09446178e-07 L7.99999979,-2.09446178e-07 C3.583,-2.09446178e-07 -2.09446171e-07,3.579 -2.09446171e-07,7.996 C-2.09446171e-07,7.997 -2.09446171e-07,7.999 -2.09446171e-07,7.99999979 L-2.09446171e-07,79.9999998 C-2.09446171e-07,84.417 3.579,87.999 7.996,87.9999998 C7.997,87.9999998 7.999,87.9999998 7.99999979,87.9999998 L75.9999998,87.9999998 L97.602,116.801 C99.112,118.816 101.483,120.000014 104,120.000014 C104.533,120.000014 105.064,119.947 105.586,119.84 C108.61,119.231 111.013,116.935 111.758,113.942 L118.25,87.9999998 L136,87.9999998 C140.417,88.001 144,84.421 144,80.004 C144,80.003 144,80.001 144,79.9999998 L144,7.99999979 C144,3.583 140.421,-2.09446178e-07 136.004,-2.09446178e-07 Z M128,72 L112,72 C108.33,72.001 105.132,74.498 104.242,78.059 L100.312,93.754 L86.398,75.199 C84.888,73.184 82.517,71.999 80,72 L16,72 L16,16 L128,16 L128,72 Z" id="Shape"></path>
            <path d="M472.004,-2.09446178e-07 C472.003,-2.09446178e-07 472.001,-2.09446178e-07 472,-2.09446178e-07 L344,-2.09446178e-07 C339.583,-2.09446178e-07 336,3.579 336,7.996 C336,7.997 336,7.999 336,7.99999979 L336,79.9999998 C336,84.417 339.579,87.999 343.996,87.9999998 C343.997,87.9999998 343.999,87.9999998 344,87.9999998 L361.75,87.9999998 L368.242,113.941 C368.987,116.934 371.39,119.231 374.414,119.839 C374.936,119.946 375.467,119.999014 376,119.999014 C378.518,119.999014 380.889,118.814 382.398,116.8 L404,87.9999998 L472,87.9999998 C476.417,88.001 480,84.421 480,80.004 C480,80.003 480,80.001 480,79.9999998 L480,7.99999979 C480,3.583 476.421,-2.09446178e-07 472.004,-2.09446178e-07 Z M464,72 L400,72 C397.482,71.999 395.111,73.185 393.602,75.199 L379.688,93.754 L375.758,78.059 C374.868,74.499 371.67,72.001 368,72 L352,72 L352,16 L464,16 L464,72 Z" id="Shape"></path>
            <rect id="Rectangle" x="368" y="32" width="48" height="16"></rect>
            <rect id="Rectangle" x="432" y="32" width="16" height="16"></rect>
            <rect id="Rectangle" x="32" y="32" width="24" height="16"></rect>
            <rect id="Rectangle" x="72" y="32" width="40" height="16"></rect>
        </g>
    </g>
</svg>