<?xml version="1.0"?>
<svg xmlns="http://www.w3.org/2000/svg" height="512px" viewBox="0 0 64 64" width="512px"><g><g id="Driver_License-Id-License-Transport-Identification" data-name="Driver License-Id-License-Transport-Identification"><path d="m15 29h2v2h-2z" data-original="#000000" class="active-path" data-old_color="#000000" fill="#6861AC"/><path d="m21 29h2v2h-2z" data-original="#000000" class="active-path" data-old_color="#000000" fill="#6861AC"/><path d="m58 7h-52a5 5 0 0 0 -5 5v38a5 5 0 0 0 5 5h52a5 5 0 0 0 5-5v-38a5 5 0 0 0 -5-5zm3 43a3.009 3.009 0 0 1 -3 3h-52a3.009 3.009 0 0 1 -3-3v-35h58zm0-37h-58v-1a3.009 3.009 0 0 1 3-3h52a3.009 3.009 0 0 1 3 3z" data-original="#000000" class="active-path" data-old_color="#000000" fill="#6861AC"/><path d="m27.85 41.51-4.85-2.16v-1.43a8.06 8.06 0 0 0 3.74-4.92h.26a3 3 0 0 0 0-6v-2a8 8 0 0 0 -16 0v2a3 3 0 0 0 0 6h.26a8.06 8.06 0 0 0 3.74 4.92v1.43l-4.85 2.16a7 7 0 0 0 -4.15 6.39v2.1a1 1 0 0 0 1 1h24a1 1 0 0 0 1-1v-2.1a7 7 0 0 0 -4.15-6.39zm-.85-12.51a1 1 0 0 1 0 2zm-16 2a1 1 0 0 1 0-2zm12.53 10.77-.24.94-1.58-.53-.37-.73.68-.34zm-10.53-16.77a6 6 0 0 1 12 0v.97a2.009 2.009 0 0 1 -1.6-1.48l-.43-1.73a1 1 0 0 0 -1.97.24 3.009 3.009 0 0 1 -3 3h-5zm0 6v-3h5a5.012 5.012 0 0 0 3.93-1.91 3.99 3.99 0 0 0 3.07 1.89v3.02a6 6 0 0 1 -12 0zm2.98 10.11.68.34-.37.73-1.58.53-.24-.94zm-.73 7.89h-7.25v-1.1a5 5 0 0 1 2.97-4.57l1.65-.73.41 1.64a1.017 1.017 0 0 0 .49.64 1 1 0 0 0 .48.12 1.185 1.185 0 0 0 .32-.05l2.36-.79zm2.09 0 .96-3.29a.99.99 0 0 0 1.4 0l.96 3.29zm.88-6.2.4-.8h.76l.4.8-.78.79zm2.78-3.42-1.24.62h-1.52l-1.24-.62v-.64a7.822 7.822 0 0 0 4 0zm9 9.62h-7.25l-1.43-4.84 2.36.79a1.185 1.185 0 0 0 .32.05 1 1 0 0 0 .48-.12 1.017 1.017 0 0 0 .49-.64l.41-1.64 1.65.73a5 5 0 0 1 2.97 4.57z" data-original="#000000" class="active-path" data-old_color="#000000" fill="#6861AC"/><path d="m34 18h4v2h-4z" data-original="#000000" class="active-path" data-old_color="#000000" fill="#6861AC"/><path d="m42 18h2v2h-2z" data-original="#000000" class="active-path" data-old_color="#000000" fill="#6861AC"/><path d="m46 18h2v2h-2z" data-original="#000000" class="active-path" data-old_color="#000000" fill="#6861AC"/><path d="m50 18h2v2h-2z" data-original="#000000" class="active-path" data-old_color="#000000" fill="#6861AC"/><path d="m54 18h2v2h-2z" data-original="#000000" class="active-path" data-old_color="#000000" fill="#6861AC"/><path d="m34 31h6v2h-6z" data-original="#000000" class="active-path" data-old_color="#000000" fill="#6861AC"/><path d="m42 27h4v2h-4z" data-original="#000000" class="active-path" data-old_color="#000000" fill="#6861AC"/><path d="m48 27h8v2h-8z" data-original="#000000" class="active-path" data-old_color="#000000" fill="#6861AC"/><path d="m42 31h14v2h-14z" data-original="#000000" class="active-path" data-old_color="#000000" fill="#6861AC"/><path d="m42 37h2v2h-2z" data-original="#000000" class="active-path" data-old_color="#000000" fill="#6861AC"/><path d="m46 37h2v2h-2z" data-original="#000000" class="active-path" data-old_color="#000000" fill="#6861AC"/><path d="m50 37h2v2h-2z" data-original="#000000" class="active-path" data-old_color="#000000" fill="#6861AC"/><path d="m54 37h2v2h-2z" data-original="#000000" class="active-path" data-old_color="#000000" fill="#6861AC"/><path d="m42 48h4v2h-4z" data-original="#000000" class="active-path" data-old_color="#000000" fill="#6861AC"/><path d="m48 48h4v2h-4z" data-original="#000000" class="active-path" data-old_color="#000000" fill="#6861AC"/><path d="m54 48h2v2h-2z" data-original="#000000" class="active-path" data-old_color="#000000" fill="#6861AC"/></g></g> </svg>
