<svg width="24" height="24" viewBox="0 0 24 24" fill="none" xmlns="http://www.w3.org/2000/svg">
<path d="M23.8778 0.982831C23.771 0.889127 23.619 0.867387 23.4901 0.927154L0.207591 11.7449C0.0822456 11.8031 0.00152815 11.9282 2.1427e-05 12.0664C-0.0014853 12.2046 0.0765775 12.3314 0.200703 12.3923L6.78962 15.6258C6.91044 15.6852 7.05451 15.6718 7.16243 15.5911L13.5687 10.803L8.5395 15.9761C8.46775 16.05 8.43116 16.151 8.43905 16.2536L8.93979 22.7748C8.95091 22.9193 9.04777 23.0429 9.18546 23.0882C9.22226 23.1002 9.26008 23.1061 9.29746 23.1061C9.39999 23.1061 9.49972 23.0621 9.5691 22.9818L13.0663 18.9292L17.3895 20.9949C17.4834 21.0397 17.592 21.0416 17.6873 21.0001C17.7827 20.9586 17.8553 20.8778 17.8864 20.7786L23.9835 1.36002C24.0261 1.22441 23.9846 1.07654 23.8778 0.982831Z" fill="#1BBD9F"/>
</svg>
